%TF.GenerationSoftware,KiCad,Pcbnew,8.0.1*%
%TF.CreationDate,2024-04-15T20:37:31+02:00*%
%TF.ProjectId,standalonepanel,7374616e-6461-46c6-9f6e-6570616e656c,rev?*%
%TF.SameCoordinates,Original*%
%TF.FileFunction,Paste,Bot*%
%TF.FilePolarity,Positive*%
%FSLAX46Y46*%
G04 Gerber Fmt 4.6, Leading zero omitted, Abs format (unit mm)*
G04 Created by KiCad (PCBNEW 8.0.1) date 2024-04-15 20:37:31*
%MOMM*%
%LPD*%
G01*
G04 APERTURE LIST*
G04 Aperture macros list*
%AMRoundRect*
0 Rectangle with rounded corners*
0 $1 Rounding radius*
0 $2 $3 $4 $5 $6 $7 $8 $9 X,Y pos of 4 corners*
0 Add a 4 corners polygon primitive as box body*
4,1,4,$2,$3,$4,$5,$6,$7,$8,$9,$2,$3,0*
0 Add four circle primitives for the rounded corners*
1,1,$1+$1,$2,$3*
1,1,$1+$1,$4,$5*
1,1,$1+$1,$6,$7*
1,1,$1+$1,$8,$9*
0 Add four rect primitives between the rounded corners*
20,1,$1+$1,$2,$3,$4,$5,0*
20,1,$1+$1,$4,$5,$6,$7,0*
20,1,$1+$1,$6,$7,$8,$9,0*
20,1,$1+$1,$8,$9,$2,$3,0*%
G04 Aperture macros list end*
%ADD10RoundRect,0.250000X-0.400000X-0.625000X0.400000X-0.625000X0.400000X0.625000X-0.400000X0.625000X0*%
%ADD11RoundRect,0.250000X0.337500X0.475000X-0.337500X0.475000X-0.337500X-0.475000X0.337500X-0.475000X0*%
%ADD12RoundRect,0.250000X0.475000X-0.337500X0.475000X0.337500X-0.475000X0.337500X-0.475000X-0.337500X0*%
%ADD13RoundRect,0.250000X-0.337500X-0.475000X0.337500X-0.475000X0.337500X0.475000X-0.337500X0.475000X0*%
%ADD14RoundRect,0.250000X0.625000X-0.400000X0.625000X0.400000X-0.625000X0.400000X-0.625000X-0.400000X0*%
%ADD15RoundRect,0.160000X0.160000X-0.160000X0.160000X0.160000X-0.160000X0.160000X-0.160000X-0.160000X0*%
%ADD16RoundRect,0.062500X0.062500X-0.375000X0.062500X0.375000X-0.062500X0.375000X-0.062500X-0.375000X0*%
%ADD17RoundRect,0.062500X0.375000X-0.062500X0.375000X0.062500X-0.375000X0.062500X-0.375000X-0.062500X0*%
%ADD18RoundRect,0.250000X-0.475000X0.337500X-0.475000X-0.337500X0.475000X-0.337500X0.475000X0.337500X0*%
%ADD19RoundRect,0.250000X0.400000X0.625000X-0.400000X0.625000X-0.400000X-0.625000X0.400000X-0.625000X0*%
%ADD20RoundRect,0.112500X-0.112500X0.187500X-0.112500X-0.187500X0.112500X-0.187500X0.112500X0.187500X0*%
G04 APERTURE END LIST*
D10*
%TO.C,R7*%
X97891000Y-118364000D03*
X100991000Y-118364000D03*
%TD*%
D11*
%TO.C,C28*%
X98748436Y-136078117D03*
X96673436Y-136078117D03*
%TD*%
D12*
%TO.C,C25*%
X99284436Y-127590615D03*
X99284436Y-125515615D03*
%TD*%
D11*
%TO.C,C34*%
X103173443Y-136078115D03*
X101098443Y-136078115D03*
%TD*%
D13*
%TO.C,C7*%
X106273935Y-116186613D03*
X108348935Y-116186613D03*
%TD*%
%TO.C,C30*%
X110184931Y-134052606D03*
X112259931Y-134052606D03*
%TD*%
D11*
%TO.C,C29*%
X98748437Y-134078113D03*
X96673437Y-134078113D03*
%TD*%
D13*
%TO.C,C31*%
X110184937Y-136052607D03*
X112259937Y-136052607D03*
%TD*%
D12*
%TO.C,C22*%
X99284436Y-123569615D03*
X99284436Y-121494615D03*
%TD*%
%TO.C,C21*%
X97125437Y-123548115D03*
X97125437Y-121473115D03*
%TD*%
D14*
%TO.C,R9*%
X116700000Y-129700000D03*
X116700000Y-126599998D03*
%TD*%
D11*
%TO.C,C33*%
X107666437Y-136078115D03*
X105591437Y-136078115D03*
%TD*%
D13*
%TO.C,C2*%
X101848933Y-116186613D03*
X103923933Y-116186613D03*
%TD*%
%TO.C,C1*%
X101848935Y-114186616D03*
X103923935Y-114186616D03*
%TD*%
D15*
%TO.C,U9*%
X108282437Y-126572115D03*
X109082437Y-126572115D03*
X108282437Y-125772115D03*
X109082437Y-125772115D03*
D16*
X109432437Y-127609615D03*
X108932437Y-127609615D03*
X108432437Y-127609615D03*
X107932437Y-127609615D03*
D17*
X107244937Y-126922115D03*
X107244937Y-126422115D03*
X107244937Y-125922115D03*
X107244937Y-125422115D03*
D16*
X107932437Y-124734615D03*
X108432437Y-124734615D03*
X108932437Y-124734615D03*
X109432437Y-124734615D03*
D17*
X110119937Y-125422115D03*
X110119937Y-125922115D03*
X110119937Y-126422115D03*
X110119937Y-126922115D03*
%TD*%
D18*
%TO.C,C24*%
X105380437Y-124478115D03*
X105380437Y-126553115D03*
%TD*%
D13*
%TO.C,C19*%
X116607869Y-122695109D03*
X118682869Y-122695109D03*
%TD*%
D18*
%TO.C,C23*%
X103380436Y-124478115D03*
X103380436Y-126553115D03*
%TD*%
D13*
%TO.C,C8*%
X97848931Y-114186613D03*
X99923931Y-114186613D03*
%TD*%
%TO.C,C16*%
X116630433Y-117800118D03*
X118705433Y-117800118D03*
%TD*%
D11*
%TO.C,C32*%
X107666435Y-134078115D03*
X105591435Y-134078115D03*
%TD*%
D13*
%TO.C,C15*%
X116630434Y-119800121D03*
X118705434Y-119800121D03*
%TD*%
D10*
%TO.C,R4*%
X105227437Y-118425115D03*
X108327437Y-118425115D03*
%TD*%
D13*
%TO.C,C9*%
X97848933Y-116186613D03*
X99923933Y-116186613D03*
%TD*%
%TO.C,C14*%
X150500000Y-117500000D03*
X152575000Y-117500000D03*
%TD*%
%TO.C,C20*%
X126440937Y-135189115D03*
X128515937Y-135189115D03*
%TD*%
%TO.C,C18*%
X116607870Y-124695106D03*
X118682870Y-124695106D03*
%TD*%
D11*
%TO.C,C35*%
X103173441Y-134078115D03*
X101098441Y-134078115D03*
%TD*%
D19*
%TO.C,R17*%
X101828937Y-138370612D03*
X98728937Y-138370612D03*
%TD*%
D12*
%TO.C,C26*%
X97125437Y-127590615D03*
X97125437Y-125515615D03*
%TD*%
D13*
%TO.C,C10*%
X106273933Y-114186616D03*
X108348933Y-114186616D03*
%TD*%
D20*
%TO.C,D2*%
X111857437Y-115470115D03*
X111857437Y-117570115D03*
%TD*%
M02*
