%TF.GenerationSoftware,KiCad,Pcbnew,8.0.1*%
%TF.CreationDate,2024-04-15T20:37:31+02:00*%
%TF.ProjectId,standalonepanel,7374616e-6461-46c6-9f6e-6570616e656c,rev?*%
%TF.SameCoordinates,Original*%
%TF.FileFunction,Legend,Top*%
%TF.FilePolarity,Positive*%
%FSLAX46Y46*%
G04 Gerber Fmt 4.6, Leading zero omitted, Abs format (unit mm)*
G04 Created by KiCad (PCBNEW 8.0.1) date 2024-04-15 20:37:31*
%MOMM*%
%LPD*%
G01*
G04 APERTURE LIST*
%ADD10C,0.150000*%
%ADD11C,0.300000*%
%ADD12C,0.120000*%
%ADD13C,0.152400*%
%ADD14C,0.100000*%
%ADD15C,0.000000*%
G04 APERTURE END LIST*
D10*
X129540000Y-123444000D02*
X134493000Y-123444000D01*
X129540000Y-117475000D02*
X134493000Y-117475000D01*
X133858000Y-122809000D02*
X134493000Y-123444000D01*
X134493000Y-123444000D02*
X133858000Y-122809000D01*
X134493000Y-117475000D02*
X133858000Y-116840000D01*
X134493000Y-117475000D02*
X133858000Y-118110000D01*
X133858000Y-116840000D02*
X134493000Y-117475000D01*
X134493000Y-123444000D02*
X133858000Y-124079000D01*
D11*
X95686143Y-137843484D02*
X95900429Y-137914912D01*
X95900429Y-137914912D02*
X96257571Y-137914912D01*
X96257571Y-137914912D02*
X96400429Y-137843484D01*
X96400429Y-137843484D02*
X96471857Y-137772055D01*
X96471857Y-137772055D02*
X96543286Y-137629198D01*
X96543286Y-137629198D02*
X96543286Y-137486341D01*
X96543286Y-137486341D02*
X96471857Y-137343484D01*
X96471857Y-137343484D02*
X96400429Y-137272055D01*
X96400429Y-137272055D02*
X96257571Y-137200626D01*
X96257571Y-137200626D02*
X95971857Y-137129198D01*
X95971857Y-137129198D02*
X95829000Y-137057769D01*
X95829000Y-137057769D02*
X95757571Y-136986341D01*
X95757571Y-136986341D02*
X95686143Y-136843484D01*
X95686143Y-136843484D02*
X95686143Y-136700626D01*
X95686143Y-136700626D02*
X95757571Y-136557769D01*
X95757571Y-136557769D02*
X95829000Y-136486341D01*
X95829000Y-136486341D02*
X95971857Y-136414912D01*
X95971857Y-136414912D02*
X96329000Y-136414912D01*
X96329000Y-136414912D02*
X96543286Y-136486341D01*
X96971857Y-136914912D02*
X97543285Y-136914912D01*
X97186142Y-136414912D02*
X97186142Y-137700626D01*
X97186142Y-137700626D02*
X97257571Y-137843484D01*
X97257571Y-137843484D02*
X97400428Y-137914912D01*
X97400428Y-137914912D02*
X97543285Y-137914912D01*
X98686143Y-137914912D02*
X98686143Y-137129198D01*
X98686143Y-137129198D02*
X98614714Y-136986341D01*
X98614714Y-136986341D02*
X98471857Y-136914912D01*
X98471857Y-136914912D02*
X98186143Y-136914912D01*
X98186143Y-136914912D02*
X98043285Y-136986341D01*
X98686143Y-137843484D02*
X98543285Y-137914912D01*
X98543285Y-137914912D02*
X98186143Y-137914912D01*
X98186143Y-137914912D02*
X98043285Y-137843484D01*
X98043285Y-137843484D02*
X97971857Y-137700626D01*
X97971857Y-137700626D02*
X97971857Y-137557769D01*
X97971857Y-137557769D02*
X98043285Y-137414912D01*
X98043285Y-137414912D02*
X98186143Y-137343484D01*
X98186143Y-137343484D02*
X98543285Y-137343484D01*
X98543285Y-137343484D02*
X98686143Y-137272055D01*
X99400428Y-136914912D02*
X99400428Y-137914912D01*
X99400428Y-137057769D02*
X99471857Y-136986341D01*
X99471857Y-136986341D02*
X99614714Y-136914912D01*
X99614714Y-136914912D02*
X99829000Y-136914912D01*
X99829000Y-136914912D02*
X99971857Y-136986341D01*
X99971857Y-136986341D02*
X100043286Y-137129198D01*
X100043286Y-137129198D02*
X100043286Y-137914912D01*
X101400429Y-137914912D02*
X101400429Y-136414912D01*
X101400429Y-137843484D02*
X101257571Y-137914912D01*
X101257571Y-137914912D02*
X100971857Y-137914912D01*
X100971857Y-137914912D02*
X100829000Y-137843484D01*
X100829000Y-137843484D02*
X100757571Y-137772055D01*
X100757571Y-137772055D02*
X100686143Y-137629198D01*
X100686143Y-137629198D02*
X100686143Y-137200626D01*
X100686143Y-137200626D02*
X100757571Y-137057769D01*
X100757571Y-137057769D02*
X100829000Y-136986341D01*
X100829000Y-136986341D02*
X100971857Y-136914912D01*
X100971857Y-136914912D02*
X101257571Y-136914912D01*
X101257571Y-136914912D02*
X101400429Y-136986341D01*
X102757572Y-137914912D02*
X102757572Y-137129198D01*
X102757572Y-137129198D02*
X102686143Y-136986341D01*
X102686143Y-136986341D02*
X102543286Y-136914912D01*
X102543286Y-136914912D02*
X102257572Y-136914912D01*
X102257572Y-136914912D02*
X102114714Y-136986341D01*
X102757572Y-137843484D02*
X102614714Y-137914912D01*
X102614714Y-137914912D02*
X102257572Y-137914912D01*
X102257572Y-137914912D02*
X102114714Y-137843484D01*
X102114714Y-137843484D02*
X102043286Y-137700626D01*
X102043286Y-137700626D02*
X102043286Y-137557769D01*
X102043286Y-137557769D02*
X102114714Y-137414912D01*
X102114714Y-137414912D02*
X102257572Y-137343484D01*
X102257572Y-137343484D02*
X102614714Y-137343484D01*
X102614714Y-137343484D02*
X102757572Y-137272055D01*
X103686143Y-137914912D02*
X103543286Y-137843484D01*
X103543286Y-137843484D02*
X103471857Y-137700626D01*
X103471857Y-137700626D02*
X103471857Y-136414912D01*
X104471857Y-137914912D02*
X104329000Y-137843484D01*
X104329000Y-137843484D02*
X104257571Y-137772055D01*
X104257571Y-137772055D02*
X104186143Y-137629198D01*
X104186143Y-137629198D02*
X104186143Y-137200626D01*
X104186143Y-137200626D02*
X104257571Y-137057769D01*
X104257571Y-137057769D02*
X104329000Y-136986341D01*
X104329000Y-136986341D02*
X104471857Y-136914912D01*
X104471857Y-136914912D02*
X104686143Y-136914912D01*
X104686143Y-136914912D02*
X104829000Y-136986341D01*
X104829000Y-136986341D02*
X104900429Y-137057769D01*
X104900429Y-137057769D02*
X104971857Y-137200626D01*
X104971857Y-137200626D02*
X104971857Y-137629198D01*
X104971857Y-137629198D02*
X104900429Y-137772055D01*
X104900429Y-137772055D02*
X104829000Y-137843484D01*
X104829000Y-137843484D02*
X104686143Y-137914912D01*
X104686143Y-137914912D02*
X104471857Y-137914912D01*
X105614714Y-136914912D02*
X105614714Y-137914912D01*
X105614714Y-137057769D02*
X105686143Y-136986341D01*
X105686143Y-136986341D02*
X105829000Y-136914912D01*
X105829000Y-136914912D02*
X106043286Y-136914912D01*
X106043286Y-136914912D02*
X106186143Y-136986341D01*
X106186143Y-136986341D02*
X106257572Y-137129198D01*
X106257572Y-137129198D02*
X106257572Y-137914912D01*
X107543286Y-137843484D02*
X107400429Y-137914912D01*
X107400429Y-137914912D02*
X107114715Y-137914912D01*
X107114715Y-137914912D02*
X106971857Y-137843484D01*
X106971857Y-137843484D02*
X106900429Y-137700626D01*
X106900429Y-137700626D02*
X106900429Y-137129198D01*
X106900429Y-137129198D02*
X106971857Y-136986341D01*
X106971857Y-136986341D02*
X107114715Y-136914912D01*
X107114715Y-136914912D02*
X107400429Y-136914912D01*
X107400429Y-136914912D02*
X107543286Y-136986341D01*
X107543286Y-136986341D02*
X107614715Y-137129198D01*
X107614715Y-137129198D02*
X107614715Y-137272055D01*
X107614715Y-137272055D02*
X106900429Y-137414912D01*
X108257571Y-136914912D02*
X108257571Y-138414912D01*
X108257571Y-136986341D02*
X108400429Y-136914912D01*
X108400429Y-136914912D02*
X108686143Y-136914912D01*
X108686143Y-136914912D02*
X108829000Y-136986341D01*
X108829000Y-136986341D02*
X108900429Y-137057769D01*
X108900429Y-137057769D02*
X108971857Y-137200626D01*
X108971857Y-137200626D02*
X108971857Y-137629198D01*
X108971857Y-137629198D02*
X108900429Y-137772055D01*
X108900429Y-137772055D02*
X108829000Y-137843484D01*
X108829000Y-137843484D02*
X108686143Y-137914912D01*
X108686143Y-137914912D02*
X108400429Y-137914912D01*
X108400429Y-137914912D02*
X108257571Y-137843484D01*
X110257572Y-137914912D02*
X110257572Y-137129198D01*
X110257572Y-137129198D02*
X110186143Y-136986341D01*
X110186143Y-136986341D02*
X110043286Y-136914912D01*
X110043286Y-136914912D02*
X109757572Y-136914912D01*
X109757572Y-136914912D02*
X109614714Y-136986341D01*
X110257572Y-137843484D02*
X110114714Y-137914912D01*
X110114714Y-137914912D02*
X109757572Y-137914912D01*
X109757572Y-137914912D02*
X109614714Y-137843484D01*
X109614714Y-137843484D02*
X109543286Y-137700626D01*
X109543286Y-137700626D02*
X109543286Y-137557769D01*
X109543286Y-137557769D02*
X109614714Y-137414912D01*
X109614714Y-137414912D02*
X109757572Y-137343484D01*
X109757572Y-137343484D02*
X110114714Y-137343484D01*
X110114714Y-137343484D02*
X110257572Y-137272055D01*
X110971857Y-136914912D02*
X110971857Y-137914912D01*
X110971857Y-137057769D02*
X111043286Y-136986341D01*
X111043286Y-136986341D02*
X111186143Y-136914912D01*
X111186143Y-136914912D02*
X111400429Y-136914912D01*
X111400429Y-136914912D02*
X111543286Y-136986341D01*
X111543286Y-136986341D02*
X111614715Y-137129198D01*
X111614715Y-137129198D02*
X111614715Y-137914912D01*
X112900429Y-137843484D02*
X112757572Y-137914912D01*
X112757572Y-137914912D02*
X112471858Y-137914912D01*
X112471858Y-137914912D02*
X112329000Y-137843484D01*
X112329000Y-137843484D02*
X112257572Y-137700626D01*
X112257572Y-137700626D02*
X112257572Y-137129198D01*
X112257572Y-137129198D02*
X112329000Y-136986341D01*
X112329000Y-136986341D02*
X112471858Y-136914912D01*
X112471858Y-136914912D02*
X112757572Y-136914912D01*
X112757572Y-136914912D02*
X112900429Y-136986341D01*
X112900429Y-136986341D02*
X112971858Y-137129198D01*
X112971858Y-137129198D02*
X112971858Y-137272055D01*
X112971858Y-137272055D02*
X112257572Y-137414912D01*
X113829000Y-137914912D02*
X113686143Y-137843484D01*
X113686143Y-137843484D02*
X113614714Y-137700626D01*
X113614714Y-137700626D02*
X113614714Y-136414912D01*
X115400428Y-136914912D02*
X115757571Y-137914912D01*
X115757571Y-137914912D02*
X116114714Y-136914912D01*
X117471857Y-137914912D02*
X116614714Y-137914912D01*
X117043285Y-137914912D02*
X117043285Y-136414912D01*
X117043285Y-136414912D02*
X116900428Y-136629198D01*
X116900428Y-136629198D02*
X116757571Y-136772055D01*
X116757571Y-136772055D02*
X116614714Y-136843484D01*
X99329000Y-139544114D02*
X99829000Y-139544114D01*
X100043286Y-140329828D02*
X99329000Y-140329828D01*
X99329000Y-140329828D02*
X99329000Y-138829828D01*
X99329000Y-138829828D02*
X100043286Y-138829828D01*
X100543286Y-139329828D02*
X100900429Y-140329828D01*
X100900429Y-140329828D02*
X101257572Y-139329828D01*
X102114715Y-138829828D02*
X102400429Y-138829828D01*
X102400429Y-138829828D02*
X102543286Y-138901257D01*
X102543286Y-138901257D02*
X102686143Y-139044114D01*
X102686143Y-139044114D02*
X102757572Y-139329828D01*
X102757572Y-139329828D02*
X102757572Y-139829828D01*
X102757572Y-139829828D02*
X102686143Y-140115542D01*
X102686143Y-140115542D02*
X102543286Y-140258400D01*
X102543286Y-140258400D02*
X102400429Y-140329828D01*
X102400429Y-140329828D02*
X102114715Y-140329828D01*
X102114715Y-140329828D02*
X101971858Y-140258400D01*
X101971858Y-140258400D02*
X101829000Y-140115542D01*
X101829000Y-140115542D02*
X101757572Y-139829828D01*
X101757572Y-139829828D02*
X101757572Y-139329828D01*
X101757572Y-139329828D02*
X101829000Y-139044114D01*
X101829000Y-139044114D02*
X101971858Y-138901257D01*
X101971858Y-138901257D02*
X102114715Y-138829828D01*
X104471858Y-139901257D02*
X105186144Y-139901257D01*
X104329001Y-140329828D02*
X104829001Y-138829828D01*
X104829001Y-138829828D02*
X105329001Y-140329828D01*
X105829000Y-139329828D02*
X105829000Y-140829828D01*
X105829000Y-139401257D02*
X105971858Y-139329828D01*
X105971858Y-139329828D02*
X106257572Y-139329828D01*
X106257572Y-139329828D02*
X106400429Y-139401257D01*
X106400429Y-139401257D02*
X106471858Y-139472685D01*
X106471858Y-139472685D02*
X106543286Y-139615542D01*
X106543286Y-139615542D02*
X106543286Y-140044114D01*
X106543286Y-140044114D02*
X106471858Y-140186971D01*
X106471858Y-140186971D02*
X106400429Y-140258400D01*
X106400429Y-140258400D02*
X106257572Y-140329828D01*
X106257572Y-140329828D02*
X105971858Y-140329828D01*
X105971858Y-140329828D02*
X105829000Y-140258400D01*
X107186143Y-140329828D02*
X107186143Y-139329828D01*
X107186143Y-139615542D02*
X107257572Y-139472685D01*
X107257572Y-139472685D02*
X107329001Y-139401257D01*
X107329001Y-139401257D02*
X107471858Y-139329828D01*
X107471858Y-139329828D02*
X107614715Y-139329828D01*
X108114714Y-140186971D02*
X108186143Y-140258400D01*
X108186143Y-140258400D02*
X108114714Y-140329828D01*
X108114714Y-140329828D02*
X108043286Y-140258400D01*
X108043286Y-140258400D02*
X108114714Y-140186971D01*
X108114714Y-140186971D02*
X108114714Y-140329828D01*
X108757572Y-138972685D02*
X108829000Y-138901257D01*
X108829000Y-138901257D02*
X108971858Y-138829828D01*
X108971858Y-138829828D02*
X109329000Y-138829828D01*
X109329000Y-138829828D02*
X109471858Y-138901257D01*
X109471858Y-138901257D02*
X109543286Y-138972685D01*
X109543286Y-138972685D02*
X109614715Y-139115542D01*
X109614715Y-139115542D02*
X109614715Y-139258400D01*
X109614715Y-139258400D02*
X109543286Y-139472685D01*
X109543286Y-139472685D02*
X108686143Y-140329828D01*
X108686143Y-140329828D02*
X109614715Y-140329828D01*
X110543286Y-138829828D02*
X110686143Y-138829828D01*
X110686143Y-138829828D02*
X110829000Y-138901257D01*
X110829000Y-138901257D02*
X110900429Y-138972685D01*
X110900429Y-138972685D02*
X110971857Y-139115542D01*
X110971857Y-139115542D02*
X111043286Y-139401257D01*
X111043286Y-139401257D02*
X111043286Y-139758400D01*
X111043286Y-139758400D02*
X110971857Y-140044114D01*
X110971857Y-140044114D02*
X110900429Y-140186971D01*
X110900429Y-140186971D02*
X110829000Y-140258400D01*
X110829000Y-140258400D02*
X110686143Y-140329828D01*
X110686143Y-140329828D02*
X110543286Y-140329828D01*
X110543286Y-140329828D02*
X110400429Y-140258400D01*
X110400429Y-140258400D02*
X110329000Y-140186971D01*
X110329000Y-140186971D02*
X110257571Y-140044114D01*
X110257571Y-140044114D02*
X110186143Y-139758400D01*
X110186143Y-139758400D02*
X110186143Y-139401257D01*
X110186143Y-139401257D02*
X110257571Y-139115542D01*
X110257571Y-139115542D02*
X110329000Y-138972685D01*
X110329000Y-138972685D02*
X110400429Y-138901257D01*
X110400429Y-138901257D02*
X110543286Y-138829828D01*
X111614714Y-138972685D02*
X111686142Y-138901257D01*
X111686142Y-138901257D02*
X111829000Y-138829828D01*
X111829000Y-138829828D02*
X112186142Y-138829828D01*
X112186142Y-138829828D02*
X112329000Y-138901257D01*
X112329000Y-138901257D02*
X112400428Y-138972685D01*
X112400428Y-138972685D02*
X112471857Y-139115542D01*
X112471857Y-139115542D02*
X112471857Y-139258400D01*
X112471857Y-139258400D02*
X112400428Y-139472685D01*
X112400428Y-139472685D02*
X111543285Y-140329828D01*
X111543285Y-140329828D02*
X112471857Y-140329828D01*
X113757571Y-139329828D02*
X113757571Y-140329828D01*
X113400428Y-138758400D02*
X113043285Y-139829828D01*
X113043285Y-139829828D02*
X113971856Y-139829828D01*
D10*
X81738095Y-119054819D02*
X81738095Y-119864342D01*
X81738095Y-119864342D02*
X81785714Y-119959580D01*
X81785714Y-119959580D02*
X81833333Y-120007200D01*
X81833333Y-120007200D02*
X81928571Y-120054819D01*
X81928571Y-120054819D02*
X82119047Y-120054819D01*
X82119047Y-120054819D02*
X82214285Y-120007200D01*
X82214285Y-120007200D02*
X82261904Y-119959580D01*
X82261904Y-119959580D02*
X82309523Y-119864342D01*
X82309523Y-119864342D02*
X82309523Y-119054819D01*
X83261904Y-119054819D02*
X82785714Y-119054819D01*
X82785714Y-119054819D02*
X82738095Y-119531009D01*
X82738095Y-119531009D02*
X82785714Y-119483390D01*
X82785714Y-119483390D02*
X82880952Y-119435771D01*
X82880952Y-119435771D02*
X83119047Y-119435771D01*
X83119047Y-119435771D02*
X83214285Y-119483390D01*
X83214285Y-119483390D02*
X83261904Y-119531009D01*
X83261904Y-119531009D02*
X83309523Y-119626247D01*
X83309523Y-119626247D02*
X83309523Y-119864342D01*
X83309523Y-119864342D02*
X83261904Y-119959580D01*
X83261904Y-119959580D02*
X83214285Y-120007200D01*
X83214285Y-120007200D02*
X83119047Y-120054819D01*
X83119047Y-120054819D02*
X82880952Y-120054819D01*
X82880952Y-120054819D02*
X82785714Y-120007200D01*
X82785714Y-120007200D02*
X82738095Y-119959580D01*
X82404762Y-128254819D02*
X82404762Y-127254819D01*
X82404762Y-127254819D02*
X82738095Y-127969104D01*
X82738095Y-127969104D02*
X83071428Y-127254819D01*
X83071428Y-127254819D02*
X83071428Y-128254819D01*
X83500000Y-127969104D02*
X83976190Y-127969104D01*
X83404762Y-128254819D02*
X83738095Y-127254819D01*
X83738095Y-127254819D02*
X84071428Y-128254819D01*
X84309524Y-127254819D02*
X84976190Y-128254819D01*
X84976190Y-127254819D02*
X84309524Y-128254819D01*
X85261905Y-127254819D02*
X85880952Y-127254819D01*
X85880952Y-127254819D02*
X85547619Y-127635771D01*
X85547619Y-127635771D02*
X85690476Y-127635771D01*
X85690476Y-127635771D02*
X85785714Y-127683390D01*
X85785714Y-127683390D02*
X85833333Y-127731009D01*
X85833333Y-127731009D02*
X85880952Y-127826247D01*
X85880952Y-127826247D02*
X85880952Y-128064342D01*
X85880952Y-128064342D02*
X85833333Y-128159580D01*
X85833333Y-128159580D02*
X85785714Y-128207200D01*
X85785714Y-128207200D02*
X85690476Y-128254819D01*
X85690476Y-128254819D02*
X85404762Y-128254819D01*
X85404762Y-128254819D02*
X85309524Y-128207200D01*
X85309524Y-128207200D02*
X85261905Y-128159580D01*
X86738095Y-127588152D02*
X86738095Y-128254819D01*
X86500000Y-127207200D02*
X86261905Y-127921485D01*
X86261905Y-127921485D02*
X86880952Y-127921485D01*
X87214286Y-127350057D02*
X87261905Y-127302438D01*
X87261905Y-127302438D02*
X87357143Y-127254819D01*
X87357143Y-127254819D02*
X87595238Y-127254819D01*
X87595238Y-127254819D02*
X87690476Y-127302438D01*
X87690476Y-127302438D02*
X87738095Y-127350057D01*
X87738095Y-127350057D02*
X87785714Y-127445295D01*
X87785714Y-127445295D02*
X87785714Y-127540533D01*
X87785714Y-127540533D02*
X87738095Y-127683390D01*
X87738095Y-127683390D02*
X87166667Y-128254819D01*
X87166667Y-128254819D02*
X87785714Y-128254819D01*
X88738095Y-128254819D02*
X88166667Y-128254819D01*
X88452381Y-128254819D02*
X88452381Y-127254819D01*
X88452381Y-127254819D02*
X88357143Y-127397676D01*
X88357143Y-127397676D02*
X88261905Y-127492914D01*
X88261905Y-127492914D02*
X88166667Y-127540533D01*
X89166667Y-127731009D02*
X89500000Y-127731009D01*
X89642857Y-128254819D02*
X89166667Y-128254819D01*
X89166667Y-128254819D02*
X89166667Y-127254819D01*
X89166667Y-127254819D02*
X89642857Y-127254819D01*
X80607142Y-133204819D02*
X80273809Y-132728628D01*
X80035714Y-133204819D02*
X80035714Y-132204819D01*
X80035714Y-132204819D02*
X80416666Y-132204819D01*
X80416666Y-132204819D02*
X80511904Y-132252438D01*
X80511904Y-132252438D02*
X80559523Y-132300057D01*
X80559523Y-132300057D02*
X80607142Y-132395295D01*
X80607142Y-132395295D02*
X80607142Y-132538152D01*
X80607142Y-132538152D02*
X80559523Y-132633390D01*
X80559523Y-132633390D02*
X80511904Y-132681009D01*
X80511904Y-132681009D02*
X80416666Y-132728628D01*
X80416666Y-132728628D02*
X80035714Y-132728628D01*
X81559523Y-133204819D02*
X80988095Y-133204819D01*
X81273809Y-133204819D02*
X81273809Y-132204819D01*
X81273809Y-132204819D02*
X81178571Y-132347676D01*
X81178571Y-132347676D02*
X81083333Y-132442914D01*
X81083333Y-132442914D02*
X80988095Y-132490533D01*
X81892857Y-132204819D02*
X82511904Y-132204819D01*
X82511904Y-132204819D02*
X82178571Y-132585771D01*
X82178571Y-132585771D02*
X82321428Y-132585771D01*
X82321428Y-132585771D02*
X82416666Y-132633390D01*
X82416666Y-132633390D02*
X82464285Y-132681009D01*
X82464285Y-132681009D02*
X82511904Y-132776247D01*
X82511904Y-132776247D02*
X82511904Y-133014342D01*
X82511904Y-133014342D02*
X82464285Y-133109580D01*
X82464285Y-133109580D02*
X82416666Y-133157200D01*
X82416666Y-133157200D02*
X82321428Y-133204819D01*
X82321428Y-133204819D02*
X82035714Y-133204819D01*
X82035714Y-133204819D02*
X81940476Y-133157200D01*
X81940476Y-133157200D02*
X81892857Y-133109580D01*
X82954819Y-107309523D02*
X81954819Y-107309523D01*
X82431009Y-107309523D02*
X82431009Y-106738095D01*
X82954819Y-106738095D02*
X81954819Y-106738095D01*
X81954819Y-106261904D02*
X82764342Y-106261904D01*
X82764342Y-106261904D02*
X82859580Y-106214285D01*
X82859580Y-106214285D02*
X82907200Y-106166666D01*
X82907200Y-106166666D02*
X82954819Y-106071428D01*
X82954819Y-106071428D02*
X82954819Y-105880952D01*
X82954819Y-105880952D02*
X82907200Y-105785714D01*
X82907200Y-105785714D02*
X82859580Y-105738095D01*
X82859580Y-105738095D02*
X82764342Y-105690476D01*
X82764342Y-105690476D02*
X81954819Y-105690476D01*
X82431009Y-104880952D02*
X82478628Y-104738095D01*
X82478628Y-104738095D02*
X82526247Y-104690476D01*
X82526247Y-104690476D02*
X82621485Y-104642857D01*
X82621485Y-104642857D02*
X82764342Y-104642857D01*
X82764342Y-104642857D02*
X82859580Y-104690476D01*
X82859580Y-104690476D02*
X82907200Y-104738095D01*
X82907200Y-104738095D02*
X82954819Y-104833333D01*
X82954819Y-104833333D02*
X82954819Y-105214285D01*
X82954819Y-105214285D02*
X81954819Y-105214285D01*
X81954819Y-105214285D02*
X81954819Y-104880952D01*
X81954819Y-104880952D02*
X82002438Y-104785714D01*
X82002438Y-104785714D02*
X82050057Y-104738095D01*
X82050057Y-104738095D02*
X82145295Y-104690476D01*
X82145295Y-104690476D02*
X82240533Y-104690476D01*
X82240533Y-104690476D02*
X82335771Y-104738095D01*
X82335771Y-104738095D02*
X82383390Y-104785714D01*
X82383390Y-104785714D02*
X82431009Y-104880952D01*
X82431009Y-104880952D02*
X82431009Y-105214285D01*
X81954819Y-104309523D02*
X81954819Y-103642857D01*
X81954819Y-103642857D02*
X82954819Y-104071428D01*
X81954819Y-102785714D02*
X81954819Y-103261904D01*
X81954819Y-103261904D02*
X82431009Y-103309523D01*
X82431009Y-103309523D02*
X82383390Y-103261904D01*
X82383390Y-103261904D02*
X82335771Y-103166666D01*
X82335771Y-103166666D02*
X82335771Y-102928571D01*
X82335771Y-102928571D02*
X82383390Y-102833333D01*
X82383390Y-102833333D02*
X82431009Y-102785714D01*
X82431009Y-102785714D02*
X82526247Y-102738095D01*
X82526247Y-102738095D02*
X82764342Y-102738095D01*
X82764342Y-102738095D02*
X82859580Y-102785714D01*
X82859580Y-102785714D02*
X82907200Y-102833333D01*
X82907200Y-102833333D02*
X82954819Y-102928571D01*
X82954819Y-102928571D02*
X82954819Y-103166666D01*
X82954819Y-103166666D02*
X82907200Y-103261904D01*
X82907200Y-103261904D02*
X82859580Y-103309523D01*
X82431009Y-102309523D02*
X82431009Y-101976190D01*
X82954819Y-101833333D02*
X82954819Y-102309523D01*
X82954819Y-102309523D02*
X81954819Y-102309523D01*
X81954819Y-102309523D02*
X81954819Y-101833333D01*
X82573866Y-101404761D02*
X82573866Y-100642857D01*
X82954819Y-99642857D02*
X82954819Y-100214285D01*
X82954819Y-99928571D02*
X81954819Y-99928571D01*
X81954819Y-99928571D02*
X82097676Y-100023809D01*
X82097676Y-100023809D02*
X82192914Y-100119047D01*
X82192914Y-100119047D02*
X82240533Y-100214285D01*
X77283333Y-124634819D02*
X76950000Y-124158628D01*
X76711905Y-124634819D02*
X76711905Y-123634819D01*
X76711905Y-123634819D02*
X77092857Y-123634819D01*
X77092857Y-123634819D02*
X77188095Y-123682438D01*
X77188095Y-123682438D02*
X77235714Y-123730057D01*
X77235714Y-123730057D02*
X77283333Y-123825295D01*
X77283333Y-123825295D02*
X77283333Y-123968152D01*
X77283333Y-123968152D02*
X77235714Y-124063390D01*
X77235714Y-124063390D02*
X77188095Y-124111009D01*
X77188095Y-124111009D02*
X77092857Y-124158628D01*
X77092857Y-124158628D02*
X76711905Y-124158628D01*
X78140476Y-123634819D02*
X77950000Y-123634819D01*
X77950000Y-123634819D02*
X77854762Y-123682438D01*
X77854762Y-123682438D02*
X77807143Y-123730057D01*
X77807143Y-123730057D02*
X77711905Y-123872914D01*
X77711905Y-123872914D02*
X77664286Y-124063390D01*
X77664286Y-124063390D02*
X77664286Y-124444342D01*
X77664286Y-124444342D02*
X77711905Y-124539580D01*
X77711905Y-124539580D02*
X77759524Y-124587200D01*
X77759524Y-124587200D02*
X77854762Y-124634819D01*
X77854762Y-124634819D02*
X78045238Y-124634819D01*
X78045238Y-124634819D02*
X78140476Y-124587200D01*
X78140476Y-124587200D02*
X78188095Y-124539580D01*
X78188095Y-124539580D02*
X78235714Y-124444342D01*
X78235714Y-124444342D02*
X78235714Y-124206247D01*
X78235714Y-124206247D02*
X78188095Y-124111009D01*
X78188095Y-124111009D02*
X78140476Y-124063390D01*
X78140476Y-124063390D02*
X78045238Y-124015771D01*
X78045238Y-124015771D02*
X77854762Y-124015771D01*
X77854762Y-124015771D02*
X77759524Y-124063390D01*
X77759524Y-124063390D02*
X77711905Y-124111009D01*
X77711905Y-124111009D02*
X77664286Y-124206247D01*
X85166666Y-101954819D02*
X85166666Y-102669104D01*
X85166666Y-102669104D02*
X85119047Y-102811961D01*
X85119047Y-102811961D02*
X85023809Y-102907200D01*
X85023809Y-102907200D02*
X84880952Y-102954819D01*
X84880952Y-102954819D02*
X84785714Y-102954819D01*
X85595238Y-102050057D02*
X85642857Y-102002438D01*
X85642857Y-102002438D02*
X85738095Y-101954819D01*
X85738095Y-101954819D02*
X85976190Y-101954819D01*
X85976190Y-101954819D02*
X86071428Y-102002438D01*
X86071428Y-102002438D02*
X86119047Y-102050057D01*
X86119047Y-102050057D02*
X86166666Y-102145295D01*
X86166666Y-102145295D02*
X86166666Y-102240533D01*
X86166666Y-102240533D02*
X86119047Y-102383390D01*
X86119047Y-102383390D02*
X85547619Y-102954819D01*
X85547619Y-102954819D02*
X86166666Y-102954819D01*
X87690476Y-102954819D02*
X87690476Y-101954819D01*
X87690476Y-101954819D02*
X88071428Y-101954819D01*
X88071428Y-101954819D02*
X88166666Y-102002438D01*
X88166666Y-102002438D02*
X88214285Y-102050057D01*
X88214285Y-102050057D02*
X88261904Y-102145295D01*
X88261904Y-102145295D02*
X88261904Y-102288152D01*
X88261904Y-102288152D02*
X88214285Y-102383390D01*
X88214285Y-102383390D02*
X88166666Y-102431009D01*
X88166666Y-102431009D02*
X88071428Y-102478628D01*
X88071428Y-102478628D02*
X87690476Y-102478628D01*
X88880952Y-101954819D02*
X89071428Y-101954819D01*
X89071428Y-101954819D02*
X89166666Y-102002438D01*
X89166666Y-102002438D02*
X89261904Y-102097676D01*
X89261904Y-102097676D02*
X89309523Y-102288152D01*
X89309523Y-102288152D02*
X89309523Y-102621485D01*
X89309523Y-102621485D02*
X89261904Y-102811961D01*
X89261904Y-102811961D02*
X89166666Y-102907200D01*
X89166666Y-102907200D02*
X89071428Y-102954819D01*
X89071428Y-102954819D02*
X88880952Y-102954819D01*
X88880952Y-102954819D02*
X88785714Y-102907200D01*
X88785714Y-102907200D02*
X88690476Y-102811961D01*
X88690476Y-102811961D02*
X88642857Y-102621485D01*
X88642857Y-102621485D02*
X88642857Y-102288152D01*
X88642857Y-102288152D02*
X88690476Y-102097676D01*
X88690476Y-102097676D02*
X88785714Y-102002438D01*
X88785714Y-102002438D02*
X88880952Y-101954819D01*
X89642857Y-101954819D02*
X89880952Y-102954819D01*
X89880952Y-102954819D02*
X90071428Y-102240533D01*
X90071428Y-102240533D02*
X90261904Y-102954819D01*
X90261904Y-102954819D02*
X90500000Y-101954819D01*
X90880952Y-102431009D02*
X91214285Y-102431009D01*
X91357142Y-102954819D02*
X90880952Y-102954819D01*
X90880952Y-102954819D02*
X90880952Y-101954819D01*
X90880952Y-101954819D02*
X91357142Y-101954819D01*
X92357142Y-102954819D02*
X92023809Y-102478628D01*
X91785714Y-102954819D02*
X91785714Y-101954819D01*
X91785714Y-101954819D02*
X92166666Y-101954819D01*
X92166666Y-101954819D02*
X92261904Y-102002438D01*
X92261904Y-102002438D02*
X92309523Y-102050057D01*
X92309523Y-102050057D02*
X92357142Y-102145295D01*
X92357142Y-102145295D02*
X92357142Y-102288152D01*
X92357142Y-102288152D02*
X92309523Y-102383390D01*
X92309523Y-102383390D02*
X92261904Y-102431009D01*
X92261904Y-102431009D02*
X92166666Y-102478628D01*
X92166666Y-102478628D02*
X91785714Y-102478628D01*
X142244580Y-118841357D02*
X142292200Y-118888976D01*
X142292200Y-118888976D02*
X142339819Y-119031833D01*
X142339819Y-119031833D02*
X142339819Y-119127071D01*
X142339819Y-119127071D02*
X142292200Y-119269928D01*
X142292200Y-119269928D02*
X142196961Y-119365166D01*
X142196961Y-119365166D02*
X142101723Y-119412785D01*
X142101723Y-119412785D02*
X141911247Y-119460404D01*
X141911247Y-119460404D02*
X141768390Y-119460404D01*
X141768390Y-119460404D02*
X141577914Y-119412785D01*
X141577914Y-119412785D02*
X141482676Y-119365166D01*
X141482676Y-119365166D02*
X141387438Y-119269928D01*
X141387438Y-119269928D02*
X141339819Y-119127071D01*
X141339819Y-119127071D02*
X141339819Y-119031833D01*
X141339819Y-119031833D02*
X141387438Y-118888976D01*
X141387438Y-118888976D02*
X141435057Y-118841357D01*
X141435057Y-118460404D02*
X141387438Y-118412785D01*
X141387438Y-118412785D02*
X141339819Y-118317547D01*
X141339819Y-118317547D02*
X141339819Y-118079452D01*
X141339819Y-118079452D02*
X141387438Y-117984214D01*
X141387438Y-117984214D02*
X141435057Y-117936595D01*
X141435057Y-117936595D02*
X141530295Y-117888976D01*
X141530295Y-117888976D02*
X141625533Y-117888976D01*
X141625533Y-117888976D02*
X141768390Y-117936595D01*
X141768390Y-117936595D02*
X142339819Y-118508023D01*
X142339819Y-118508023D02*
X142339819Y-117888976D01*
X141339819Y-117555642D02*
X141339819Y-116888976D01*
X141339819Y-116888976D02*
X142339819Y-117317547D01*
X135352618Y-108217819D02*
X135019285Y-107741628D01*
X134781190Y-108217819D02*
X134781190Y-107217819D01*
X134781190Y-107217819D02*
X135162142Y-107217819D01*
X135162142Y-107217819D02*
X135257380Y-107265438D01*
X135257380Y-107265438D02*
X135304999Y-107313057D01*
X135304999Y-107313057D02*
X135352618Y-107408295D01*
X135352618Y-107408295D02*
X135352618Y-107551152D01*
X135352618Y-107551152D02*
X135304999Y-107646390D01*
X135304999Y-107646390D02*
X135257380Y-107694009D01*
X135257380Y-107694009D02*
X135162142Y-107741628D01*
X135162142Y-107741628D02*
X134781190Y-107741628D01*
X135781190Y-107694009D02*
X136114523Y-107694009D01*
X136257380Y-108217819D02*
X135781190Y-108217819D01*
X135781190Y-108217819D02*
X135781190Y-107217819D01*
X135781190Y-107217819D02*
X136257380Y-107217819D01*
X136638333Y-108170200D02*
X136781190Y-108217819D01*
X136781190Y-108217819D02*
X137019285Y-108217819D01*
X137019285Y-108217819D02*
X137114523Y-108170200D01*
X137114523Y-108170200D02*
X137162142Y-108122580D01*
X137162142Y-108122580D02*
X137209761Y-108027342D01*
X137209761Y-108027342D02*
X137209761Y-107932104D01*
X137209761Y-107932104D02*
X137162142Y-107836866D01*
X137162142Y-107836866D02*
X137114523Y-107789247D01*
X137114523Y-107789247D02*
X137019285Y-107741628D01*
X137019285Y-107741628D02*
X136828809Y-107694009D01*
X136828809Y-107694009D02*
X136733571Y-107646390D01*
X136733571Y-107646390D02*
X136685952Y-107598771D01*
X136685952Y-107598771D02*
X136638333Y-107503533D01*
X136638333Y-107503533D02*
X136638333Y-107408295D01*
X136638333Y-107408295D02*
X136685952Y-107313057D01*
X136685952Y-107313057D02*
X136733571Y-107265438D01*
X136733571Y-107265438D02*
X136828809Y-107217819D01*
X136828809Y-107217819D02*
X137066904Y-107217819D01*
X137066904Y-107217819D02*
X137209761Y-107265438D01*
X137638333Y-107694009D02*
X137971666Y-107694009D01*
X138114523Y-108217819D02*
X137638333Y-108217819D01*
X137638333Y-108217819D02*
X137638333Y-107217819D01*
X137638333Y-107217819D02*
X138114523Y-107217819D01*
X138400238Y-107217819D02*
X138971666Y-107217819D01*
X138685952Y-108217819D02*
X138685952Y-107217819D01*
X89290476Y-111354819D02*
X89957142Y-112354819D01*
X89957142Y-111354819D02*
X89290476Y-112354819D01*
X90290476Y-111450057D02*
X90338095Y-111402438D01*
X90338095Y-111402438D02*
X90433333Y-111354819D01*
X90433333Y-111354819D02*
X90671428Y-111354819D01*
X90671428Y-111354819D02*
X90766666Y-111402438D01*
X90766666Y-111402438D02*
X90814285Y-111450057D01*
X90814285Y-111450057D02*
X90861904Y-111545295D01*
X90861904Y-111545295D02*
X90861904Y-111640533D01*
X90861904Y-111640533D02*
X90814285Y-111783390D01*
X90814285Y-111783390D02*
X90242857Y-112354819D01*
X90242857Y-112354819D02*
X90861904Y-112354819D01*
X92938095Y-110054819D02*
X92938095Y-110864342D01*
X92938095Y-110864342D02*
X92985714Y-110959580D01*
X92985714Y-110959580D02*
X93033333Y-111007200D01*
X93033333Y-111007200D02*
X93128571Y-111054819D01*
X93128571Y-111054819D02*
X93319047Y-111054819D01*
X93319047Y-111054819D02*
X93414285Y-111007200D01*
X93414285Y-111007200D02*
X93461904Y-110959580D01*
X93461904Y-110959580D02*
X93509523Y-110864342D01*
X93509523Y-110864342D02*
X93509523Y-110054819D01*
X93890476Y-110054819D02*
X94557142Y-110054819D01*
X94557142Y-110054819D02*
X94128571Y-111054819D01*
X99600000Y-109754819D02*
X99600000Y-108754819D01*
X100647618Y-109659580D02*
X100599999Y-109707200D01*
X100599999Y-109707200D02*
X100457142Y-109754819D01*
X100457142Y-109754819D02*
X100361904Y-109754819D01*
X100361904Y-109754819D02*
X100219047Y-109707200D01*
X100219047Y-109707200D02*
X100123809Y-109611961D01*
X100123809Y-109611961D02*
X100076190Y-109516723D01*
X100076190Y-109516723D02*
X100028571Y-109326247D01*
X100028571Y-109326247D02*
X100028571Y-109183390D01*
X100028571Y-109183390D02*
X100076190Y-108992914D01*
X100076190Y-108992914D02*
X100123809Y-108897676D01*
X100123809Y-108897676D02*
X100219047Y-108802438D01*
X100219047Y-108802438D02*
X100361904Y-108754819D01*
X100361904Y-108754819D02*
X100457142Y-108754819D01*
X100457142Y-108754819D02*
X100599999Y-108802438D01*
X100599999Y-108802438D02*
X100647618Y-108850057D01*
X101076190Y-109231009D02*
X101409523Y-109231009D01*
X101552380Y-109754819D02*
X101076190Y-109754819D01*
X101076190Y-109754819D02*
X101076190Y-108754819D01*
X101076190Y-108754819D02*
X101552380Y-108754819D01*
X102409523Y-109088152D02*
X102409523Y-109754819D01*
X102171428Y-108707200D02*
X101933333Y-109421485D01*
X101933333Y-109421485D02*
X102552380Y-109421485D01*
X103123809Y-108754819D02*
X103219047Y-108754819D01*
X103219047Y-108754819D02*
X103314285Y-108802438D01*
X103314285Y-108802438D02*
X103361904Y-108850057D01*
X103361904Y-108850057D02*
X103409523Y-108945295D01*
X103409523Y-108945295D02*
X103457142Y-109135771D01*
X103457142Y-109135771D02*
X103457142Y-109373866D01*
X103457142Y-109373866D02*
X103409523Y-109564342D01*
X103409523Y-109564342D02*
X103361904Y-109659580D01*
X103361904Y-109659580D02*
X103314285Y-109707200D01*
X103314285Y-109707200D02*
X103219047Y-109754819D01*
X103219047Y-109754819D02*
X103123809Y-109754819D01*
X103123809Y-109754819D02*
X103028571Y-109707200D01*
X103028571Y-109707200D02*
X102980952Y-109659580D01*
X102980952Y-109659580D02*
X102933333Y-109564342D01*
X102933333Y-109564342D02*
X102885714Y-109373866D01*
X102885714Y-109373866D02*
X102885714Y-109135771D01*
X102885714Y-109135771D02*
X102933333Y-108945295D01*
X102933333Y-108945295D02*
X102980952Y-108850057D01*
X102980952Y-108850057D02*
X103028571Y-108802438D01*
X103028571Y-108802438D02*
X103123809Y-108754819D01*
X103885714Y-109373866D02*
X104647619Y-109373866D01*
X105123809Y-109754819D02*
X105123809Y-108754819D01*
X105123809Y-109231009D02*
X105695237Y-109231009D01*
X105695237Y-109754819D02*
X105695237Y-108754819D01*
X106076190Y-108754819D02*
X106742856Y-109754819D01*
X106742856Y-108754819D02*
X106076190Y-109754819D01*
X107552380Y-109088152D02*
X107552380Y-109754819D01*
X107314285Y-108707200D02*
X107076190Y-109421485D01*
X107076190Y-109421485D02*
X107695237Y-109421485D01*
X108076190Y-109754819D02*
X108076190Y-108754819D01*
X108647618Y-109754819D02*
X108219047Y-109183390D01*
X108647618Y-108754819D02*
X108076190Y-109326247D01*
X166161905Y-114554819D02*
X166161905Y-115364342D01*
X166161905Y-115364342D02*
X166209524Y-115459580D01*
X166209524Y-115459580D02*
X166257143Y-115507200D01*
X166257143Y-115507200D02*
X166352381Y-115554819D01*
X166352381Y-115554819D02*
X166542857Y-115554819D01*
X166542857Y-115554819D02*
X166638095Y-115507200D01*
X166638095Y-115507200D02*
X166685714Y-115459580D01*
X166685714Y-115459580D02*
X166733333Y-115364342D01*
X166733333Y-115364342D02*
X166733333Y-114554819D01*
X167733333Y-115554819D02*
X167161905Y-115554819D01*
X167447619Y-115554819D02*
X167447619Y-114554819D01*
X167447619Y-114554819D02*
X167352381Y-114697676D01*
X167352381Y-114697676D02*
X167257143Y-114792914D01*
X167257143Y-114792914D02*
X167161905Y-114840533D01*
X168352381Y-114554819D02*
X168447619Y-114554819D01*
X168447619Y-114554819D02*
X168542857Y-114602438D01*
X168542857Y-114602438D02*
X168590476Y-114650057D01*
X168590476Y-114650057D02*
X168638095Y-114745295D01*
X168638095Y-114745295D02*
X168685714Y-114935771D01*
X168685714Y-114935771D02*
X168685714Y-115173866D01*
X168685714Y-115173866D02*
X168638095Y-115364342D01*
X168638095Y-115364342D02*
X168590476Y-115459580D01*
X168590476Y-115459580D02*
X168542857Y-115507200D01*
X168542857Y-115507200D02*
X168447619Y-115554819D01*
X168447619Y-115554819D02*
X168352381Y-115554819D01*
X168352381Y-115554819D02*
X168257143Y-115507200D01*
X168257143Y-115507200D02*
X168209524Y-115459580D01*
X168209524Y-115459580D02*
X168161905Y-115364342D01*
X168161905Y-115364342D02*
X168114286Y-115173866D01*
X168114286Y-115173866D02*
X168114286Y-114935771D01*
X168114286Y-114935771D02*
X168161905Y-114745295D01*
X168161905Y-114745295D02*
X168209524Y-114650057D01*
X168209524Y-114650057D02*
X168257143Y-114602438D01*
X168257143Y-114602438D02*
X168352381Y-114554819D01*
X168619048Y-120954819D02*
X168619048Y-119954819D01*
X168619048Y-119954819D02*
X168952381Y-120669104D01*
X168952381Y-120669104D02*
X169285714Y-119954819D01*
X169285714Y-119954819D02*
X169285714Y-120954819D01*
X169761905Y-120954819D02*
X169761905Y-119954819D01*
X169761905Y-119954819D02*
X170142857Y-119954819D01*
X170142857Y-119954819D02*
X170238095Y-120002438D01*
X170238095Y-120002438D02*
X170285714Y-120050057D01*
X170285714Y-120050057D02*
X170333333Y-120145295D01*
X170333333Y-120145295D02*
X170333333Y-120288152D01*
X170333333Y-120288152D02*
X170285714Y-120383390D01*
X170285714Y-120383390D02*
X170238095Y-120431009D01*
X170238095Y-120431009D02*
X170142857Y-120478628D01*
X170142857Y-120478628D02*
X169761905Y-120478628D01*
X170761905Y-119954819D02*
X170761905Y-120764342D01*
X170761905Y-120764342D02*
X170809524Y-120859580D01*
X170809524Y-120859580D02*
X170857143Y-120907200D01*
X170857143Y-120907200D02*
X170952381Y-120954819D01*
X170952381Y-120954819D02*
X171142857Y-120954819D01*
X171142857Y-120954819D02*
X171238095Y-120907200D01*
X171238095Y-120907200D02*
X171285714Y-120859580D01*
X171285714Y-120859580D02*
X171333333Y-120764342D01*
X171333333Y-120764342D02*
X171333333Y-119954819D01*
X171809524Y-120573866D02*
X172571429Y-120573866D01*
X173476190Y-119954819D02*
X173285714Y-119954819D01*
X173285714Y-119954819D02*
X173190476Y-120002438D01*
X173190476Y-120002438D02*
X173142857Y-120050057D01*
X173142857Y-120050057D02*
X173047619Y-120192914D01*
X173047619Y-120192914D02*
X173000000Y-120383390D01*
X173000000Y-120383390D02*
X173000000Y-120764342D01*
X173000000Y-120764342D02*
X173047619Y-120859580D01*
X173047619Y-120859580D02*
X173095238Y-120907200D01*
X173095238Y-120907200D02*
X173190476Y-120954819D01*
X173190476Y-120954819D02*
X173380952Y-120954819D01*
X173380952Y-120954819D02*
X173476190Y-120907200D01*
X173476190Y-120907200D02*
X173523809Y-120859580D01*
X173523809Y-120859580D02*
X173571428Y-120764342D01*
X173571428Y-120764342D02*
X173571428Y-120526247D01*
X173571428Y-120526247D02*
X173523809Y-120431009D01*
X173523809Y-120431009D02*
X173476190Y-120383390D01*
X173476190Y-120383390D02*
X173380952Y-120335771D01*
X173380952Y-120335771D02*
X173190476Y-120335771D01*
X173190476Y-120335771D02*
X173095238Y-120383390D01*
X173095238Y-120383390D02*
X173047619Y-120431009D01*
X173047619Y-120431009D02*
X173000000Y-120526247D01*
X174190476Y-119954819D02*
X174285714Y-119954819D01*
X174285714Y-119954819D02*
X174380952Y-120002438D01*
X174380952Y-120002438D02*
X174428571Y-120050057D01*
X174428571Y-120050057D02*
X174476190Y-120145295D01*
X174476190Y-120145295D02*
X174523809Y-120335771D01*
X174523809Y-120335771D02*
X174523809Y-120573866D01*
X174523809Y-120573866D02*
X174476190Y-120764342D01*
X174476190Y-120764342D02*
X174428571Y-120859580D01*
X174428571Y-120859580D02*
X174380952Y-120907200D01*
X174380952Y-120907200D02*
X174285714Y-120954819D01*
X174285714Y-120954819D02*
X174190476Y-120954819D01*
X174190476Y-120954819D02*
X174095238Y-120907200D01*
X174095238Y-120907200D02*
X174047619Y-120859580D01*
X174047619Y-120859580D02*
X174000000Y-120764342D01*
X174000000Y-120764342D02*
X173952381Y-120573866D01*
X173952381Y-120573866D02*
X173952381Y-120335771D01*
X173952381Y-120335771D02*
X174000000Y-120145295D01*
X174000000Y-120145295D02*
X174047619Y-120050057D01*
X174047619Y-120050057D02*
X174095238Y-120002438D01*
X174095238Y-120002438D02*
X174190476Y-119954819D01*
X175428571Y-119954819D02*
X174952381Y-119954819D01*
X174952381Y-119954819D02*
X174904762Y-120431009D01*
X174904762Y-120431009D02*
X174952381Y-120383390D01*
X174952381Y-120383390D02*
X175047619Y-120335771D01*
X175047619Y-120335771D02*
X175285714Y-120335771D01*
X175285714Y-120335771D02*
X175380952Y-120383390D01*
X175380952Y-120383390D02*
X175428571Y-120431009D01*
X175428571Y-120431009D02*
X175476190Y-120526247D01*
X175476190Y-120526247D02*
X175476190Y-120764342D01*
X175476190Y-120764342D02*
X175428571Y-120859580D01*
X175428571Y-120859580D02*
X175380952Y-120907200D01*
X175380952Y-120907200D02*
X175285714Y-120954819D01*
X175285714Y-120954819D02*
X175047619Y-120954819D01*
X175047619Y-120954819D02*
X174952381Y-120907200D01*
X174952381Y-120907200D02*
X174904762Y-120859580D01*
X176095238Y-119954819D02*
X176190476Y-119954819D01*
X176190476Y-119954819D02*
X176285714Y-120002438D01*
X176285714Y-120002438D02*
X176333333Y-120050057D01*
X176333333Y-120050057D02*
X176380952Y-120145295D01*
X176380952Y-120145295D02*
X176428571Y-120335771D01*
X176428571Y-120335771D02*
X176428571Y-120573866D01*
X176428571Y-120573866D02*
X176380952Y-120764342D01*
X176380952Y-120764342D02*
X176333333Y-120859580D01*
X176333333Y-120859580D02*
X176285714Y-120907200D01*
X176285714Y-120907200D02*
X176190476Y-120954819D01*
X176190476Y-120954819D02*
X176095238Y-120954819D01*
X176095238Y-120954819D02*
X176000000Y-120907200D01*
X176000000Y-120907200D02*
X175952381Y-120859580D01*
X175952381Y-120859580D02*
X175904762Y-120764342D01*
X175904762Y-120764342D02*
X175857143Y-120573866D01*
X175857143Y-120573866D02*
X175857143Y-120335771D01*
X175857143Y-120335771D02*
X175904762Y-120145295D01*
X175904762Y-120145295D02*
X175952381Y-120050057D01*
X175952381Y-120050057D02*
X176000000Y-120002438D01*
X176000000Y-120002438D02*
X176095238Y-119954819D01*
X91857142Y-138954819D02*
X91523809Y-138478628D01*
X91285714Y-138954819D02*
X91285714Y-137954819D01*
X91285714Y-137954819D02*
X91666666Y-137954819D01*
X91666666Y-137954819D02*
X91761904Y-138002438D01*
X91761904Y-138002438D02*
X91809523Y-138050057D01*
X91809523Y-138050057D02*
X91857142Y-138145295D01*
X91857142Y-138145295D02*
X91857142Y-138288152D01*
X91857142Y-138288152D02*
X91809523Y-138383390D01*
X91809523Y-138383390D02*
X91761904Y-138431009D01*
X91761904Y-138431009D02*
X91666666Y-138478628D01*
X91666666Y-138478628D02*
X91285714Y-138478628D01*
X92809523Y-138954819D02*
X92238095Y-138954819D01*
X92523809Y-138954819D02*
X92523809Y-137954819D01*
X92523809Y-137954819D02*
X92428571Y-138097676D01*
X92428571Y-138097676D02*
X92333333Y-138192914D01*
X92333333Y-138192914D02*
X92238095Y-138240533D01*
X93666666Y-137954819D02*
X93476190Y-137954819D01*
X93476190Y-137954819D02*
X93380952Y-138002438D01*
X93380952Y-138002438D02*
X93333333Y-138050057D01*
X93333333Y-138050057D02*
X93238095Y-138192914D01*
X93238095Y-138192914D02*
X93190476Y-138383390D01*
X93190476Y-138383390D02*
X93190476Y-138764342D01*
X93190476Y-138764342D02*
X93238095Y-138859580D01*
X93238095Y-138859580D02*
X93285714Y-138907200D01*
X93285714Y-138907200D02*
X93380952Y-138954819D01*
X93380952Y-138954819D02*
X93571428Y-138954819D01*
X93571428Y-138954819D02*
X93666666Y-138907200D01*
X93666666Y-138907200D02*
X93714285Y-138859580D01*
X93714285Y-138859580D02*
X93761904Y-138764342D01*
X93761904Y-138764342D02*
X93761904Y-138526247D01*
X93761904Y-138526247D02*
X93714285Y-138431009D01*
X93714285Y-138431009D02*
X93666666Y-138383390D01*
X93666666Y-138383390D02*
X93571428Y-138335771D01*
X93571428Y-138335771D02*
X93380952Y-138335771D01*
X93380952Y-138335771D02*
X93285714Y-138383390D01*
X93285714Y-138383390D02*
X93238095Y-138431009D01*
X93238095Y-138431009D02*
X93190476Y-138526247D01*
X166221580Y-119768857D02*
X166269200Y-119816476D01*
X166269200Y-119816476D02*
X166316819Y-119959333D01*
X166316819Y-119959333D02*
X166316819Y-120054571D01*
X166316819Y-120054571D02*
X166269200Y-120197428D01*
X166269200Y-120197428D02*
X166173961Y-120292666D01*
X166173961Y-120292666D02*
X166078723Y-120340285D01*
X166078723Y-120340285D02*
X165888247Y-120387904D01*
X165888247Y-120387904D02*
X165745390Y-120387904D01*
X165745390Y-120387904D02*
X165554914Y-120340285D01*
X165554914Y-120340285D02*
X165459676Y-120292666D01*
X165459676Y-120292666D02*
X165364438Y-120197428D01*
X165364438Y-120197428D02*
X165316819Y-120054571D01*
X165316819Y-120054571D02*
X165316819Y-119959333D01*
X165316819Y-119959333D02*
X165364438Y-119816476D01*
X165364438Y-119816476D02*
X165412057Y-119768857D01*
X165316819Y-119435523D02*
X165316819Y-118816476D01*
X165316819Y-118816476D02*
X165697771Y-119149809D01*
X165697771Y-119149809D02*
X165697771Y-119006952D01*
X165697771Y-119006952D02*
X165745390Y-118911714D01*
X165745390Y-118911714D02*
X165793009Y-118864095D01*
X165793009Y-118864095D02*
X165888247Y-118816476D01*
X165888247Y-118816476D02*
X166126342Y-118816476D01*
X166126342Y-118816476D02*
X166221580Y-118864095D01*
X166221580Y-118864095D02*
X166269200Y-118911714D01*
X166269200Y-118911714D02*
X166316819Y-119006952D01*
X166316819Y-119006952D02*
X166316819Y-119292666D01*
X166316819Y-119292666D02*
X166269200Y-119387904D01*
X166269200Y-119387904D02*
X166221580Y-119435523D01*
X165316819Y-118483142D02*
X165316819Y-117816476D01*
X165316819Y-117816476D02*
X166316819Y-118245047D01*
X167769580Y-112932357D02*
X167817200Y-112979976D01*
X167817200Y-112979976D02*
X167864819Y-113122833D01*
X167864819Y-113122833D02*
X167864819Y-113218071D01*
X167864819Y-113218071D02*
X167817200Y-113360928D01*
X167817200Y-113360928D02*
X167721961Y-113456166D01*
X167721961Y-113456166D02*
X167626723Y-113503785D01*
X167626723Y-113503785D02*
X167436247Y-113551404D01*
X167436247Y-113551404D02*
X167293390Y-113551404D01*
X167293390Y-113551404D02*
X167102914Y-113503785D01*
X167102914Y-113503785D02*
X167007676Y-113456166D01*
X167007676Y-113456166D02*
X166912438Y-113360928D01*
X166912438Y-113360928D02*
X166864819Y-113218071D01*
X166864819Y-113218071D02*
X166864819Y-113122833D01*
X166864819Y-113122833D02*
X166912438Y-112979976D01*
X166912438Y-112979976D02*
X166960057Y-112932357D01*
X167198152Y-112075214D02*
X167864819Y-112075214D01*
X166817200Y-112313309D02*
X167531485Y-112551404D01*
X167531485Y-112551404D02*
X167531485Y-111932357D01*
X166864819Y-111360928D02*
X166864819Y-111265690D01*
X166864819Y-111265690D02*
X166912438Y-111170452D01*
X166912438Y-111170452D02*
X166960057Y-111122833D01*
X166960057Y-111122833D02*
X167055295Y-111075214D01*
X167055295Y-111075214D02*
X167245771Y-111027595D01*
X167245771Y-111027595D02*
X167483866Y-111027595D01*
X167483866Y-111027595D02*
X167674342Y-111075214D01*
X167674342Y-111075214D02*
X167769580Y-111122833D01*
X167769580Y-111122833D02*
X167817200Y-111170452D01*
X167817200Y-111170452D02*
X167864819Y-111265690D01*
X167864819Y-111265690D02*
X167864819Y-111360928D01*
X167864819Y-111360928D02*
X167817200Y-111456166D01*
X167817200Y-111456166D02*
X167769580Y-111503785D01*
X167769580Y-111503785D02*
X167674342Y-111551404D01*
X167674342Y-111551404D02*
X167483866Y-111599023D01*
X167483866Y-111599023D02*
X167245771Y-111599023D01*
X167245771Y-111599023D02*
X167055295Y-111551404D01*
X167055295Y-111551404D02*
X166960057Y-111503785D01*
X166960057Y-111503785D02*
X166912438Y-111456166D01*
X166912438Y-111456166D02*
X166864819Y-111360928D01*
X82127641Y-117453580D02*
X82080022Y-117501200D01*
X82080022Y-117501200D02*
X81937165Y-117548819D01*
X81937165Y-117548819D02*
X81841927Y-117548819D01*
X81841927Y-117548819D02*
X81699070Y-117501200D01*
X81699070Y-117501200D02*
X81603832Y-117405961D01*
X81603832Y-117405961D02*
X81556213Y-117310723D01*
X81556213Y-117310723D02*
X81508594Y-117120247D01*
X81508594Y-117120247D02*
X81508594Y-116977390D01*
X81508594Y-116977390D02*
X81556213Y-116786914D01*
X81556213Y-116786914D02*
X81603832Y-116691676D01*
X81603832Y-116691676D02*
X81699070Y-116596438D01*
X81699070Y-116596438D02*
X81841927Y-116548819D01*
X81841927Y-116548819D02*
X81937165Y-116548819D01*
X81937165Y-116548819D02*
X82080022Y-116596438D01*
X82080022Y-116596438D02*
X82127641Y-116644057D01*
X83080022Y-117548819D02*
X82508594Y-117548819D01*
X82794308Y-117548819D02*
X82794308Y-116548819D01*
X82794308Y-116548819D02*
X82699070Y-116691676D01*
X82699070Y-116691676D02*
X82603832Y-116786914D01*
X82603832Y-116786914D02*
X82508594Y-116834533D01*
X83413356Y-116548819D02*
X84080022Y-116548819D01*
X84080022Y-116548819D02*
X83651451Y-117548819D01*
X141074819Y-107309523D02*
X140074819Y-107309523D01*
X140551009Y-107309523D02*
X140551009Y-106738095D01*
X141074819Y-106738095D02*
X140074819Y-106738095D01*
X140074819Y-106261904D02*
X140884342Y-106261904D01*
X140884342Y-106261904D02*
X140979580Y-106214285D01*
X140979580Y-106214285D02*
X141027200Y-106166666D01*
X141027200Y-106166666D02*
X141074819Y-106071428D01*
X141074819Y-106071428D02*
X141074819Y-105880952D01*
X141074819Y-105880952D02*
X141027200Y-105785714D01*
X141027200Y-105785714D02*
X140979580Y-105738095D01*
X140979580Y-105738095D02*
X140884342Y-105690476D01*
X140884342Y-105690476D02*
X140074819Y-105690476D01*
X140551009Y-104880952D02*
X140598628Y-104738095D01*
X140598628Y-104738095D02*
X140646247Y-104690476D01*
X140646247Y-104690476D02*
X140741485Y-104642857D01*
X140741485Y-104642857D02*
X140884342Y-104642857D01*
X140884342Y-104642857D02*
X140979580Y-104690476D01*
X140979580Y-104690476D02*
X141027200Y-104738095D01*
X141027200Y-104738095D02*
X141074819Y-104833333D01*
X141074819Y-104833333D02*
X141074819Y-105214285D01*
X141074819Y-105214285D02*
X140074819Y-105214285D01*
X140074819Y-105214285D02*
X140074819Y-104880952D01*
X140074819Y-104880952D02*
X140122438Y-104785714D01*
X140122438Y-104785714D02*
X140170057Y-104738095D01*
X140170057Y-104738095D02*
X140265295Y-104690476D01*
X140265295Y-104690476D02*
X140360533Y-104690476D01*
X140360533Y-104690476D02*
X140455771Y-104738095D01*
X140455771Y-104738095D02*
X140503390Y-104785714D01*
X140503390Y-104785714D02*
X140551009Y-104880952D01*
X140551009Y-104880952D02*
X140551009Y-105214285D01*
X140074819Y-104309523D02*
X140074819Y-103642857D01*
X140074819Y-103642857D02*
X141074819Y-104071428D01*
X140074819Y-102785714D02*
X140074819Y-103261904D01*
X140074819Y-103261904D02*
X140551009Y-103309523D01*
X140551009Y-103309523D02*
X140503390Y-103261904D01*
X140503390Y-103261904D02*
X140455771Y-103166666D01*
X140455771Y-103166666D02*
X140455771Y-102928571D01*
X140455771Y-102928571D02*
X140503390Y-102833333D01*
X140503390Y-102833333D02*
X140551009Y-102785714D01*
X140551009Y-102785714D02*
X140646247Y-102738095D01*
X140646247Y-102738095D02*
X140884342Y-102738095D01*
X140884342Y-102738095D02*
X140979580Y-102785714D01*
X140979580Y-102785714D02*
X141027200Y-102833333D01*
X141027200Y-102833333D02*
X141074819Y-102928571D01*
X141074819Y-102928571D02*
X141074819Y-103166666D01*
X141074819Y-103166666D02*
X141027200Y-103261904D01*
X141027200Y-103261904D02*
X140979580Y-103309523D01*
X140551009Y-102309523D02*
X140551009Y-101976190D01*
X141074819Y-101833333D02*
X141074819Y-102309523D01*
X141074819Y-102309523D02*
X140074819Y-102309523D01*
X140074819Y-102309523D02*
X140074819Y-101833333D01*
X140693866Y-101404761D02*
X140693866Y-100642857D01*
X140170057Y-100214285D02*
X140122438Y-100166666D01*
X140122438Y-100166666D02*
X140074819Y-100071428D01*
X140074819Y-100071428D02*
X140074819Y-99833333D01*
X140074819Y-99833333D02*
X140122438Y-99738095D01*
X140122438Y-99738095D02*
X140170057Y-99690476D01*
X140170057Y-99690476D02*
X140265295Y-99642857D01*
X140265295Y-99642857D02*
X140360533Y-99642857D01*
X140360533Y-99642857D02*
X140503390Y-99690476D01*
X140503390Y-99690476D02*
X141074819Y-100261904D01*
X141074819Y-100261904D02*
X141074819Y-99642857D01*
X143238095Y-121454819D02*
X143238095Y-122264342D01*
X143238095Y-122264342D02*
X143285714Y-122359580D01*
X143285714Y-122359580D02*
X143333333Y-122407200D01*
X143333333Y-122407200D02*
X143428571Y-122454819D01*
X143428571Y-122454819D02*
X143619047Y-122454819D01*
X143619047Y-122454819D02*
X143714285Y-122407200D01*
X143714285Y-122407200D02*
X143761904Y-122359580D01*
X143761904Y-122359580D02*
X143809523Y-122264342D01*
X143809523Y-122264342D02*
X143809523Y-121454819D01*
X144190476Y-121454819D02*
X144809523Y-121454819D01*
X144809523Y-121454819D02*
X144476190Y-121835771D01*
X144476190Y-121835771D02*
X144619047Y-121835771D01*
X144619047Y-121835771D02*
X144714285Y-121883390D01*
X144714285Y-121883390D02*
X144761904Y-121931009D01*
X144761904Y-121931009D02*
X144809523Y-122026247D01*
X144809523Y-122026247D02*
X144809523Y-122264342D01*
X144809523Y-122264342D02*
X144761904Y-122359580D01*
X144761904Y-122359580D02*
X144714285Y-122407200D01*
X144714285Y-122407200D02*
X144619047Y-122454819D01*
X144619047Y-122454819D02*
X144333333Y-122454819D01*
X144333333Y-122454819D02*
X144238095Y-122407200D01*
X144238095Y-122407200D02*
X144190476Y-122359580D01*
X141831009Y-139409523D02*
X141831009Y-139076190D01*
X142354819Y-138933333D02*
X142354819Y-139409523D01*
X142354819Y-139409523D02*
X141354819Y-139409523D01*
X141354819Y-139409523D02*
X141354819Y-138933333D01*
X142307200Y-138552380D02*
X142354819Y-138409523D01*
X142354819Y-138409523D02*
X142354819Y-138171428D01*
X142354819Y-138171428D02*
X142307200Y-138076190D01*
X142307200Y-138076190D02*
X142259580Y-138028571D01*
X142259580Y-138028571D02*
X142164342Y-137980952D01*
X142164342Y-137980952D02*
X142069104Y-137980952D01*
X142069104Y-137980952D02*
X141973866Y-138028571D01*
X141973866Y-138028571D02*
X141926247Y-138076190D01*
X141926247Y-138076190D02*
X141878628Y-138171428D01*
X141878628Y-138171428D02*
X141831009Y-138361904D01*
X141831009Y-138361904D02*
X141783390Y-138457142D01*
X141783390Y-138457142D02*
X141735771Y-138504761D01*
X141735771Y-138504761D02*
X141640533Y-138552380D01*
X141640533Y-138552380D02*
X141545295Y-138552380D01*
X141545295Y-138552380D02*
X141450057Y-138504761D01*
X141450057Y-138504761D02*
X141402438Y-138457142D01*
X141402438Y-138457142D02*
X141354819Y-138361904D01*
X141354819Y-138361904D02*
X141354819Y-138123809D01*
X141354819Y-138123809D02*
X141402438Y-137980952D01*
X142354819Y-137552380D02*
X141354819Y-137552380D01*
X141354819Y-137552380D02*
X141354819Y-137171428D01*
X141354819Y-137171428D02*
X141402438Y-137076190D01*
X141402438Y-137076190D02*
X141450057Y-137028571D01*
X141450057Y-137028571D02*
X141545295Y-136980952D01*
X141545295Y-136980952D02*
X141688152Y-136980952D01*
X141688152Y-136980952D02*
X141783390Y-137028571D01*
X141783390Y-137028571D02*
X141831009Y-137076190D01*
X141831009Y-137076190D02*
X141878628Y-137171428D01*
X141878628Y-137171428D02*
X141878628Y-137552380D01*
X141354819Y-136647618D02*
X141354819Y-136028571D01*
X141354819Y-136028571D02*
X141735771Y-136361904D01*
X141735771Y-136361904D02*
X141735771Y-136219047D01*
X141735771Y-136219047D02*
X141783390Y-136123809D01*
X141783390Y-136123809D02*
X141831009Y-136076190D01*
X141831009Y-136076190D02*
X141926247Y-136028571D01*
X141926247Y-136028571D02*
X142164342Y-136028571D01*
X142164342Y-136028571D02*
X142259580Y-136076190D01*
X142259580Y-136076190D02*
X142307200Y-136123809D01*
X142307200Y-136123809D02*
X142354819Y-136219047D01*
X142354819Y-136219047D02*
X142354819Y-136504761D01*
X142354819Y-136504761D02*
X142307200Y-136599999D01*
X142307200Y-136599999D02*
X142259580Y-136647618D01*
X141450057Y-135647618D02*
X141402438Y-135599999D01*
X141402438Y-135599999D02*
X141354819Y-135504761D01*
X141354819Y-135504761D02*
X141354819Y-135266666D01*
X141354819Y-135266666D02*
X141402438Y-135171428D01*
X141402438Y-135171428D02*
X141450057Y-135123809D01*
X141450057Y-135123809D02*
X141545295Y-135076190D01*
X141545295Y-135076190D02*
X141640533Y-135076190D01*
X141640533Y-135076190D02*
X141783390Y-135123809D01*
X141783390Y-135123809D02*
X142354819Y-135695237D01*
X142354819Y-135695237D02*
X142354819Y-135076190D01*
X141973866Y-134647618D02*
X141973866Y-133885714D01*
X141354819Y-133504761D02*
X142354819Y-133266666D01*
X142354819Y-133266666D02*
X141640533Y-133076190D01*
X141640533Y-133076190D02*
X142354819Y-132885714D01*
X142354819Y-132885714D02*
X141354819Y-132647619D01*
X142354819Y-131695238D02*
X141878628Y-132028571D01*
X142354819Y-132266666D02*
X141354819Y-132266666D01*
X141354819Y-132266666D02*
X141354819Y-131885714D01*
X141354819Y-131885714D02*
X141402438Y-131790476D01*
X141402438Y-131790476D02*
X141450057Y-131742857D01*
X141450057Y-131742857D02*
X141545295Y-131695238D01*
X141545295Y-131695238D02*
X141688152Y-131695238D01*
X141688152Y-131695238D02*
X141783390Y-131742857D01*
X141783390Y-131742857D02*
X141831009Y-131790476D01*
X141831009Y-131790476D02*
X141878628Y-131885714D01*
X141878628Y-131885714D02*
X141878628Y-132266666D01*
X141354819Y-131076190D02*
X141354819Y-130885714D01*
X141354819Y-130885714D02*
X141402438Y-130790476D01*
X141402438Y-130790476D02*
X141497676Y-130695238D01*
X141497676Y-130695238D02*
X141688152Y-130647619D01*
X141688152Y-130647619D02*
X142021485Y-130647619D01*
X142021485Y-130647619D02*
X142211961Y-130695238D01*
X142211961Y-130695238D02*
X142307200Y-130790476D01*
X142307200Y-130790476D02*
X142354819Y-130885714D01*
X142354819Y-130885714D02*
X142354819Y-131076190D01*
X142354819Y-131076190D02*
X142307200Y-131171428D01*
X142307200Y-131171428D02*
X142211961Y-131266666D01*
X142211961Y-131266666D02*
X142021485Y-131314285D01*
X142021485Y-131314285D02*
X141688152Y-131314285D01*
X141688152Y-131314285D02*
X141497676Y-131266666D01*
X141497676Y-131266666D02*
X141402438Y-131171428D01*
X141402438Y-131171428D02*
X141354819Y-131076190D01*
X141354819Y-130361904D02*
X142354819Y-130028571D01*
X142354819Y-130028571D02*
X141354819Y-129695238D01*
X141831009Y-129361904D02*
X141831009Y-129028571D01*
X142354819Y-128885714D02*
X142354819Y-129361904D01*
X142354819Y-129361904D02*
X141354819Y-129361904D01*
X141354819Y-129361904D02*
X141354819Y-128885714D01*
X142354819Y-127885714D02*
X141878628Y-128219047D01*
X142354819Y-128457142D02*
X141354819Y-128457142D01*
X141354819Y-128457142D02*
X141354819Y-128076190D01*
X141354819Y-128076190D02*
X141402438Y-127980952D01*
X141402438Y-127980952D02*
X141450057Y-127933333D01*
X141450057Y-127933333D02*
X141545295Y-127885714D01*
X141545295Y-127885714D02*
X141688152Y-127885714D01*
X141688152Y-127885714D02*
X141783390Y-127933333D01*
X141783390Y-127933333D02*
X141831009Y-127980952D01*
X141831009Y-127980952D02*
X141878628Y-128076190D01*
X141878628Y-128076190D02*
X141878628Y-128457142D01*
X141973866Y-127457142D02*
X141973866Y-126695238D01*
X141831009Y-126219047D02*
X141831009Y-125885714D01*
X142354819Y-125742857D02*
X142354819Y-126219047D01*
X142354819Y-126219047D02*
X141354819Y-126219047D01*
X141354819Y-126219047D02*
X141354819Y-125742857D01*
X171121895Y-128339094D02*
X171121895Y-128815284D01*
X170836180Y-128243856D02*
X171836180Y-128577189D01*
X171836180Y-128577189D02*
X170836180Y-128910522D01*
X171502847Y-129243856D02*
X170836180Y-129243856D01*
X171407609Y-129243856D02*
X171455228Y-129291475D01*
X171455228Y-129291475D02*
X171502847Y-129386713D01*
X171502847Y-129386713D02*
X171502847Y-129529570D01*
X171502847Y-129529570D02*
X171455228Y-129624808D01*
X171455228Y-129624808D02*
X171359990Y-129672427D01*
X171359990Y-129672427D02*
X170836180Y-129672427D01*
X171502847Y-130005761D02*
X171502847Y-130386713D01*
X171836180Y-130148618D02*
X170979038Y-130148618D01*
X170979038Y-130148618D02*
X170883800Y-130196237D01*
X170883800Y-130196237D02*
X170836180Y-130291475D01*
X170836180Y-130291475D02*
X170836180Y-130386713D01*
X170883800Y-131100999D02*
X170836180Y-131005761D01*
X170836180Y-131005761D02*
X170836180Y-130815285D01*
X170836180Y-130815285D02*
X170883800Y-130720047D01*
X170883800Y-130720047D02*
X170979038Y-130672428D01*
X170979038Y-130672428D02*
X171359990Y-130672428D01*
X171359990Y-130672428D02*
X171455228Y-130720047D01*
X171455228Y-130720047D02*
X171502847Y-130815285D01*
X171502847Y-130815285D02*
X171502847Y-131005761D01*
X171502847Y-131005761D02*
X171455228Y-131100999D01*
X171455228Y-131100999D02*
X171359990Y-131148618D01*
X171359990Y-131148618D02*
X171264752Y-131148618D01*
X171264752Y-131148618D02*
X171169514Y-130672428D01*
X171502847Y-131577190D02*
X170836180Y-131577190D01*
X171407609Y-131577190D02*
X171455228Y-131624809D01*
X171455228Y-131624809D02*
X171502847Y-131720047D01*
X171502847Y-131720047D02*
X171502847Y-131862904D01*
X171502847Y-131862904D02*
X171455228Y-131958142D01*
X171455228Y-131958142D02*
X171359990Y-132005761D01*
X171359990Y-132005761D02*
X170836180Y-132005761D01*
X171502847Y-132481952D02*
X170836180Y-132481952D01*
X171407609Y-132481952D02*
X171455228Y-132529571D01*
X171455228Y-132529571D02*
X171502847Y-132624809D01*
X171502847Y-132624809D02*
X171502847Y-132767666D01*
X171502847Y-132767666D02*
X171455228Y-132862904D01*
X171455228Y-132862904D02*
X171359990Y-132910523D01*
X171359990Y-132910523D02*
X170836180Y-132910523D01*
X170836180Y-133815285D02*
X171359990Y-133815285D01*
X171359990Y-133815285D02*
X171455228Y-133767666D01*
X171455228Y-133767666D02*
X171502847Y-133672428D01*
X171502847Y-133672428D02*
X171502847Y-133481952D01*
X171502847Y-133481952D02*
X171455228Y-133386714D01*
X170883800Y-133815285D02*
X170836180Y-133720047D01*
X170836180Y-133720047D02*
X170836180Y-133481952D01*
X170836180Y-133481952D02*
X170883800Y-133386714D01*
X170883800Y-133386714D02*
X170979038Y-133339095D01*
X170979038Y-133339095D02*
X171074276Y-133339095D01*
X171074276Y-133339095D02*
X171169514Y-133386714D01*
X171169514Y-133386714D02*
X171217133Y-133481952D01*
X171217133Y-133481952D02*
X171217133Y-133720047D01*
X171217133Y-133720047D02*
X171264752Y-133815285D01*
X171121895Y-135005762D02*
X171121895Y-135481952D01*
X170836180Y-134910524D02*
X171836180Y-135243857D01*
X171836180Y-135243857D02*
X170836180Y-135577190D01*
X170836180Y-135910524D02*
X171502847Y-135910524D01*
X171312371Y-135910524D02*
X171407609Y-135958143D01*
X171407609Y-135958143D02*
X171455228Y-136005762D01*
X171455228Y-136005762D02*
X171502847Y-136101000D01*
X171502847Y-136101000D02*
X171502847Y-136196238D01*
X170883800Y-136910524D02*
X170836180Y-136815286D01*
X170836180Y-136815286D02*
X170836180Y-136624810D01*
X170836180Y-136624810D02*
X170883800Y-136529572D01*
X170883800Y-136529572D02*
X170979038Y-136481953D01*
X170979038Y-136481953D02*
X171359990Y-136481953D01*
X171359990Y-136481953D02*
X171455228Y-136529572D01*
X171455228Y-136529572D02*
X171502847Y-136624810D01*
X171502847Y-136624810D02*
X171502847Y-136815286D01*
X171502847Y-136815286D02*
X171455228Y-136910524D01*
X171455228Y-136910524D02*
X171359990Y-136958143D01*
X171359990Y-136958143D02*
X171264752Y-136958143D01*
X171264752Y-136958143D02*
X171169514Y-136481953D01*
X170836180Y-137815286D02*
X171359990Y-137815286D01*
X171359990Y-137815286D02*
X171455228Y-137767667D01*
X171455228Y-137767667D02*
X171502847Y-137672429D01*
X171502847Y-137672429D02*
X171502847Y-137481953D01*
X171502847Y-137481953D02*
X171455228Y-137386715D01*
X170883800Y-137815286D02*
X170836180Y-137720048D01*
X170836180Y-137720048D02*
X170836180Y-137481953D01*
X170836180Y-137481953D02*
X170883800Y-137386715D01*
X170883800Y-137386715D02*
X170979038Y-137339096D01*
X170979038Y-137339096D02*
X171074276Y-137339096D01*
X171074276Y-137339096D02*
X171169514Y-137386715D01*
X171169514Y-137386715D02*
X171217133Y-137481953D01*
X171217133Y-137481953D02*
X171217133Y-137720048D01*
X171217133Y-137720048D02*
X171264752Y-137815286D01*
X58763095Y-118954819D02*
X58763095Y-119764342D01*
X58763095Y-119764342D02*
X58810714Y-119859580D01*
X58810714Y-119859580D02*
X58858333Y-119907200D01*
X58858333Y-119907200D02*
X58953571Y-119954819D01*
X58953571Y-119954819D02*
X59144047Y-119954819D01*
X59144047Y-119954819D02*
X59239285Y-119907200D01*
X59239285Y-119907200D02*
X59286904Y-119859580D01*
X59286904Y-119859580D02*
X59334523Y-119764342D01*
X59334523Y-119764342D02*
X59334523Y-118954819D01*
X60334523Y-119954819D02*
X59763095Y-119954819D01*
X60048809Y-119954819D02*
X60048809Y-118954819D01*
X60048809Y-118954819D02*
X59953571Y-119097676D01*
X59953571Y-119097676D02*
X59858333Y-119192914D01*
X59858333Y-119192914D02*
X59763095Y-119240533D01*
X121190238Y-116929819D02*
X121761666Y-116929819D01*
X121475952Y-117929819D02*
X121475952Y-116929819D01*
X122047381Y-117882200D02*
X122190238Y-117929819D01*
X122190238Y-117929819D02*
X122428333Y-117929819D01*
X122428333Y-117929819D02*
X122523571Y-117882200D01*
X122523571Y-117882200D02*
X122571190Y-117834580D01*
X122571190Y-117834580D02*
X122618809Y-117739342D01*
X122618809Y-117739342D02*
X122618809Y-117644104D01*
X122618809Y-117644104D02*
X122571190Y-117548866D01*
X122571190Y-117548866D02*
X122523571Y-117501247D01*
X122523571Y-117501247D02*
X122428333Y-117453628D01*
X122428333Y-117453628D02*
X122237857Y-117406009D01*
X122237857Y-117406009D02*
X122142619Y-117358390D01*
X122142619Y-117358390D02*
X122095000Y-117310771D01*
X122095000Y-117310771D02*
X122047381Y-117215533D01*
X122047381Y-117215533D02*
X122047381Y-117120295D01*
X122047381Y-117120295D02*
X122095000Y-117025057D01*
X122095000Y-117025057D02*
X122142619Y-116977438D01*
X122142619Y-116977438D02*
X122237857Y-116929819D01*
X122237857Y-116929819D02*
X122475952Y-116929819D01*
X122475952Y-116929819D02*
X122618809Y-116977438D01*
X122904524Y-116929819D02*
X123475952Y-116929819D01*
X123190238Y-117929819D02*
X123190238Y-116929819D01*
X123809286Y-117548866D02*
X124571191Y-117548866D01*
X125047381Y-117929819D02*
X125047381Y-116929819D01*
X126094999Y-117834580D02*
X126047380Y-117882200D01*
X126047380Y-117882200D02*
X125904523Y-117929819D01*
X125904523Y-117929819D02*
X125809285Y-117929819D01*
X125809285Y-117929819D02*
X125666428Y-117882200D01*
X125666428Y-117882200D02*
X125571190Y-117786961D01*
X125571190Y-117786961D02*
X125523571Y-117691723D01*
X125523571Y-117691723D02*
X125475952Y-117501247D01*
X125475952Y-117501247D02*
X125475952Y-117358390D01*
X125475952Y-117358390D02*
X125523571Y-117167914D01*
X125523571Y-117167914D02*
X125571190Y-117072676D01*
X125571190Y-117072676D02*
X125666428Y-116977438D01*
X125666428Y-116977438D02*
X125809285Y-116929819D01*
X125809285Y-116929819D02*
X125904523Y-116929819D01*
X125904523Y-116929819D02*
X126047380Y-116977438D01*
X126047380Y-116977438D02*
X126094999Y-117025057D01*
X126523571Y-117406009D02*
X126856904Y-117406009D01*
X126999761Y-117929819D02*
X126523571Y-117929819D01*
X126523571Y-117929819D02*
X126523571Y-116929819D01*
X126523571Y-116929819D02*
X126999761Y-116929819D01*
X127856904Y-117263152D02*
X127856904Y-117929819D01*
X127618809Y-116882200D02*
X127380714Y-117596485D01*
X127380714Y-117596485D02*
X127999761Y-117596485D01*
X128571190Y-116929819D02*
X128666428Y-116929819D01*
X128666428Y-116929819D02*
X128761666Y-116977438D01*
X128761666Y-116977438D02*
X128809285Y-117025057D01*
X128809285Y-117025057D02*
X128856904Y-117120295D01*
X128856904Y-117120295D02*
X128904523Y-117310771D01*
X128904523Y-117310771D02*
X128904523Y-117548866D01*
X128904523Y-117548866D02*
X128856904Y-117739342D01*
X128856904Y-117739342D02*
X128809285Y-117834580D01*
X128809285Y-117834580D02*
X128761666Y-117882200D01*
X128761666Y-117882200D02*
X128666428Y-117929819D01*
X128666428Y-117929819D02*
X128571190Y-117929819D01*
X128571190Y-117929819D02*
X128475952Y-117882200D01*
X128475952Y-117882200D02*
X128428333Y-117834580D01*
X128428333Y-117834580D02*
X128380714Y-117739342D01*
X128380714Y-117739342D02*
X128333095Y-117548866D01*
X128333095Y-117548866D02*
X128333095Y-117310771D01*
X128333095Y-117310771D02*
X128380714Y-117120295D01*
X128380714Y-117120295D02*
X128428333Y-117025057D01*
X128428333Y-117025057D02*
X128475952Y-116977438D01*
X128475952Y-116977438D02*
X128571190Y-116929819D01*
X133140142Y-114440819D02*
X132806809Y-113964628D01*
X132568714Y-114440819D02*
X132568714Y-113440819D01*
X132568714Y-113440819D02*
X132949666Y-113440819D01*
X132949666Y-113440819D02*
X133044904Y-113488438D01*
X133044904Y-113488438D02*
X133092523Y-113536057D01*
X133092523Y-113536057D02*
X133140142Y-113631295D01*
X133140142Y-113631295D02*
X133140142Y-113774152D01*
X133140142Y-113774152D02*
X133092523Y-113869390D01*
X133092523Y-113869390D02*
X133044904Y-113917009D01*
X133044904Y-113917009D02*
X132949666Y-113964628D01*
X132949666Y-113964628D02*
X132568714Y-113964628D01*
X134092523Y-114440819D02*
X133521095Y-114440819D01*
X133806809Y-114440819D02*
X133806809Y-113440819D01*
X133806809Y-113440819D02*
X133711571Y-113583676D01*
X133711571Y-113583676D02*
X133616333Y-113678914D01*
X133616333Y-113678914D02*
X133521095Y-113726533D01*
X134997285Y-113440819D02*
X134521095Y-113440819D01*
X134521095Y-113440819D02*
X134473476Y-113917009D01*
X134473476Y-113917009D02*
X134521095Y-113869390D01*
X134521095Y-113869390D02*
X134616333Y-113821771D01*
X134616333Y-113821771D02*
X134854428Y-113821771D01*
X134854428Y-113821771D02*
X134949666Y-113869390D01*
X134949666Y-113869390D02*
X134997285Y-113917009D01*
X134997285Y-113917009D02*
X135044904Y-114012247D01*
X135044904Y-114012247D02*
X135044904Y-114250342D01*
X135044904Y-114250342D02*
X134997285Y-114345580D01*
X134997285Y-114345580D02*
X134949666Y-114393200D01*
X134949666Y-114393200D02*
X134854428Y-114440819D01*
X134854428Y-114440819D02*
X134616333Y-114440819D01*
X134616333Y-114440819D02*
X134521095Y-114393200D01*
X134521095Y-114393200D02*
X134473476Y-114345580D01*
X68319642Y-124679580D02*
X68272023Y-124727200D01*
X68272023Y-124727200D02*
X68129166Y-124774819D01*
X68129166Y-124774819D02*
X68033928Y-124774819D01*
X68033928Y-124774819D02*
X67891071Y-124727200D01*
X67891071Y-124727200D02*
X67795833Y-124631961D01*
X67795833Y-124631961D02*
X67748214Y-124536723D01*
X67748214Y-124536723D02*
X67700595Y-124346247D01*
X67700595Y-124346247D02*
X67700595Y-124203390D01*
X67700595Y-124203390D02*
X67748214Y-124012914D01*
X67748214Y-124012914D02*
X67795833Y-123917676D01*
X67795833Y-123917676D02*
X67891071Y-123822438D01*
X67891071Y-123822438D02*
X68033928Y-123774819D01*
X68033928Y-123774819D02*
X68129166Y-123774819D01*
X68129166Y-123774819D02*
X68272023Y-123822438D01*
X68272023Y-123822438D02*
X68319642Y-123870057D01*
X69272023Y-124774819D02*
X68700595Y-124774819D01*
X68986309Y-124774819D02*
X68986309Y-123774819D01*
X68986309Y-123774819D02*
X68891071Y-123917676D01*
X68891071Y-123917676D02*
X68795833Y-124012914D01*
X68795833Y-124012914D02*
X68700595Y-124060533D01*
X70224404Y-124774819D02*
X69652976Y-124774819D01*
X69938690Y-124774819D02*
X69938690Y-123774819D01*
X69938690Y-123774819D02*
X69843452Y-123917676D01*
X69843452Y-123917676D02*
X69748214Y-124012914D01*
X69748214Y-124012914D02*
X69652976Y-124060533D01*
X51712905Y-130756819D02*
X51712905Y-129756819D01*
X51712905Y-129756819D02*
X52093857Y-129756819D01*
X52093857Y-129756819D02*
X52189095Y-129804438D01*
X52189095Y-129804438D02*
X52236714Y-129852057D01*
X52236714Y-129852057D02*
X52284333Y-129947295D01*
X52284333Y-129947295D02*
X52284333Y-130090152D01*
X52284333Y-130090152D02*
X52236714Y-130185390D01*
X52236714Y-130185390D02*
X52189095Y-130233009D01*
X52189095Y-130233009D02*
X52093857Y-130280628D01*
X52093857Y-130280628D02*
X51712905Y-130280628D01*
X52665286Y-129852057D02*
X52712905Y-129804438D01*
X52712905Y-129804438D02*
X52808143Y-129756819D01*
X52808143Y-129756819D02*
X53046238Y-129756819D01*
X53046238Y-129756819D02*
X53141476Y-129804438D01*
X53141476Y-129804438D02*
X53189095Y-129852057D01*
X53189095Y-129852057D02*
X53236714Y-129947295D01*
X53236714Y-129947295D02*
X53236714Y-130042533D01*
X53236714Y-130042533D02*
X53189095Y-130185390D01*
X53189095Y-130185390D02*
X52617667Y-130756819D01*
X52617667Y-130756819D02*
X53236714Y-130756819D01*
X68254819Y-132161904D02*
X69064342Y-132161904D01*
X69064342Y-132161904D02*
X69159580Y-132114285D01*
X69159580Y-132114285D02*
X69207200Y-132066666D01*
X69207200Y-132066666D02*
X69254819Y-131971428D01*
X69254819Y-131971428D02*
X69254819Y-131780952D01*
X69254819Y-131780952D02*
X69207200Y-131685714D01*
X69207200Y-131685714D02*
X69159580Y-131638095D01*
X69159580Y-131638095D02*
X69064342Y-131590476D01*
X69064342Y-131590476D02*
X68254819Y-131590476D01*
X68588152Y-130685714D02*
X69254819Y-130685714D01*
X68207200Y-130923809D02*
X68921485Y-131161904D01*
X68921485Y-131161904D02*
X68921485Y-130542857D01*
X72757142Y-136159580D02*
X72709523Y-136207200D01*
X72709523Y-136207200D02*
X72566666Y-136254819D01*
X72566666Y-136254819D02*
X72471428Y-136254819D01*
X72471428Y-136254819D02*
X72328571Y-136207200D01*
X72328571Y-136207200D02*
X72233333Y-136111961D01*
X72233333Y-136111961D02*
X72185714Y-136016723D01*
X72185714Y-136016723D02*
X72138095Y-135826247D01*
X72138095Y-135826247D02*
X72138095Y-135683390D01*
X72138095Y-135683390D02*
X72185714Y-135492914D01*
X72185714Y-135492914D02*
X72233333Y-135397676D01*
X72233333Y-135397676D02*
X72328571Y-135302438D01*
X72328571Y-135302438D02*
X72471428Y-135254819D01*
X72471428Y-135254819D02*
X72566666Y-135254819D01*
X72566666Y-135254819D02*
X72709523Y-135302438D01*
X72709523Y-135302438D02*
X72757142Y-135350057D01*
X73185714Y-136254819D02*
X73185714Y-135254819D01*
X73185714Y-135731009D02*
X73757142Y-135731009D01*
X73757142Y-136254819D02*
X73757142Y-135254819D01*
X74138095Y-135254819D02*
X74757142Y-135254819D01*
X74757142Y-135254819D02*
X74423809Y-135635771D01*
X74423809Y-135635771D02*
X74566666Y-135635771D01*
X74566666Y-135635771D02*
X74661904Y-135683390D01*
X74661904Y-135683390D02*
X74709523Y-135731009D01*
X74709523Y-135731009D02*
X74757142Y-135826247D01*
X74757142Y-135826247D02*
X74757142Y-136064342D01*
X74757142Y-136064342D02*
X74709523Y-136159580D01*
X74709523Y-136159580D02*
X74661904Y-136207200D01*
X74661904Y-136207200D02*
X74566666Y-136254819D01*
X74566666Y-136254819D02*
X74280952Y-136254819D01*
X74280952Y-136254819D02*
X74185714Y-136207200D01*
X74185714Y-136207200D02*
X74138095Y-136159580D01*
X75614285Y-135588152D02*
X75614285Y-136254819D01*
X75376190Y-135207200D02*
X75138095Y-135921485D01*
X75138095Y-135921485D02*
X75757142Y-135921485D01*
X76328571Y-135254819D02*
X76423809Y-135254819D01*
X76423809Y-135254819D02*
X76519047Y-135302438D01*
X76519047Y-135302438D02*
X76566666Y-135350057D01*
X76566666Y-135350057D02*
X76614285Y-135445295D01*
X76614285Y-135445295D02*
X76661904Y-135635771D01*
X76661904Y-135635771D02*
X76661904Y-135873866D01*
X76661904Y-135873866D02*
X76614285Y-136064342D01*
X76614285Y-136064342D02*
X76566666Y-136159580D01*
X76566666Y-136159580D02*
X76519047Y-136207200D01*
X76519047Y-136207200D02*
X76423809Y-136254819D01*
X76423809Y-136254819D02*
X76328571Y-136254819D01*
X76328571Y-136254819D02*
X76233333Y-136207200D01*
X76233333Y-136207200D02*
X76185714Y-136159580D01*
X76185714Y-136159580D02*
X76138095Y-136064342D01*
X76138095Y-136064342D02*
X76090476Y-135873866D01*
X76090476Y-135873866D02*
X76090476Y-135635771D01*
X76090476Y-135635771D02*
X76138095Y-135445295D01*
X76138095Y-135445295D02*
X76185714Y-135350057D01*
X76185714Y-135350057D02*
X76233333Y-135302438D01*
X76233333Y-135302438D02*
X76328571Y-135254819D01*
X77661904Y-136159580D02*
X77614285Y-136207200D01*
X77614285Y-136207200D02*
X77471428Y-136254819D01*
X77471428Y-136254819D02*
X77376190Y-136254819D01*
X77376190Y-136254819D02*
X77233333Y-136207200D01*
X77233333Y-136207200D02*
X77138095Y-136111961D01*
X77138095Y-136111961D02*
X77090476Y-136016723D01*
X77090476Y-136016723D02*
X77042857Y-135826247D01*
X77042857Y-135826247D02*
X77042857Y-135683390D01*
X77042857Y-135683390D02*
X77090476Y-135492914D01*
X77090476Y-135492914D02*
X77138095Y-135397676D01*
X77138095Y-135397676D02*
X77233333Y-135302438D01*
X77233333Y-135302438D02*
X77376190Y-135254819D01*
X77376190Y-135254819D02*
X77471428Y-135254819D01*
X77471428Y-135254819D02*
X77614285Y-135302438D01*
X77614285Y-135302438D02*
X77661904Y-135350057D01*
X95809523Y-134859580D02*
X95761904Y-134907200D01*
X95761904Y-134907200D02*
X95619047Y-134954819D01*
X95619047Y-134954819D02*
X95523809Y-134954819D01*
X95523809Y-134954819D02*
X95380952Y-134907200D01*
X95380952Y-134907200D02*
X95285714Y-134811961D01*
X95285714Y-134811961D02*
X95238095Y-134716723D01*
X95238095Y-134716723D02*
X95190476Y-134526247D01*
X95190476Y-134526247D02*
X95190476Y-134383390D01*
X95190476Y-134383390D02*
X95238095Y-134192914D01*
X95238095Y-134192914D02*
X95285714Y-134097676D01*
X95285714Y-134097676D02*
X95380952Y-134002438D01*
X95380952Y-134002438D02*
X95523809Y-133954819D01*
X95523809Y-133954819D02*
X95619047Y-133954819D01*
X95619047Y-133954819D02*
X95761904Y-134002438D01*
X95761904Y-134002438D02*
X95809523Y-134050057D01*
X96238095Y-134954819D02*
X96238095Y-133954819D01*
X96238095Y-133954819D02*
X96476190Y-133954819D01*
X96476190Y-133954819D02*
X96619047Y-134002438D01*
X96619047Y-134002438D02*
X96714285Y-134097676D01*
X96714285Y-134097676D02*
X96761904Y-134192914D01*
X96761904Y-134192914D02*
X96809523Y-134383390D01*
X96809523Y-134383390D02*
X96809523Y-134526247D01*
X96809523Y-134526247D02*
X96761904Y-134716723D01*
X96761904Y-134716723D02*
X96714285Y-134811961D01*
X96714285Y-134811961D02*
X96619047Y-134907200D01*
X96619047Y-134907200D02*
X96476190Y-134954819D01*
X96476190Y-134954819D02*
X96238095Y-134954819D01*
X97428571Y-133954819D02*
X97619047Y-133954819D01*
X97619047Y-133954819D02*
X97714285Y-134002438D01*
X97714285Y-134002438D02*
X97809523Y-134097676D01*
X97809523Y-134097676D02*
X97857142Y-134288152D01*
X97857142Y-134288152D02*
X97857142Y-134621485D01*
X97857142Y-134621485D02*
X97809523Y-134811961D01*
X97809523Y-134811961D02*
X97714285Y-134907200D01*
X97714285Y-134907200D02*
X97619047Y-134954819D01*
X97619047Y-134954819D02*
X97428571Y-134954819D01*
X97428571Y-134954819D02*
X97333333Y-134907200D01*
X97333333Y-134907200D02*
X97238095Y-134811961D01*
X97238095Y-134811961D02*
X97190476Y-134621485D01*
X97190476Y-134621485D02*
X97190476Y-134288152D01*
X97190476Y-134288152D02*
X97238095Y-134097676D01*
X97238095Y-134097676D02*
X97333333Y-134002438D01*
X97333333Y-134002438D02*
X97428571Y-133954819D01*
X98285714Y-134954819D02*
X98285714Y-133954819D01*
X98285714Y-133954819D02*
X98857142Y-134954819D01*
X98857142Y-134954819D02*
X98857142Y-133954819D01*
X99333333Y-134431009D02*
X99666666Y-134431009D01*
X99809523Y-134954819D02*
X99333333Y-134954819D01*
X99333333Y-134954819D02*
X99333333Y-133954819D01*
X99333333Y-133954819D02*
X99809523Y-133954819D01*
X81161905Y-138154819D02*
X81161905Y-137154819D01*
X81161905Y-137154819D02*
X81542857Y-137154819D01*
X81542857Y-137154819D02*
X81638095Y-137202438D01*
X81638095Y-137202438D02*
X81685714Y-137250057D01*
X81685714Y-137250057D02*
X81733333Y-137345295D01*
X81733333Y-137345295D02*
X81733333Y-137488152D01*
X81733333Y-137488152D02*
X81685714Y-137583390D01*
X81685714Y-137583390D02*
X81638095Y-137631009D01*
X81638095Y-137631009D02*
X81542857Y-137678628D01*
X81542857Y-137678628D02*
X81161905Y-137678628D01*
X82685714Y-138154819D02*
X82114286Y-138154819D01*
X82400000Y-138154819D02*
X82400000Y-137154819D01*
X82400000Y-137154819D02*
X82304762Y-137297676D01*
X82304762Y-137297676D02*
X82209524Y-137392914D01*
X82209524Y-137392914D02*
X82114286Y-137440533D01*
X55858333Y-117359580D02*
X55810714Y-117407200D01*
X55810714Y-117407200D02*
X55667857Y-117454819D01*
X55667857Y-117454819D02*
X55572619Y-117454819D01*
X55572619Y-117454819D02*
X55429762Y-117407200D01*
X55429762Y-117407200D02*
X55334524Y-117311961D01*
X55334524Y-117311961D02*
X55286905Y-117216723D01*
X55286905Y-117216723D02*
X55239286Y-117026247D01*
X55239286Y-117026247D02*
X55239286Y-116883390D01*
X55239286Y-116883390D02*
X55286905Y-116692914D01*
X55286905Y-116692914D02*
X55334524Y-116597676D01*
X55334524Y-116597676D02*
X55429762Y-116502438D01*
X55429762Y-116502438D02*
X55572619Y-116454819D01*
X55572619Y-116454819D02*
X55667857Y-116454819D01*
X55667857Y-116454819D02*
X55810714Y-116502438D01*
X55810714Y-116502438D02*
X55858333Y-116550057D01*
X56191667Y-116454819D02*
X56810714Y-116454819D01*
X56810714Y-116454819D02*
X56477381Y-116835771D01*
X56477381Y-116835771D02*
X56620238Y-116835771D01*
X56620238Y-116835771D02*
X56715476Y-116883390D01*
X56715476Y-116883390D02*
X56763095Y-116931009D01*
X56763095Y-116931009D02*
X56810714Y-117026247D01*
X56810714Y-117026247D02*
X56810714Y-117264342D01*
X56810714Y-117264342D02*
X56763095Y-117359580D01*
X56763095Y-117359580D02*
X56715476Y-117407200D01*
X56715476Y-117407200D02*
X56620238Y-117454819D01*
X56620238Y-117454819D02*
X56334524Y-117454819D01*
X56334524Y-117454819D02*
X56239286Y-117407200D01*
X56239286Y-117407200D02*
X56191667Y-117359580D01*
X76833333Y-115492319D02*
X76357143Y-115492319D01*
X76357143Y-115492319D02*
X76357143Y-114492319D01*
X77119048Y-114587557D02*
X77166667Y-114539938D01*
X77166667Y-114539938D02*
X77261905Y-114492319D01*
X77261905Y-114492319D02*
X77500000Y-114492319D01*
X77500000Y-114492319D02*
X77595238Y-114539938D01*
X77595238Y-114539938D02*
X77642857Y-114587557D01*
X77642857Y-114587557D02*
X77690476Y-114682795D01*
X77690476Y-114682795D02*
X77690476Y-114778033D01*
X77690476Y-114778033D02*
X77642857Y-114920890D01*
X77642857Y-114920890D02*
X77071429Y-115492319D01*
X77071429Y-115492319D02*
X77690476Y-115492319D01*
X81508333Y-135704819D02*
X81175000Y-135228628D01*
X80936905Y-135704819D02*
X80936905Y-134704819D01*
X80936905Y-134704819D02*
X81317857Y-134704819D01*
X81317857Y-134704819D02*
X81413095Y-134752438D01*
X81413095Y-134752438D02*
X81460714Y-134800057D01*
X81460714Y-134800057D02*
X81508333Y-134895295D01*
X81508333Y-134895295D02*
X81508333Y-135038152D01*
X81508333Y-135038152D02*
X81460714Y-135133390D01*
X81460714Y-135133390D02*
X81413095Y-135181009D01*
X81413095Y-135181009D02*
X81317857Y-135228628D01*
X81317857Y-135228628D02*
X80936905Y-135228628D01*
X81889286Y-134800057D02*
X81936905Y-134752438D01*
X81936905Y-134752438D02*
X82032143Y-134704819D01*
X82032143Y-134704819D02*
X82270238Y-134704819D01*
X82270238Y-134704819D02*
X82365476Y-134752438D01*
X82365476Y-134752438D02*
X82413095Y-134800057D01*
X82413095Y-134800057D02*
X82460714Y-134895295D01*
X82460714Y-134895295D02*
X82460714Y-134990533D01*
X82460714Y-134990533D02*
X82413095Y-135133390D01*
X82413095Y-135133390D02*
X81841667Y-135704819D01*
X81841667Y-135704819D02*
X82460714Y-135704819D01*
X116116532Y-130056434D02*
X116116532Y-130865957D01*
X116116532Y-130865957D02*
X116164151Y-130961195D01*
X116164151Y-130961195D02*
X116211770Y-131008815D01*
X116211770Y-131008815D02*
X116307008Y-131056434D01*
X116307008Y-131056434D02*
X116497484Y-131056434D01*
X116497484Y-131056434D02*
X116592722Y-131008815D01*
X116592722Y-131008815D02*
X116640341Y-130961195D01*
X116640341Y-130961195D02*
X116687960Y-130865957D01*
X116687960Y-130865957D02*
X116687960Y-130056434D01*
X117592722Y-130056434D02*
X117402246Y-130056434D01*
X117402246Y-130056434D02*
X117307008Y-130104053D01*
X117307008Y-130104053D02*
X117259389Y-130151672D01*
X117259389Y-130151672D02*
X117164151Y-130294529D01*
X117164151Y-130294529D02*
X117116532Y-130485005D01*
X117116532Y-130485005D02*
X117116532Y-130865957D01*
X117116532Y-130865957D02*
X117164151Y-130961195D01*
X117164151Y-130961195D02*
X117211770Y-131008815D01*
X117211770Y-131008815D02*
X117307008Y-131056434D01*
X117307008Y-131056434D02*
X117497484Y-131056434D01*
X117497484Y-131056434D02*
X117592722Y-131008815D01*
X117592722Y-131008815D02*
X117640341Y-130961195D01*
X117640341Y-130961195D02*
X117687960Y-130865957D01*
X117687960Y-130865957D02*
X117687960Y-130627862D01*
X117687960Y-130627862D02*
X117640341Y-130532624D01*
X117640341Y-130532624D02*
X117592722Y-130485005D01*
X117592722Y-130485005D02*
X117497484Y-130437386D01*
X117497484Y-130437386D02*
X117307008Y-130437386D01*
X117307008Y-130437386D02*
X117211770Y-130485005D01*
X117211770Y-130485005D02*
X117164151Y-130532624D01*
X117164151Y-130532624D02*
X117116532Y-130627862D01*
X117804762Y-143054819D02*
X117804762Y-142054819D01*
X118233333Y-143007200D02*
X118376190Y-143054819D01*
X118376190Y-143054819D02*
X118614285Y-143054819D01*
X118614285Y-143054819D02*
X118709523Y-143007200D01*
X118709523Y-143007200D02*
X118757142Y-142959580D01*
X118757142Y-142959580D02*
X118804761Y-142864342D01*
X118804761Y-142864342D02*
X118804761Y-142769104D01*
X118804761Y-142769104D02*
X118757142Y-142673866D01*
X118757142Y-142673866D02*
X118709523Y-142626247D01*
X118709523Y-142626247D02*
X118614285Y-142578628D01*
X118614285Y-142578628D02*
X118423809Y-142531009D01*
X118423809Y-142531009D02*
X118328571Y-142483390D01*
X118328571Y-142483390D02*
X118280952Y-142435771D01*
X118280952Y-142435771D02*
X118233333Y-142340533D01*
X118233333Y-142340533D02*
X118233333Y-142245295D01*
X118233333Y-142245295D02*
X118280952Y-142150057D01*
X118280952Y-142150057D02*
X118328571Y-142102438D01*
X118328571Y-142102438D02*
X118423809Y-142054819D01*
X118423809Y-142054819D02*
X118661904Y-142054819D01*
X118661904Y-142054819D02*
X118804761Y-142102438D01*
X119661904Y-142054819D02*
X119471428Y-142054819D01*
X119471428Y-142054819D02*
X119376190Y-142102438D01*
X119376190Y-142102438D02*
X119328571Y-142150057D01*
X119328571Y-142150057D02*
X119233333Y-142292914D01*
X119233333Y-142292914D02*
X119185714Y-142483390D01*
X119185714Y-142483390D02*
X119185714Y-142864342D01*
X119185714Y-142864342D02*
X119233333Y-142959580D01*
X119233333Y-142959580D02*
X119280952Y-143007200D01*
X119280952Y-143007200D02*
X119376190Y-143054819D01*
X119376190Y-143054819D02*
X119566666Y-143054819D01*
X119566666Y-143054819D02*
X119661904Y-143007200D01*
X119661904Y-143007200D02*
X119709523Y-142959580D01*
X119709523Y-142959580D02*
X119757142Y-142864342D01*
X119757142Y-142864342D02*
X119757142Y-142626247D01*
X119757142Y-142626247D02*
X119709523Y-142531009D01*
X119709523Y-142531009D02*
X119661904Y-142483390D01*
X119661904Y-142483390D02*
X119566666Y-142435771D01*
X119566666Y-142435771D02*
X119376190Y-142435771D01*
X119376190Y-142435771D02*
X119280952Y-142483390D01*
X119280952Y-142483390D02*
X119233333Y-142531009D01*
X119233333Y-142531009D02*
X119185714Y-142626247D01*
X120614285Y-142388152D02*
X120614285Y-143054819D01*
X120376190Y-142007200D02*
X120138095Y-142721485D01*
X120138095Y-142721485D02*
X120757142Y-142721485D01*
X121042857Y-142054819D02*
X121280952Y-143054819D01*
X121280952Y-143054819D02*
X121471428Y-142340533D01*
X121471428Y-142340533D02*
X121661904Y-143054819D01*
X121661904Y-143054819D02*
X121900000Y-142054819D01*
X122138095Y-142054819D02*
X122471428Y-143054819D01*
X122471428Y-143054819D02*
X122804761Y-142054819D01*
X123090476Y-142150057D02*
X123138095Y-142102438D01*
X123138095Y-142102438D02*
X123233333Y-142054819D01*
X123233333Y-142054819D02*
X123471428Y-142054819D01*
X123471428Y-142054819D02*
X123566666Y-142102438D01*
X123566666Y-142102438D02*
X123614285Y-142150057D01*
X123614285Y-142150057D02*
X123661904Y-142245295D01*
X123661904Y-142245295D02*
X123661904Y-142340533D01*
X123661904Y-142340533D02*
X123614285Y-142483390D01*
X123614285Y-142483390D02*
X123042857Y-143054819D01*
X123042857Y-143054819D02*
X123661904Y-143054819D01*
X124566666Y-142054819D02*
X124090476Y-142054819D01*
X124090476Y-142054819D02*
X124042857Y-142531009D01*
X124042857Y-142531009D02*
X124090476Y-142483390D01*
X124090476Y-142483390D02*
X124185714Y-142435771D01*
X124185714Y-142435771D02*
X124423809Y-142435771D01*
X124423809Y-142435771D02*
X124519047Y-142483390D01*
X124519047Y-142483390D02*
X124566666Y-142531009D01*
X124566666Y-142531009D02*
X124614285Y-142626247D01*
X124614285Y-142626247D02*
X124614285Y-142864342D01*
X124614285Y-142864342D02*
X124566666Y-142959580D01*
X124566666Y-142959580D02*
X124519047Y-143007200D01*
X124519047Y-143007200D02*
X124423809Y-143054819D01*
X124423809Y-143054819D02*
X124185714Y-143054819D01*
X124185714Y-143054819D02*
X124090476Y-143007200D01*
X124090476Y-143007200D02*
X124042857Y-142959580D01*
X125471428Y-142054819D02*
X125280952Y-142054819D01*
X125280952Y-142054819D02*
X125185714Y-142102438D01*
X125185714Y-142102438D02*
X125138095Y-142150057D01*
X125138095Y-142150057D02*
X125042857Y-142292914D01*
X125042857Y-142292914D02*
X124995238Y-142483390D01*
X124995238Y-142483390D02*
X124995238Y-142864342D01*
X124995238Y-142864342D02*
X125042857Y-142959580D01*
X125042857Y-142959580D02*
X125090476Y-143007200D01*
X125090476Y-143007200D02*
X125185714Y-143054819D01*
X125185714Y-143054819D02*
X125376190Y-143054819D01*
X125376190Y-143054819D02*
X125471428Y-143007200D01*
X125471428Y-143007200D02*
X125519047Y-142959580D01*
X125519047Y-142959580D02*
X125566666Y-142864342D01*
X125566666Y-142864342D02*
X125566666Y-142626247D01*
X125566666Y-142626247D02*
X125519047Y-142531009D01*
X125519047Y-142531009D02*
X125471428Y-142483390D01*
X125471428Y-142483390D02*
X125376190Y-142435771D01*
X125376190Y-142435771D02*
X125185714Y-142435771D01*
X125185714Y-142435771D02*
X125090476Y-142483390D01*
X125090476Y-142483390D02*
X125042857Y-142531009D01*
X125042857Y-142531009D02*
X124995238Y-142626247D01*
X126519047Y-143054819D02*
X125947619Y-143054819D01*
X126233333Y-143054819D02*
X126233333Y-142054819D01*
X126233333Y-142054819D02*
X126138095Y-142197676D01*
X126138095Y-142197676D02*
X126042857Y-142292914D01*
X126042857Y-142292914D02*
X125947619Y-142340533D01*
X127376190Y-142054819D02*
X127185714Y-142054819D01*
X127185714Y-142054819D02*
X127090476Y-142102438D01*
X127090476Y-142102438D02*
X127042857Y-142150057D01*
X127042857Y-142150057D02*
X126947619Y-142292914D01*
X126947619Y-142292914D02*
X126900000Y-142483390D01*
X126900000Y-142483390D02*
X126900000Y-142864342D01*
X126900000Y-142864342D02*
X126947619Y-142959580D01*
X126947619Y-142959580D02*
X126995238Y-143007200D01*
X126995238Y-143007200D02*
X127090476Y-143054819D01*
X127090476Y-143054819D02*
X127280952Y-143054819D01*
X127280952Y-143054819D02*
X127376190Y-143007200D01*
X127376190Y-143007200D02*
X127423809Y-142959580D01*
X127423809Y-142959580D02*
X127471428Y-142864342D01*
X127471428Y-142864342D02*
X127471428Y-142626247D01*
X127471428Y-142626247D02*
X127423809Y-142531009D01*
X127423809Y-142531009D02*
X127376190Y-142483390D01*
X127376190Y-142483390D02*
X127280952Y-142435771D01*
X127280952Y-142435771D02*
X127090476Y-142435771D01*
X127090476Y-142435771D02*
X126995238Y-142483390D01*
X126995238Y-142483390D02*
X126947619Y-142531009D01*
X126947619Y-142531009D02*
X126900000Y-142626247D01*
X127900000Y-142531009D02*
X128233333Y-142531009D01*
X128376190Y-143054819D02*
X127900000Y-143054819D01*
X127900000Y-143054819D02*
X127900000Y-142054819D01*
X127900000Y-142054819D02*
X128376190Y-142054819D01*
X129138095Y-142531009D02*
X128804762Y-142531009D01*
X128804762Y-143054819D02*
X128804762Y-142054819D01*
X128804762Y-142054819D02*
X129280952Y-142054819D01*
X129995238Y-142531009D02*
X130138095Y-142578628D01*
X130138095Y-142578628D02*
X130185714Y-142626247D01*
X130185714Y-142626247D02*
X130233333Y-142721485D01*
X130233333Y-142721485D02*
X130233333Y-142864342D01*
X130233333Y-142864342D02*
X130185714Y-142959580D01*
X130185714Y-142959580D02*
X130138095Y-143007200D01*
X130138095Y-143007200D02*
X130042857Y-143054819D01*
X130042857Y-143054819D02*
X129661905Y-143054819D01*
X129661905Y-143054819D02*
X129661905Y-142054819D01*
X129661905Y-142054819D02*
X129995238Y-142054819D01*
X129995238Y-142054819D02*
X130090476Y-142102438D01*
X130090476Y-142102438D02*
X130138095Y-142150057D01*
X130138095Y-142150057D02*
X130185714Y-142245295D01*
X130185714Y-142245295D02*
X130185714Y-142340533D01*
X130185714Y-142340533D02*
X130138095Y-142435771D01*
X130138095Y-142435771D02*
X130090476Y-142483390D01*
X130090476Y-142483390D02*
X129995238Y-142531009D01*
X129995238Y-142531009D02*
X129661905Y-142531009D01*
X131138095Y-143054819D02*
X130661905Y-143054819D01*
X130661905Y-143054819D02*
X130661905Y-142054819D01*
X131947619Y-143054819D02*
X131471429Y-143054819D01*
X131471429Y-143054819D02*
X131471429Y-142054819D01*
X132280953Y-142673866D02*
X133042858Y-142673866D01*
X134042857Y-143054819D02*
X133471429Y-143054819D01*
X133757143Y-143054819D02*
X133757143Y-142054819D01*
X133757143Y-142054819D02*
X133661905Y-142197676D01*
X133661905Y-142197676D02*
X133566667Y-142292914D01*
X133566667Y-142292914D02*
X133471429Y-142340533D01*
X134661905Y-142054819D02*
X134757143Y-142054819D01*
X134757143Y-142054819D02*
X134852381Y-142102438D01*
X134852381Y-142102438D02*
X134900000Y-142150057D01*
X134900000Y-142150057D02*
X134947619Y-142245295D01*
X134947619Y-142245295D02*
X134995238Y-142435771D01*
X134995238Y-142435771D02*
X134995238Y-142673866D01*
X134995238Y-142673866D02*
X134947619Y-142864342D01*
X134947619Y-142864342D02*
X134900000Y-142959580D01*
X134900000Y-142959580D02*
X134852381Y-143007200D01*
X134852381Y-143007200D02*
X134757143Y-143054819D01*
X134757143Y-143054819D02*
X134661905Y-143054819D01*
X134661905Y-143054819D02*
X134566667Y-143007200D01*
X134566667Y-143007200D02*
X134519048Y-142959580D01*
X134519048Y-142959580D02*
X134471429Y-142864342D01*
X134471429Y-142864342D02*
X134423810Y-142673866D01*
X134423810Y-142673866D02*
X134423810Y-142435771D01*
X134423810Y-142435771D02*
X134471429Y-142245295D01*
X134471429Y-142245295D02*
X134519048Y-142150057D01*
X134519048Y-142150057D02*
X134566667Y-142102438D01*
X134566667Y-142102438D02*
X134661905Y-142054819D01*
X135280953Y-142054819D02*
X135852381Y-142054819D01*
X135566667Y-143054819D02*
X135566667Y-142054819D01*
X136661905Y-143054819D02*
X136185715Y-143054819D01*
X136185715Y-143054819D02*
X136185715Y-142054819D01*
X136995239Y-143054819D02*
X136995239Y-142054819D01*
X68597783Y-121897080D02*
X68550164Y-121944700D01*
X68550164Y-121944700D02*
X68407307Y-121992319D01*
X68407307Y-121992319D02*
X68312069Y-121992319D01*
X68312069Y-121992319D02*
X68169212Y-121944700D01*
X68169212Y-121944700D02*
X68073974Y-121849461D01*
X68073974Y-121849461D02*
X68026355Y-121754223D01*
X68026355Y-121754223D02*
X67978736Y-121563747D01*
X67978736Y-121563747D02*
X67978736Y-121420890D01*
X67978736Y-121420890D02*
X68026355Y-121230414D01*
X68026355Y-121230414D02*
X68073974Y-121135176D01*
X68073974Y-121135176D02*
X68169212Y-121039938D01*
X68169212Y-121039938D02*
X68312069Y-120992319D01*
X68312069Y-120992319D02*
X68407307Y-120992319D01*
X68407307Y-120992319D02*
X68550164Y-121039938D01*
X68550164Y-121039938D02*
X68597783Y-121087557D01*
X69454926Y-120992319D02*
X69264450Y-120992319D01*
X69264450Y-120992319D02*
X69169212Y-121039938D01*
X69169212Y-121039938D02*
X69121593Y-121087557D01*
X69121593Y-121087557D02*
X69026355Y-121230414D01*
X69026355Y-121230414D02*
X68978736Y-121420890D01*
X68978736Y-121420890D02*
X68978736Y-121801842D01*
X68978736Y-121801842D02*
X69026355Y-121897080D01*
X69026355Y-121897080D02*
X69073974Y-121944700D01*
X69073974Y-121944700D02*
X69169212Y-121992319D01*
X69169212Y-121992319D02*
X69359688Y-121992319D01*
X69359688Y-121992319D02*
X69454926Y-121944700D01*
X69454926Y-121944700D02*
X69502545Y-121897080D01*
X69502545Y-121897080D02*
X69550164Y-121801842D01*
X69550164Y-121801842D02*
X69550164Y-121563747D01*
X69550164Y-121563747D02*
X69502545Y-121468509D01*
X69502545Y-121468509D02*
X69454926Y-121420890D01*
X69454926Y-121420890D02*
X69359688Y-121373271D01*
X69359688Y-121373271D02*
X69169212Y-121373271D01*
X69169212Y-121373271D02*
X69073974Y-121420890D01*
X69073974Y-121420890D02*
X69026355Y-121468509D01*
X69026355Y-121468509D02*
X68978736Y-121563747D01*
X64358333Y-115604819D02*
X63882143Y-115604819D01*
X63882143Y-115604819D02*
X63882143Y-114604819D01*
X65215476Y-115604819D02*
X64644048Y-115604819D01*
X64929762Y-115604819D02*
X64929762Y-114604819D01*
X64929762Y-114604819D02*
X64834524Y-114747676D01*
X64834524Y-114747676D02*
X64739286Y-114842914D01*
X64739286Y-114842914D02*
X64644048Y-114890533D01*
X120825143Y-122876934D02*
X121396571Y-122876934D01*
X121110857Y-123876934D02*
X121110857Y-122876934D01*
X121682286Y-123829315D02*
X121825143Y-123876934D01*
X121825143Y-123876934D02*
X122063238Y-123876934D01*
X122063238Y-123876934D02*
X122158476Y-123829315D01*
X122158476Y-123829315D02*
X122206095Y-123781695D01*
X122206095Y-123781695D02*
X122253714Y-123686457D01*
X122253714Y-123686457D02*
X122253714Y-123591219D01*
X122253714Y-123591219D02*
X122206095Y-123495981D01*
X122206095Y-123495981D02*
X122158476Y-123448362D01*
X122158476Y-123448362D02*
X122063238Y-123400743D01*
X122063238Y-123400743D02*
X121872762Y-123353124D01*
X121872762Y-123353124D02*
X121777524Y-123305505D01*
X121777524Y-123305505D02*
X121729905Y-123257886D01*
X121729905Y-123257886D02*
X121682286Y-123162648D01*
X121682286Y-123162648D02*
X121682286Y-123067410D01*
X121682286Y-123067410D02*
X121729905Y-122972172D01*
X121729905Y-122972172D02*
X121777524Y-122924553D01*
X121777524Y-122924553D02*
X121872762Y-122876934D01*
X121872762Y-122876934D02*
X122110857Y-122876934D01*
X122110857Y-122876934D02*
X122253714Y-122924553D01*
X122539429Y-122876934D02*
X123110857Y-122876934D01*
X122825143Y-123876934D02*
X122825143Y-122876934D01*
X123444191Y-123495981D02*
X124206096Y-123495981D01*
X124682286Y-123353124D02*
X125015619Y-123353124D01*
X125158476Y-123876934D02*
X124682286Y-123876934D01*
X124682286Y-123876934D02*
X124682286Y-122876934D01*
X124682286Y-122876934D02*
X125158476Y-122876934D01*
X125539429Y-123829315D02*
X125682286Y-123876934D01*
X125682286Y-123876934D02*
X125920381Y-123876934D01*
X125920381Y-123876934D02*
X126015619Y-123829315D01*
X126015619Y-123829315D02*
X126063238Y-123781695D01*
X126063238Y-123781695D02*
X126110857Y-123686457D01*
X126110857Y-123686457D02*
X126110857Y-123591219D01*
X126110857Y-123591219D02*
X126063238Y-123495981D01*
X126063238Y-123495981D02*
X126015619Y-123448362D01*
X126015619Y-123448362D02*
X125920381Y-123400743D01*
X125920381Y-123400743D02*
X125729905Y-123353124D01*
X125729905Y-123353124D02*
X125634667Y-123305505D01*
X125634667Y-123305505D02*
X125587048Y-123257886D01*
X125587048Y-123257886D02*
X125539429Y-123162648D01*
X125539429Y-123162648D02*
X125539429Y-123067410D01*
X125539429Y-123067410D02*
X125587048Y-122972172D01*
X125587048Y-122972172D02*
X125634667Y-122924553D01*
X125634667Y-122924553D02*
X125729905Y-122876934D01*
X125729905Y-122876934D02*
X125968000Y-122876934D01*
X125968000Y-122876934D02*
X126110857Y-122924553D01*
X126539429Y-123876934D02*
X126539429Y-122876934D01*
X126539429Y-122876934D02*
X126920381Y-122876934D01*
X126920381Y-122876934D02*
X127015619Y-122924553D01*
X127015619Y-122924553D02*
X127063238Y-122972172D01*
X127063238Y-122972172D02*
X127110857Y-123067410D01*
X127110857Y-123067410D02*
X127110857Y-123210267D01*
X127110857Y-123210267D02*
X127063238Y-123305505D01*
X127063238Y-123305505D02*
X127015619Y-123353124D01*
X127015619Y-123353124D02*
X126920381Y-123400743D01*
X126920381Y-123400743D02*
X126539429Y-123400743D01*
X127444191Y-122876934D02*
X128063238Y-122876934D01*
X128063238Y-122876934D02*
X127729905Y-123257886D01*
X127729905Y-123257886D02*
X127872762Y-123257886D01*
X127872762Y-123257886D02*
X127968000Y-123305505D01*
X127968000Y-123305505D02*
X128015619Y-123353124D01*
X128015619Y-123353124D02*
X128063238Y-123448362D01*
X128063238Y-123448362D02*
X128063238Y-123686457D01*
X128063238Y-123686457D02*
X128015619Y-123781695D01*
X128015619Y-123781695D02*
X127968000Y-123829315D01*
X127968000Y-123829315D02*
X127872762Y-123876934D01*
X127872762Y-123876934D02*
X127587048Y-123876934D01*
X127587048Y-123876934D02*
X127491810Y-123829315D01*
X127491810Y-123829315D02*
X127444191Y-123781695D01*
X128444191Y-122972172D02*
X128491810Y-122924553D01*
X128491810Y-122924553D02*
X128587048Y-122876934D01*
X128587048Y-122876934D02*
X128825143Y-122876934D01*
X128825143Y-122876934D02*
X128920381Y-122924553D01*
X128920381Y-122924553D02*
X128968000Y-122972172D01*
X128968000Y-122972172D02*
X129015619Y-123067410D01*
X129015619Y-123067410D02*
X129015619Y-123162648D01*
X129015619Y-123162648D02*
X128968000Y-123305505D01*
X128968000Y-123305505D02*
X128396572Y-123876934D01*
X128396572Y-123876934D02*
X129015619Y-123876934D01*
X162679142Y-119072819D02*
X162345809Y-118596628D01*
X162107714Y-119072819D02*
X162107714Y-118072819D01*
X162107714Y-118072819D02*
X162488666Y-118072819D01*
X162488666Y-118072819D02*
X162583904Y-118120438D01*
X162583904Y-118120438D02*
X162631523Y-118168057D01*
X162631523Y-118168057D02*
X162679142Y-118263295D01*
X162679142Y-118263295D02*
X162679142Y-118406152D01*
X162679142Y-118406152D02*
X162631523Y-118501390D01*
X162631523Y-118501390D02*
X162583904Y-118549009D01*
X162583904Y-118549009D02*
X162488666Y-118596628D01*
X162488666Y-118596628D02*
X162107714Y-118596628D01*
X163631523Y-119072819D02*
X163060095Y-119072819D01*
X163345809Y-119072819D02*
X163345809Y-118072819D01*
X163345809Y-118072819D02*
X163250571Y-118215676D01*
X163250571Y-118215676D02*
X163155333Y-118310914D01*
X163155333Y-118310914D02*
X163060095Y-118358533D01*
X164488666Y-118406152D02*
X164488666Y-119072819D01*
X164250571Y-118025200D02*
X164012476Y-118739485D01*
X164012476Y-118739485D02*
X164631523Y-118739485D01*
X86378142Y-105328580D02*
X86330523Y-105376200D01*
X86330523Y-105376200D02*
X86187666Y-105423819D01*
X86187666Y-105423819D02*
X86092428Y-105423819D01*
X86092428Y-105423819D02*
X85949571Y-105376200D01*
X85949571Y-105376200D02*
X85854333Y-105280961D01*
X85854333Y-105280961D02*
X85806714Y-105185723D01*
X85806714Y-105185723D02*
X85759095Y-104995247D01*
X85759095Y-104995247D02*
X85759095Y-104852390D01*
X85759095Y-104852390D02*
X85806714Y-104661914D01*
X85806714Y-104661914D02*
X85854333Y-104566676D01*
X85854333Y-104566676D02*
X85949571Y-104471438D01*
X85949571Y-104471438D02*
X86092428Y-104423819D01*
X86092428Y-104423819D02*
X86187666Y-104423819D01*
X86187666Y-104423819D02*
X86330523Y-104471438D01*
X86330523Y-104471438D02*
X86378142Y-104519057D01*
X87330523Y-105423819D02*
X86759095Y-105423819D01*
X87044809Y-105423819D02*
X87044809Y-104423819D01*
X87044809Y-104423819D02*
X86949571Y-104566676D01*
X86949571Y-104566676D02*
X86854333Y-104661914D01*
X86854333Y-104661914D02*
X86759095Y-104709533D01*
X87711476Y-104519057D02*
X87759095Y-104471438D01*
X87759095Y-104471438D02*
X87854333Y-104423819D01*
X87854333Y-104423819D02*
X88092428Y-104423819D01*
X88092428Y-104423819D02*
X88187666Y-104471438D01*
X88187666Y-104471438D02*
X88235285Y-104519057D01*
X88235285Y-104519057D02*
X88282904Y-104614295D01*
X88282904Y-104614295D02*
X88282904Y-104709533D01*
X88282904Y-104709533D02*
X88235285Y-104852390D01*
X88235285Y-104852390D02*
X87663857Y-105423819D01*
X87663857Y-105423819D02*
X88282904Y-105423819D01*
X134333333Y-120454819D02*
X134000000Y-119978628D01*
X133761905Y-120454819D02*
X133761905Y-119454819D01*
X133761905Y-119454819D02*
X134142857Y-119454819D01*
X134142857Y-119454819D02*
X134238095Y-119502438D01*
X134238095Y-119502438D02*
X134285714Y-119550057D01*
X134285714Y-119550057D02*
X134333333Y-119645295D01*
X134333333Y-119645295D02*
X134333333Y-119788152D01*
X134333333Y-119788152D02*
X134285714Y-119883390D01*
X134285714Y-119883390D02*
X134238095Y-119931009D01*
X134238095Y-119931009D02*
X134142857Y-119978628D01*
X134142857Y-119978628D02*
X133761905Y-119978628D01*
X134904762Y-119883390D02*
X134809524Y-119835771D01*
X134809524Y-119835771D02*
X134761905Y-119788152D01*
X134761905Y-119788152D02*
X134714286Y-119692914D01*
X134714286Y-119692914D02*
X134714286Y-119645295D01*
X134714286Y-119645295D02*
X134761905Y-119550057D01*
X134761905Y-119550057D02*
X134809524Y-119502438D01*
X134809524Y-119502438D02*
X134904762Y-119454819D01*
X134904762Y-119454819D02*
X135095238Y-119454819D01*
X135095238Y-119454819D02*
X135190476Y-119502438D01*
X135190476Y-119502438D02*
X135238095Y-119550057D01*
X135238095Y-119550057D02*
X135285714Y-119645295D01*
X135285714Y-119645295D02*
X135285714Y-119692914D01*
X135285714Y-119692914D02*
X135238095Y-119788152D01*
X135238095Y-119788152D02*
X135190476Y-119835771D01*
X135190476Y-119835771D02*
X135095238Y-119883390D01*
X135095238Y-119883390D02*
X134904762Y-119883390D01*
X134904762Y-119883390D02*
X134809524Y-119931009D01*
X134809524Y-119931009D02*
X134761905Y-119978628D01*
X134761905Y-119978628D02*
X134714286Y-120073866D01*
X134714286Y-120073866D02*
X134714286Y-120264342D01*
X134714286Y-120264342D02*
X134761905Y-120359580D01*
X134761905Y-120359580D02*
X134809524Y-120407200D01*
X134809524Y-120407200D02*
X134904762Y-120454819D01*
X134904762Y-120454819D02*
X135095238Y-120454819D01*
X135095238Y-120454819D02*
X135190476Y-120407200D01*
X135190476Y-120407200D02*
X135238095Y-120359580D01*
X135238095Y-120359580D02*
X135285714Y-120264342D01*
X135285714Y-120264342D02*
X135285714Y-120073866D01*
X135285714Y-120073866D02*
X135238095Y-119978628D01*
X135238095Y-119978628D02*
X135190476Y-119931009D01*
X135190476Y-119931009D02*
X135095238Y-119883390D01*
X48054819Y-122709523D02*
X48054819Y-123185713D01*
X48054819Y-123185713D02*
X48531009Y-123233332D01*
X48531009Y-123233332D02*
X48483390Y-123185713D01*
X48483390Y-123185713D02*
X48435771Y-123090475D01*
X48435771Y-123090475D02*
X48435771Y-122852380D01*
X48435771Y-122852380D02*
X48483390Y-122757142D01*
X48483390Y-122757142D02*
X48531009Y-122709523D01*
X48531009Y-122709523D02*
X48626247Y-122661904D01*
X48626247Y-122661904D02*
X48864342Y-122661904D01*
X48864342Y-122661904D02*
X48959580Y-122709523D01*
X48959580Y-122709523D02*
X49007200Y-122757142D01*
X49007200Y-122757142D02*
X49054819Y-122852380D01*
X49054819Y-122852380D02*
X49054819Y-123090475D01*
X49054819Y-123090475D02*
X49007200Y-123185713D01*
X49007200Y-123185713D02*
X48959580Y-123233332D01*
X48054819Y-122042856D02*
X48054819Y-121947618D01*
X48054819Y-121947618D02*
X48102438Y-121852380D01*
X48102438Y-121852380D02*
X48150057Y-121804761D01*
X48150057Y-121804761D02*
X48245295Y-121757142D01*
X48245295Y-121757142D02*
X48435771Y-121709523D01*
X48435771Y-121709523D02*
X48673866Y-121709523D01*
X48673866Y-121709523D02*
X48864342Y-121757142D01*
X48864342Y-121757142D02*
X48959580Y-121804761D01*
X48959580Y-121804761D02*
X49007200Y-121852380D01*
X49007200Y-121852380D02*
X49054819Y-121947618D01*
X49054819Y-121947618D02*
X49054819Y-122042856D01*
X49054819Y-122042856D02*
X49007200Y-122138094D01*
X49007200Y-122138094D02*
X48959580Y-122185713D01*
X48959580Y-122185713D02*
X48864342Y-122233332D01*
X48864342Y-122233332D02*
X48673866Y-122280951D01*
X48673866Y-122280951D02*
X48435771Y-122280951D01*
X48435771Y-122280951D02*
X48245295Y-122233332D01*
X48245295Y-122233332D02*
X48150057Y-122185713D01*
X48150057Y-122185713D02*
X48102438Y-122138094D01*
X48102438Y-122138094D02*
X48054819Y-122042856D01*
X48054819Y-121090475D02*
X48054819Y-120995237D01*
X48054819Y-120995237D02*
X48102438Y-120899999D01*
X48102438Y-120899999D02*
X48150057Y-120852380D01*
X48150057Y-120852380D02*
X48245295Y-120804761D01*
X48245295Y-120804761D02*
X48435771Y-120757142D01*
X48435771Y-120757142D02*
X48673866Y-120757142D01*
X48673866Y-120757142D02*
X48864342Y-120804761D01*
X48864342Y-120804761D02*
X48959580Y-120852380D01*
X48959580Y-120852380D02*
X49007200Y-120899999D01*
X49007200Y-120899999D02*
X49054819Y-120995237D01*
X49054819Y-120995237D02*
X49054819Y-121090475D01*
X49054819Y-121090475D02*
X49007200Y-121185713D01*
X49007200Y-121185713D02*
X48959580Y-121233332D01*
X48959580Y-121233332D02*
X48864342Y-121280951D01*
X48864342Y-121280951D02*
X48673866Y-121328570D01*
X48673866Y-121328570D02*
X48435771Y-121328570D01*
X48435771Y-121328570D02*
X48245295Y-121280951D01*
X48245295Y-121280951D02*
X48150057Y-121233332D01*
X48150057Y-121233332D02*
X48102438Y-121185713D01*
X48102438Y-121185713D02*
X48054819Y-121090475D01*
X49054819Y-120328570D02*
X48388152Y-120328570D01*
X48483390Y-120328570D02*
X48435771Y-120280951D01*
X48435771Y-120280951D02*
X48388152Y-120185713D01*
X48388152Y-120185713D02*
X48388152Y-120042856D01*
X48388152Y-120042856D02*
X48435771Y-119947618D01*
X48435771Y-119947618D02*
X48531009Y-119899999D01*
X48531009Y-119899999D02*
X49054819Y-119899999D01*
X48531009Y-119899999D02*
X48435771Y-119852380D01*
X48435771Y-119852380D02*
X48388152Y-119757142D01*
X48388152Y-119757142D02*
X48388152Y-119614285D01*
X48388152Y-119614285D02*
X48435771Y-119519046D01*
X48435771Y-119519046D02*
X48531009Y-119471427D01*
X48531009Y-119471427D02*
X49054819Y-119471427D01*
X48769104Y-119042856D02*
X48769104Y-118566666D01*
X49054819Y-119138094D02*
X48054819Y-118804761D01*
X48054819Y-118804761D02*
X49054819Y-118471428D01*
X156954819Y-116261904D02*
X157764342Y-116261904D01*
X157764342Y-116261904D02*
X157859580Y-116214285D01*
X157859580Y-116214285D02*
X157907200Y-116166666D01*
X157907200Y-116166666D02*
X157954819Y-116071428D01*
X157954819Y-116071428D02*
X157954819Y-115880952D01*
X157954819Y-115880952D02*
X157907200Y-115785714D01*
X157907200Y-115785714D02*
X157859580Y-115738095D01*
X157859580Y-115738095D02*
X157764342Y-115690476D01*
X157764342Y-115690476D02*
X156954819Y-115690476D01*
X157383390Y-115071428D02*
X157335771Y-115166666D01*
X157335771Y-115166666D02*
X157288152Y-115214285D01*
X157288152Y-115214285D02*
X157192914Y-115261904D01*
X157192914Y-115261904D02*
X157145295Y-115261904D01*
X157145295Y-115261904D02*
X157050057Y-115214285D01*
X157050057Y-115214285D02*
X157002438Y-115166666D01*
X157002438Y-115166666D02*
X156954819Y-115071428D01*
X156954819Y-115071428D02*
X156954819Y-114880952D01*
X156954819Y-114880952D02*
X157002438Y-114785714D01*
X157002438Y-114785714D02*
X157050057Y-114738095D01*
X157050057Y-114738095D02*
X157145295Y-114690476D01*
X157145295Y-114690476D02*
X157192914Y-114690476D01*
X157192914Y-114690476D02*
X157288152Y-114738095D01*
X157288152Y-114738095D02*
X157335771Y-114785714D01*
X157335771Y-114785714D02*
X157383390Y-114880952D01*
X157383390Y-114880952D02*
X157383390Y-115071428D01*
X157383390Y-115071428D02*
X157431009Y-115166666D01*
X157431009Y-115166666D02*
X157478628Y-115214285D01*
X157478628Y-115214285D02*
X157573866Y-115261904D01*
X157573866Y-115261904D02*
X157764342Y-115261904D01*
X157764342Y-115261904D02*
X157859580Y-115214285D01*
X157859580Y-115214285D02*
X157907200Y-115166666D01*
X157907200Y-115166666D02*
X157954819Y-115071428D01*
X157954819Y-115071428D02*
X157954819Y-114880952D01*
X157954819Y-114880952D02*
X157907200Y-114785714D01*
X157907200Y-114785714D02*
X157859580Y-114738095D01*
X157859580Y-114738095D02*
X157764342Y-114690476D01*
X157764342Y-114690476D02*
X157573866Y-114690476D01*
X157573866Y-114690476D02*
X157478628Y-114738095D01*
X157478628Y-114738095D02*
X157431009Y-114785714D01*
X157431009Y-114785714D02*
X157383390Y-114880952D01*
X145554819Y-120714285D02*
X144554819Y-120714285D01*
X144554819Y-120714285D02*
X144554819Y-120476190D01*
X144554819Y-120476190D02*
X144602438Y-120333333D01*
X144602438Y-120333333D02*
X144697676Y-120238095D01*
X144697676Y-120238095D02*
X144792914Y-120190476D01*
X144792914Y-120190476D02*
X144983390Y-120142857D01*
X144983390Y-120142857D02*
X145126247Y-120142857D01*
X145126247Y-120142857D02*
X145316723Y-120190476D01*
X145316723Y-120190476D02*
X145411961Y-120238095D01*
X145411961Y-120238095D02*
X145507200Y-120333333D01*
X145507200Y-120333333D02*
X145554819Y-120476190D01*
X145554819Y-120476190D02*
X145554819Y-120714285D01*
X145507200Y-119761904D02*
X145554819Y-119619047D01*
X145554819Y-119619047D02*
X145554819Y-119380952D01*
X145554819Y-119380952D02*
X145507200Y-119285714D01*
X145507200Y-119285714D02*
X145459580Y-119238095D01*
X145459580Y-119238095D02*
X145364342Y-119190476D01*
X145364342Y-119190476D02*
X145269104Y-119190476D01*
X145269104Y-119190476D02*
X145173866Y-119238095D01*
X145173866Y-119238095D02*
X145126247Y-119285714D01*
X145126247Y-119285714D02*
X145078628Y-119380952D01*
X145078628Y-119380952D02*
X145031009Y-119571428D01*
X145031009Y-119571428D02*
X144983390Y-119666666D01*
X144983390Y-119666666D02*
X144935771Y-119714285D01*
X144935771Y-119714285D02*
X144840533Y-119761904D01*
X144840533Y-119761904D02*
X144745295Y-119761904D01*
X144745295Y-119761904D02*
X144650057Y-119714285D01*
X144650057Y-119714285D02*
X144602438Y-119666666D01*
X144602438Y-119666666D02*
X144554819Y-119571428D01*
X144554819Y-119571428D02*
X144554819Y-119333333D01*
X144554819Y-119333333D02*
X144602438Y-119190476D01*
X144554819Y-118857142D02*
X144554819Y-118238095D01*
X144554819Y-118238095D02*
X144935771Y-118571428D01*
X144935771Y-118571428D02*
X144935771Y-118428571D01*
X144935771Y-118428571D02*
X144983390Y-118333333D01*
X144983390Y-118333333D02*
X145031009Y-118285714D01*
X145031009Y-118285714D02*
X145126247Y-118238095D01*
X145126247Y-118238095D02*
X145364342Y-118238095D01*
X145364342Y-118238095D02*
X145459580Y-118285714D01*
X145459580Y-118285714D02*
X145507200Y-118333333D01*
X145507200Y-118333333D02*
X145554819Y-118428571D01*
X145554819Y-118428571D02*
X145554819Y-118714285D01*
X145554819Y-118714285D02*
X145507200Y-118809523D01*
X145507200Y-118809523D02*
X145459580Y-118857142D01*
X144650057Y-117857142D02*
X144602438Y-117809523D01*
X144602438Y-117809523D02*
X144554819Y-117714285D01*
X144554819Y-117714285D02*
X144554819Y-117476190D01*
X144554819Y-117476190D02*
X144602438Y-117380952D01*
X144602438Y-117380952D02*
X144650057Y-117333333D01*
X144650057Y-117333333D02*
X144745295Y-117285714D01*
X144745295Y-117285714D02*
X144840533Y-117285714D01*
X144840533Y-117285714D02*
X144983390Y-117333333D01*
X144983390Y-117333333D02*
X145554819Y-117904761D01*
X145554819Y-117904761D02*
X145554819Y-117285714D01*
X144554819Y-116952380D02*
X144554819Y-116333333D01*
X144554819Y-116333333D02*
X144935771Y-116666666D01*
X144935771Y-116666666D02*
X144935771Y-116523809D01*
X144935771Y-116523809D02*
X144983390Y-116428571D01*
X144983390Y-116428571D02*
X145031009Y-116380952D01*
X145031009Y-116380952D02*
X145126247Y-116333333D01*
X145126247Y-116333333D02*
X145364342Y-116333333D01*
X145364342Y-116333333D02*
X145459580Y-116380952D01*
X145459580Y-116380952D02*
X145507200Y-116428571D01*
X145507200Y-116428571D02*
X145554819Y-116523809D01*
X145554819Y-116523809D02*
X145554819Y-116809523D01*
X145554819Y-116809523D02*
X145507200Y-116904761D01*
X145507200Y-116904761D02*
X145459580Y-116952380D01*
X145554819Y-115380952D02*
X145554819Y-115952380D01*
X145554819Y-115666666D02*
X144554819Y-115666666D01*
X144554819Y-115666666D02*
X144697676Y-115761904D01*
X144697676Y-115761904D02*
X144792914Y-115857142D01*
X144792914Y-115857142D02*
X144840533Y-115952380D01*
X145554819Y-114952380D02*
X144554819Y-114952380D01*
X144554819Y-114952380D02*
X145269104Y-114619047D01*
X145269104Y-114619047D02*
X144554819Y-114285714D01*
X144554819Y-114285714D02*
X145554819Y-114285714D01*
X123835294Y-112133124D02*
X123978151Y-112180743D01*
X123978151Y-112180743D02*
X124025770Y-112228362D01*
X124025770Y-112228362D02*
X124073389Y-112323600D01*
X124073389Y-112323600D02*
X124073389Y-112466457D01*
X124073389Y-112466457D02*
X124025770Y-112561695D01*
X124025770Y-112561695D02*
X123978151Y-112609315D01*
X123978151Y-112609315D02*
X123882913Y-112656934D01*
X123882913Y-112656934D02*
X123501961Y-112656934D01*
X123501961Y-112656934D02*
X123501961Y-111656934D01*
X123501961Y-111656934D02*
X123835294Y-111656934D01*
X123835294Y-111656934D02*
X123930532Y-111704553D01*
X123930532Y-111704553D02*
X123978151Y-111752172D01*
X123978151Y-111752172D02*
X124025770Y-111847410D01*
X124025770Y-111847410D02*
X124025770Y-111942648D01*
X124025770Y-111942648D02*
X123978151Y-112037886D01*
X123978151Y-112037886D02*
X123930532Y-112085505D01*
X123930532Y-112085505D02*
X123835294Y-112133124D01*
X123835294Y-112133124D02*
X123501961Y-112133124D01*
X124692437Y-111656934D02*
X124882913Y-111656934D01*
X124882913Y-111656934D02*
X124978151Y-111704553D01*
X124978151Y-111704553D02*
X125073389Y-111799791D01*
X125073389Y-111799791D02*
X125121008Y-111990267D01*
X125121008Y-111990267D02*
X125121008Y-112323600D01*
X125121008Y-112323600D02*
X125073389Y-112514076D01*
X125073389Y-112514076D02*
X124978151Y-112609315D01*
X124978151Y-112609315D02*
X124882913Y-112656934D01*
X124882913Y-112656934D02*
X124692437Y-112656934D01*
X124692437Y-112656934D02*
X124597199Y-112609315D01*
X124597199Y-112609315D02*
X124501961Y-112514076D01*
X124501961Y-112514076D02*
X124454342Y-112323600D01*
X124454342Y-112323600D02*
X124454342Y-111990267D01*
X124454342Y-111990267D02*
X124501961Y-111799791D01*
X124501961Y-111799791D02*
X124597199Y-111704553D01*
X124597199Y-111704553D02*
X124692437Y-111656934D01*
X125740056Y-111656934D02*
X125930532Y-111656934D01*
X125930532Y-111656934D02*
X126025770Y-111704553D01*
X126025770Y-111704553D02*
X126121008Y-111799791D01*
X126121008Y-111799791D02*
X126168627Y-111990267D01*
X126168627Y-111990267D02*
X126168627Y-112323600D01*
X126168627Y-112323600D02*
X126121008Y-112514076D01*
X126121008Y-112514076D02*
X126025770Y-112609315D01*
X126025770Y-112609315D02*
X125930532Y-112656934D01*
X125930532Y-112656934D02*
X125740056Y-112656934D01*
X125740056Y-112656934D02*
X125644818Y-112609315D01*
X125644818Y-112609315D02*
X125549580Y-112514076D01*
X125549580Y-112514076D02*
X125501961Y-112323600D01*
X125501961Y-112323600D02*
X125501961Y-111990267D01*
X125501961Y-111990267D02*
X125549580Y-111799791D01*
X125549580Y-111799791D02*
X125644818Y-111704553D01*
X125644818Y-111704553D02*
X125740056Y-111656934D01*
X126454342Y-111656934D02*
X127025770Y-111656934D01*
X126740056Y-112656934D02*
X126740056Y-111656934D01*
X175013580Y-112932357D02*
X175061200Y-112979976D01*
X175061200Y-112979976D02*
X175108819Y-113122833D01*
X175108819Y-113122833D02*
X175108819Y-113218071D01*
X175108819Y-113218071D02*
X175061200Y-113360928D01*
X175061200Y-113360928D02*
X174965961Y-113456166D01*
X174965961Y-113456166D02*
X174870723Y-113503785D01*
X174870723Y-113503785D02*
X174680247Y-113551404D01*
X174680247Y-113551404D02*
X174537390Y-113551404D01*
X174537390Y-113551404D02*
X174346914Y-113503785D01*
X174346914Y-113503785D02*
X174251676Y-113456166D01*
X174251676Y-113456166D02*
X174156438Y-113360928D01*
X174156438Y-113360928D02*
X174108819Y-113218071D01*
X174108819Y-113218071D02*
X174108819Y-113122833D01*
X174108819Y-113122833D02*
X174156438Y-112979976D01*
X174156438Y-112979976D02*
X174204057Y-112932357D01*
X174108819Y-112599023D02*
X174108819Y-111979976D01*
X174108819Y-111979976D02*
X174489771Y-112313309D01*
X174489771Y-112313309D02*
X174489771Y-112170452D01*
X174489771Y-112170452D02*
X174537390Y-112075214D01*
X174537390Y-112075214D02*
X174585009Y-112027595D01*
X174585009Y-112027595D02*
X174680247Y-111979976D01*
X174680247Y-111979976D02*
X174918342Y-111979976D01*
X174918342Y-111979976D02*
X175013580Y-112027595D01*
X175013580Y-112027595D02*
X175061200Y-112075214D01*
X175061200Y-112075214D02*
X175108819Y-112170452D01*
X175108819Y-112170452D02*
X175108819Y-112456166D01*
X175108819Y-112456166D02*
X175061200Y-112551404D01*
X175061200Y-112551404D02*
X175013580Y-112599023D01*
X174108819Y-111122833D02*
X174108819Y-111313309D01*
X174108819Y-111313309D02*
X174156438Y-111408547D01*
X174156438Y-111408547D02*
X174204057Y-111456166D01*
X174204057Y-111456166D02*
X174346914Y-111551404D01*
X174346914Y-111551404D02*
X174537390Y-111599023D01*
X174537390Y-111599023D02*
X174918342Y-111599023D01*
X174918342Y-111599023D02*
X175013580Y-111551404D01*
X175013580Y-111551404D02*
X175061200Y-111503785D01*
X175061200Y-111503785D02*
X175108819Y-111408547D01*
X175108819Y-111408547D02*
X175108819Y-111218071D01*
X175108819Y-111218071D02*
X175061200Y-111122833D01*
X175061200Y-111122833D02*
X175013580Y-111075214D01*
X175013580Y-111075214D02*
X174918342Y-111027595D01*
X174918342Y-111027595D02*
X174680247Y-111027595D01*
X174680247Y-111027595D02*
X174585009Y-111075214D01*
X174585009Y-111075214D02*
X174537390Y-111122833D01*
X174537390Y-111122833D02*
X174489771Y-111218071D01*
X174489771Y-111218071D02*
X174489771Y-111408547D01*
X174489771Y-111408547D02*
X174537390Y-111503785D01*
X174537390Y-111503785D02*
X174585009Y-111551404D01*
X174585009Y-111551404D02*
X174680247Y-111599023D01*
X68308333Y-115897080D02*
X68260714Y-115944700D01*
X68260714Y-115944700D02*
X68117857Y-115992319D01*
X68117857Y-115992319D02*
X68022619Y-115992319D01*
X68022619Y-115992319D02*
X67879762Y-115944700D01*
X67879762Y-115944700D02*
X67784524Y-115849461D01*
X67784524Y-115849461D02*
X67736905Y-115754223D01*
X67736905Y-115754223D02*
X67689286Y-115563747D01*
X67689286Y-115563747D02*
X67689286Y-115420890D01*
X67689286Y-115420890D02*
X67736905Y-115230414D01*
X67736905Y-115230414D02*
X67784524Y-115135176D01*
X67784524Y-115135176D02*
X67879762Y-115039938D01*
X67879762Y-115039938D02*
X68022619Y-114992319D01*
X68022619Y-114992319D02*
X68117857Y-114992319D01*
X68117857Y-114992319D02*
X68260714Y-115039938D01*
X68260714Y-115039938D02*
X68308333Y-115087557D01*
X69213095Y-114992319D02*
X68736905Y-114992319D01*
X68736905Y-114992319D02*
X68689286Y-115468509D01*
X68689286Y-115468509D02*
X68736905Y-115420890D01*
X68736905Y-115420890D02*
X68832143Y-115373271D01*
X68832143Y-115373271D02*
X69070238Y-115373271D01*
X69070238Y-115373271D02*
X69165476Y-115420890D01*
X69165476Y-115420890D02*
X69213095Y-115468509D01*
X69213095Y-115468509D02*
X69260714Y-115563747D01*
X69260714Y-115563747D02*
X69260714Y-115801842D01*
X69260714Y-115801842D02*
X69213095Y-115897080D01*
X69213095Y-115897080D02*
X69165476Y-115944700D01*
X69165476Y-115944700D02*
X69070238Y-115992319D01*
X69070238Y-115992319D02*
X68832143Y-115992319D01*
X68832143Y-115992319D02*
X68736905Y-115944700D01*
X68736905Y-115944700D02*
X68689286Y-115897080D01*
X80607142Y-130704819D02*
X80273809Y-130228628D01*
X80035714Y-130704819D02*
X80035714Y-129704819D01*
X80035714Y-129704819D02*
X80416666Y-129704819D01*
X80416666Y-129704819D02*
X80511904Y-129752438D01*
X80511904Y-129752438D02*
X80559523Y-129800057D01*
X80559523Y-129800057D02*
X80607142Y-129895295D01*
X80607142Y-129895295D02*
X80607142Y-130038152D01*
X80607142Y-130038152D02*
X80559523Y-130133390D01*
X80559523Y-130133390D02*
X80511904Y-130181009D01*
X80511904Y-130181009D02*
X80416666Y-130228628D01*
X80416666Y-130228628D02*
X80035714Y-130228628D01*
X81559523Y-130704819D02*
X80988095Y-130704819D01*
X81273809Y-130704819D02*
X81273809Y-129704819D01*
X81273809Y-129704819D02*
X81178571Y-129847676D01*
X81178571Y-129847676D02*
X81083333Y-129942914D01*
X81083333Y-129942914D02*
X80988095Y-129990533D01*
X81940476Y-129800057D02*
X81988095Y-129752438D01*
X81988095Y-129752438D02*
X82083333Y-129704819D01*
X82083333Y-129704819D02*
X82321428Y-129704819D01*
X82321428Y-129704819D02*
X82416666Y-129752438D01*
X82416666Y-129752438D02*
X82464285Y-129800057D01*
X82464285Y-129800057D02*
X82511904Y-129895295D01*
X82511904Y-129895295D02*
X82511904Y-129990533D01*
X82511904Y-129990533D02*
X82464285Y-130133390D01*
X82464285Y-130133390D02*
X81892857Y-130704819D01*
X81892857Y-130704819D02*
X82511904Y-130704819D01*
X71019095Y-114964819D02*
X71019095Y-115774342D01*
X71019095Y-115774342D02*
X71066714Y-115869580D01*
X71066714Y-115869580D02*
X71114333Y-115917200D01*
X71114333Y-115917200D02*
X71209571Y-115964819D01*
X71209571Y-115964819D02*
X71400047Y-115964819D01*
X71400047Y-115964819D02*
X71495285Y-115917200D01*
X71495285Y-115917200D02*
X71542904Y-115869580D01*
X71542904Y-115869580D02*
X71590523Y-115774342D01*
X71590523Y-115774342D02*
X71590523Y-114964819D01*
X72019095Y-115060057D02*
X72066714Y-115012438D01*
X72066714Y-115012438D02*
X72161952Y-114964819D01*
X72161952Y-114964819D02*
X72400047Y-114964819D01*
X72400047Y-114964819D02*
X72495285Y-115012438D01*
X72495285Y-115012438D02*
X72542904Y-115060057D01*
X72542904Y-115060057D02*
X72590523Y-115155295D01*
X72590523Y-115155295D02*
X72590523Y-115250533D01*
X72590523Y-115250533D02*
X72542904Y-115393390D01*
X72542904Y-115393390D02*
X71971476Y-115964819D01*
X71971476Y-115964819D02*
X72590523Y-115964819D01*
X108589580Y-101476238D02*
X108637200Y-101523857D01*
X108637200Y-101523857D02*
X108684819Y-101666714D01*
X108684819Y-101666714D02*
X108684819Y-101761952D01*
X108684819Y-101761952D02*
X108637200Y-101904809D01*
X108637200Y-101904809D02*
X108541961Y-102000047D01*
X108541961Y-102000047D02*
X108446723Y-102047666D01*
X108446723Y-102047666D02*
X108256247Y-102095285D01*
X108256247Y-102095285D02*
X108113390Y-102095285D01*
X108113390Y-102095285D02*
X107922914Y-102047666D01*
X107922914Y-102047666D02*
X107827676Y-102000047D01*
X107827676Y-102000047D02*
X107732438Y-101904809D01*
X107732438Y-101904809D02*
X107684819Y-101761952D01*
X107684819Y-101761952D02*
X107684819Y-101666714D01*
X107684819Y-101666714D02*
X107732438Y-101523857D01*
X107732438Y-101523857D02*
X107780057Y-101476238D01*
X108684819Y-100476238D02*
X108208628Y-100809571D01*
X108684819Y-101047666D02*
X107684819Y-101047666D01*
X107684819Y-101047666D02*
X107684819Y-100666714D01*
X107684819Y-100666714D02*
X107732438Y-100571476D01*
X107732438Y-100571476D02*
X107780057Y-100523857D01*
X107780057Y-100523857D02*
X107875295Y-100476238D01*
X107875295Y-100476238D02*
X108018152Y-100476238D01*
X108018152Y-100476238D02*
X108113390Y-100523857D01*
X108113390Y-100523857D02*
X108161009Y-100571476D01*
X108161009Y-100571476D02*
X108208628Y-100666714D01*
X108208628Y-100666714D02*
X108208628Y-101047666D01*
X107780057Y-100095285D02*
X107732438Y-100047666D01*
X107732438Y-100047666D02*
X107684819Y-99952428D01*
X107684819Y-99952428D02*
X107684819Y-99714333D01*
X107684819Y-99714333D02*
X107732438Y-99619095D01*
X107732438Y-99619095D02*
X107780057Y-99571476D01*
X107780057Y-99571476D02*
X107875295Y-99523857D01*
X107875295Y-99523857D02*
X107970533Y-99523857D01*
X107970533Y-99523857D02*
X108113390Y-99571476D01*
X108113390Y-99571476D02*
X108684819Y-100142904D01*
X108684819Y-100142904D02*
X108684819Y-99523857D01*
X107684819Y-98904809D02*
X107684819Y-98809571D01*
X107684819Y-98809571D02*
X107732438Y-98714333D01*
X107732438Y-98714333D02*
X107780057Y-98666714D01*
X107780057Y-98666714D02*
X107875295Y-98619095D01*
X107875295Y-98619095D02*
X108065771Y-98571476D01*
X108065771Y-98571476D02*
X108303866Y-98571476D01*
X108303866Y-98571476D02*
X108494342Y-98619095D01*
X108494342Y-98619095D02*
X108589580Y-98666714D01*
X108589580Y-98666714D02*
X108637200Y-98714333D01*
X108637200Y-98714333D02*
X108684819Y-98809571D01*
X108684819Y-98809571D02*
X108684819Y-98904809D01*
X108684819Y-98904809D02*
X108637200Y-99000047D01*
X108637200Y-99000047D02*
X108589580Y-99047666D01*
X108589580Y-99047666D02*
X108494342Y-99095285D01*
X108494342Y-99095285D02*
X108303866Y-99142904D01*
X108303866Y-99142904D02*
X108065771Y-99142904D01*
X108065771Y-99142904D02*
X107875295Y-99095285D01*
X107875295Y-99095285D02*
X107780057Y-99047666D01*
X107780057Y-99047666D02*
X107732438Y-99000047D01*
X107732438Y-99000047D02*
X107684819Y-98904809D01*
X107684819Y-98238142D02*
X107684819Y-97619095D01*
X107684819Y-97619095D02*
X108065771Y-97952428D01*
X108065771Y-97952428D02*
X108065771Y-97809571D01*
X108065771Y-97809571D02*
X108113390Y-97714333D01*
X108113390Y-97714333D02*
X108161009Y-97666714D01*
X108161009Y-97666714D02*
X108256247Y-97619095D01*
X108256247Y-97619095D02*
X108494342Y-97619095D01*
X108494342Y-97619095D02*
X108589580Y-97666714D01*
X108589580Y-97666714D02*
X108637200Y-97714333D01*
X108637200Y-97714333D02*
X108684819Y-97809571D01*
X108684819Y-97809571D02*
X108684819Y-98095285D01*
X108684819Y-98095285D02*
X108637200Y-98190523D01*
X108637200Y-98190523D02*
X108589580Y-98238142D01*
X107780057Y-97238142D02*
X107732438Y-97190523D01*
X107732438Y-97190523D02*
X107684819Y-97095285D01*
X107684819Y-97095285D02*
X107684819Y-96857190D01*
X107684819Y-96857190D02*
X107732438Y-96761952D01*
X107732438Y-96761952D02*
X107780057Y-96714333D01*
X107780057Y-96714333D02*
X107875295Y-96666714D01*
X107875295Y-96666714D02*
X107970533Y-96666714D01*
X107970533Y-96666714D02*
X108113390Y-96714333D01*
X108113390Y-96714333D02*
X108684819Y-97285761D01*
X108684819Y-97285761D02*
X108684819Y-96666714D01*
X72394642Y-124679580D02*
X72347023Y-124727200D01*
X72347023Y-124727200D02*
X72204166Y-124774819D01*
X72204166Y-124774819D02*
X72108928Y-124774819D01*
X72108928Y-124774819D02*
X71966071Y-124727200D01*
X71966071Y-124727200D02*
X71870833Y-124631961D01*
X71870833Y-124631961D02*
X71823214Y-124536723D01*
X71823214Y-124536723D02*
X71775595Y-124346247D01*
X71775595Y-124346247D02*
X71775595Y-124203390D01*
X71775595Y-124203390D02*
X71823214Y-124012914D01*
X71823214Y-124012914D02*
X71870833Y-123917676D01*
X71870833Y-123917676D02*
X71966071Y-123822438D01*
X71966071Y-123822438D02*
X72108928Y-123774819D01*
X72108928Y-123774819D02*
X72204166Y-123774819D01*
X72204166Y-123774819D02*
X72347023Y-123822438D01*
X72347023Y-123822438D02*
X72394642Y-123870057D01*
X73347023Y-124774819D02*
X72775595Y-124774819D01*
X73061309Y-124774819D02*
X73061309Y-123774819D01*
X73061309Y-123774819D02*
X72966071Y-123917676D01*
X72966071Y-123917676D02*
X72870833Y-124012914D01*
X72870833Y-124012914D02*
X72775595Y-124060533D01*
X73680357Y-123774819D02*
X74299404Y-123774819D01*
X74299404Y-123774819D02*
X73966071Y-124155771D01*
X73966071Y-124155771D02*
X74108928Y-124155771D01*
X74108928Y-124155771D02*
X74204166Y-124203390D01*
X74204166Y-124203390D02*
X74251785Y-124251009D01*
X74251785Y-124251009D02*
X74299404Y-124346247D01*
X74299404Y-124346247D02*
X74299404Y-124584342D01*
X74299404Y-124584342D02*
X74251785Y-124679580D01*
X74251785Y-124679580D02*
X74204166Y-124727200D01*
X74204166Y-124727200D02*
X74108928Y-124774819D01*
X74108928Y-124774819D02*
X73823214Y-124774819D01*
X73823214Y-124774819D02*
X73727976Y-124727200D01*
X73727976Y-124727200D02*
X73680357Y-124679580D01*
X134333333Y-126454819D02*
X134000000Y-125978628D01*
X133761905Y-126454819D02*
X133761905Y-125454819D01*
X133761905Y-125454819D02*
X134142857Y-125454819D01*
X134142857Y-125454819D02*
X134238095Y-125502438D01*
X134238095Y-125502438D02*
X134285714Y-125550057D01*
X134285714Y-125550057D02*
X134333333Y-125645295D01*
X134333333Y-125645295D02*
X134333333Y-125788152D01*
X134333333Y-125788152D02*
X134285714Y-125883390D01*
X134285714Y-125883390D02*
X134238095Y-125931009D01*
X134238095Y-125931009D02*
X134142857Y-125978628D01*
X134142857Y-125978628D02*
X133761905Y-125978628D01*
X135238095Y-125454819D02*
X134761905Y-125454819D01*
X134761905Y-125454819D02*
X134714286Y-125931009D01*
X134714286Y-125931009D02*
X134761905Y-125883390D01*
X134761905Y-125883390D02*
X134857143Y-125835771D01*
X134857143Y-125835771D02*
X135095238Y-125835771D01*
X135095238Y-125835771D02*
X135190476Y-125883390D01*
X135190476Y-125883390D02*
X135238095Y-125931009D01*
X135238095Y-125931009D02*
X135285714Y-126026247D01*
X135285714Y-126026247D02*
X135285714Y-126264342D01*
X135285714Y-126264342D02*
X135238095Y-126359580D01*
X135238095Y-126359580D02*
X135190476Y-126407200D01*
X135190476Y-126407200D02*
X135095238Y-126454819D01*
X135095238Y-126454819D02*
X134857143Y-126454819D01*
X134857143Y-126454819D02*
X134761905Y-126407200D01*
X134761905Y-126407200D02*
X134714286Y-126359580D01*
X162647333Y-121612819D02*
X162314000Y-121136628D01*
X162075905Y-121612819D02*
X162075905Y-120612819D01*
X162075905Y-120612819D02*
X162456857Y-120612819D01*
X162456857Y-120612819D02*
X162552095Y-120660438D01*
X162552095Y-120660438D02*
X162599714Y-120708057D01*
X162599714Y-120708057D02*
X162647333Y-120803295D01*
X162647333Y-120803295D02*
X162647333Y-120946152D01*
X162647333Y-120946152D02*
X162599714Y-121041390D01*
X162599714Y-121041390D02*
X162552095Y-121089009D01*
X162552095Y-121089009D02*
X162456857Y-121136628D01*
X162456857Y-121136628D02*
X162075905Y-121136628D01*
X163599714Y-121612819D02*
X163028286Y-121612819D01*
X163314000Y-121612819D02*
X163314000Y-120612819D01*
X163314000Y-120612819D02*
X163218762Y-120755676D01*
X163218762Y-120755676D02*
X163123524Y-120850914D01*
X163123524Y-120850914D02*
X163028286Y-120898533D01*
X54761905Y-125954819D02*
X55380952Y-125954819D01*
X55380952Y-125954819D02*
X55047619Y-126335771D01*
X55047619Y-126335771D02*
X55190476Y-126335771D01*
X55190476Y-126335771D02*
X55285714Y-126383390D01*
X55285714Y-126383390D02*
X55333333Y-126431009D01*
X55333333Y-126431009D02*
X55380952Y-126526247D01*
X55380952Y-126526247D02*
X55380952Y-126764342D01*
X55380952Y-126764342D02*
X55333333Y-126859580D01*
X55333333Y-126859580D02*
X55285714Y-126907200D01*
X55285714Y-126907200D02*
X55190476Y-126954819D01*
X55190476Y-126954819D02*
X54904762Y-126954819D01*
X54904762Y-126954819D02*
X54809524Y-126907200D01*
X54809524Y-126907200D02*
X54761905Y-126859580D01*
X55666667Y-125954819D02*
X56000000Y-126954819D01*
X56000000Y-126954819D02*
X56333333Y-125954819D01*
X56571429Y-125954819D02*
X57190476Y-125954819D01*
X57190476Y-125954819D02*
X56857143Y-126335771D01*
X56857143Y-126335771D02*
X57000000Y-126335771D01*
X57000000Y-126335771D02*
X57095238Y-126383390D01*
X57095238Y-126383390D02*
X57142857Y-126431009D01*
X57142857Y-126431009D02*
X57190476Y-126526247D01*
X57190476Y-126526247D02*
X57190476Y-126764342D01*
X57190476Y-126764342D02*
X57142857Y-126859580D01*
X57142857Y-126859580D02*
X57095238Y-126907200D01*
X57095238Y-126907200D02*
X57000000Y-126954819D01*
X57000000Y-126954819D02*
X56714286Y-126954819D01*
X56714286Y-126954819D02*
X56619048Y-126907200D01*
X56619048Y-126907200D02*
X56571429Y-126859580D01*
X171301580Y-109542857D02*
X171349200Y-109590476D01*
X171349200Y-109590476D02*
X171396819Y-109733333D01*
X171396819Y-109733333D02*
X171396819Y-109828571D01*
X171396819Y-109828571D02*
X171349200Y-109971428D01*
X171349200Y-109971428D02*
X171253961Y-110066666D01*
X171253961Y-110066666D02*
X171158723Y-110114285D01*
X171158723Y-110114285D02*
X170968247Y-110161904D01*
X170968247Y-110161904D02*
X170825390Y-110161904D01*
X170825390Y-110161904D02*
X170634914Y-110114285D01*
X170634914Y-110114285D02*
X170539676Y-110066666D01*
X170539676Y-110066666D02*
X170444438Y-109971428D01*
X170444438Y-109971428D02*
X170396819Y-109828571D01*
X170396819Y-109828571D02*
X170396819Y-109733333D01*
X170396819Y-109733333D02*
X170444438Y-109590476D01*
X170444438Y-109590476D02*
X170492057Y-109542857D01*
X170396819Y-109209523D02*
X170396819Y-108590476D01*
X170396819Y-108590476D02*
X170777771Y-108923809D01*
X170777771Y-108923809D02*
X170777771Y-108780952D01*
X170777771Y-108780952D02*
X170825390Y-108685714D01*
X170825390Y-108685714D02*
X170873009Y-108638095D01*
X170873009Y-108638095D02*
X170968247Y-108590476D01*
X170968247Y-108590476D02*
X171206342Y-108590476D01*
X171206342Y-108590476D02*
X171301580Y-108638095D01*
X171301580Y-108638095D02*
X171349200Y-108685714D01*
X171349200Y-108685714D02*
X171396819Y-108780952D01*
X171396819Y-108780952D02*
X171396819Y-109066666D01*
X171396819Y-109066666D02*
X171349200Y-109161904D01*
X171349200Y-109161904D02*
X171301580Y-109209523D01*
X170825390Y-108019047D02*
X170777771Y-108114285D01*
X170777771Y-108114285D02*
X170730152Y-108161904D01*
X170730152Y-108161904D02*
X170634914Y-108209523D01*
X170634914Y-108209523D02*
X170587295Y-108209523D01*
X170587295Y-108209523D02*
X170492057Y-108161904D01*
X170492057Y-108161904D02*
X170444438Y-108114285D01*
X170444438Y-108114285D02*
X170396819Y-108019047D01*
X170396819Y-108019047D02*
X170396819Y-107828571D01*
X170396819Y-107828571D02*
X170444438Y-107733333D01*
X170444438Y-107733333D02*
X170492057Y-107685714D01*
X170492057Y-107685714D02*
X170587295Y-107638095D01*
X170587295Y-107638095D02*
X170634914Y-107638095D01*
X170634914Y-107638095D02*
X170730152Y-107685714D01*
X170730152Y-107685714D02*
X170777771Y-107733333D01*
X170777771Y-107733333D02*
X170825390Y-107828571D01*
X170825390Y-107828571D02*
X170825390Y-108019047D01*
X170825390Y-108019047D02*
X170873009Y-108114285D01*
X170873009Y-108114285D02*
X170920628Y-108161904D01*
X170920628Y-108161904D02*
X171015866Y-108209523D01*
X171015866Y-108209523D02*
X171206342Y-108209523D01*
X171206342Y-108209523D02*
X171301580Y-108161904D01*
X171301580Y-108161904D02*
X171349200Y-108114285D01*
X171349200Y-108114285D02*
X171396819Y-108019047D01*
X171396819Y-108019047D02*
X171396819Y-107828571D01*
X171396819Y-107828571D02*
X171349200Y-107733333D01*
X171349200Y-107733333D02*
X171301580Y-107685714D01*
X171301580Y-107685714D02*
X171206342Y-107638095D01*
X171206342Y-107638095D02*
X171015866Y-107638095D01*
X171015866Y-107638095D02*
X170920628Y-107685714D01*
X170920628Y-107685714D02*
X170873009Y-107733333D01*
X170873009Y-107733333D02*
X170825390Y-107828571D01*
X95218666Y-101954819D02*
X95218666Y-102669104D01*
X95218666Y-102669104D02*
X95171047Y-102811961D01*
X95171047Y-102811961D02*
X95075809Y-102907200D01*
X95075809Y-102907200D02*
X94932952Y-102954819D01*
X94932952Y-102954819D02*
X94837714Y-102954819D01*
X96218666Y-102954819D02*
X95647238Y-102954819D01*
X95932952Y-102954819D02*
X95932952Y-101954819D01*
X95932952Y-101954819D02*
X95837714Y-102097676D01*
X95837714Y-102097676D02*
X95742476Y-102192914D01*
X95742476Y-102192914D02*
X95647238Y-102240533D01*
X96790095Y-102907200D02*
X96932952Y-102954819D01*
X96932952Y-102954819D02*
X97171047Y-102954819D01*
X97171047Y-102954819D02*
X97266285Y-102907200D01*
X97266285Y-102907200D02*
X97313904Y-102859580D01*
X97313904Y-102859580D02*
X97361523Y-102764342D01*
X97361523Y-102764342D02*
X97361523Y-102669104D01*
X97361523Y-102669104D02*
X97313904Y-102573866D01*
X97313904Y-102573866D02*
X97266285Y-102526247D01*
X97266285Y-102526247D02*
X97171047Y-102478628D01*
X97171047Y-102478628D02*
X96980571Y-102431009D01*
X96980571Y-102431009D02*
X96885333Y-102383390D01*
X96885333Y-102383390D02*
X96837714Y-102335771D01*
X96837714Y-102335771D02*
X96790095Y-102240533D01*
X96790095Y-102240533D02*
X96790095Y-102145295D01*
X96790095Y-102145295D02*
X96837714Y-102050057D01*
X96837714Y-102050057D02*
X96885333Y-102002438D01*
X96885333Y-102002438D02*
X96980571Y-101954819D01*
X96980571Y-101954819D02*
X97218666Y-101954819D01*
X97218666Y-101954819D02*
X97361523Y-102002438D01*
X97790095Y-102288152D02*
X97790095Y-103288152D01*
X97790095Y-102335771D02*
X97885333Y-102288152D01*
X97885333Y-102288152D02*
X98075809Y-102288152D01*
X98075809Y-102288152D02*
X98171047Y-102335771D01*
X98171047Y-102335771D02*
X98218666Y-102383390D01*
X98218666Y-102383390D02*
X98266285Y-102478628D01*
X98266285Y-102478628D02*
X98266285Y-102764342D01*
X98266285Y-102764342D02*
X98218666Y-102859580D01*
X98218666Y-102859580D02*
X98171047Y-102907200D01*
X98171047Y-102907200D02*
X98075809Y-102954819D01*
X98075809Y-102954819D02*
X97885333Y-102954819D01*
X97885333Y-102954819D02*
X97790095Y-102907200D01*
X99075809Y-102907200D02*
X98980571Y-102954819D01*
X98980571Y-102954819D02*
X98790095Y-102954819D01*
X98790095Y-102954819D02*
X98694857Y-102907200D01*
X98694857Y-102907200D02*
X98647238Y-102811961D01*
X98647238Y-102811961D02*
X98647238Y-102431009D01*
X98647238Y-102431009D02*
X98694857Y-102335771D01*
X98694857Y-102335771D02*
X98790095Y-102288152D01*
X98790095Y-102288152D02*
X98980571Y-102288152D01*
X98980571Y-102288152D02*
X99075809Y-102335771D01*
X99075809Y-102335771D02*
X99123428Y-102431009D01*
X99123428Y-102431009D02*
X99123428Y-102526247D01*
X99123428Y-102526247D02*
X98647238Y-102621485D01*
X99980571Y-102954819D02*
X99980571Y-102431009D01*
X99980571Y-102431009D02*
X99932952Y-102335771D01*
X99932952Y-102335771D02*
X99837714Y-102288152D01*
X99837714Y-102288152D02*
X99647238Y-102288152D01*
X99647238Y-102288152D02*
X99552000Y-102335771D01*
X99980571Y-102907200D02*
X99885333Y-102954819D01*
X99885333Y-102954819D02*
X99647238Y-102954819D01*
X99647238Y-102954819D02*
X99552000Y-102907200D01*
X99552000Y-102907200D02*
X99504381Y-102811961D01*
X99504381Y-102811961D02*
X99504381Y-102716723D01*
X99504381Y-102716723D02*
X99552000Y-102621485D01*
X99552000Y-102621485D02*
X99647238Y-102573866D01*
X99647238Y-102573866D02*
X99885333Y-102573866D01*
X99885333Y-102573866D02*
X99980571Y-102526247D01*
X100456762Y-102954819D02*
X100456762Y-101954819D01*
X100552000Y-102573866D02*
X100837714Y-102954819D01*
X100837714Y-102288152D02*
X100456762Y-102669104D01*
X101647238Y-102907200D02*
X101552000Y-102954819D01*
X101552000Y-102954819D02*
X101361524Y-102954819D01*
X101361524Y-102954819D02*
X101266286Y-102907200D01*
X101266286Y-102907200D02*
X101218667Y-102811961D01*
X101218667Y-102811961D02*
X101218667Y-102431009D01*
X101218667Y-102431009D02*
X101266286Y-102335771D01*
X101266286Y-102335771D02*
X101361524Y-102288152D01*
X101361524Y-102288152D02*
X101552000Y-102288152D01*
X101552000Y-102288152D02*
X101647238Y-102335771D01*
X101647238Y-102335771D02*
X101694857Y-102431009D01*
X101694857Y-102431009D02*
X101694857Y-102526247D01*
X101694857Y-102526247D02*
X101218667Y-102621485D01*
X102123429Y-102954819D02*
X102123429Y-102288152D01*
X102123429Y-102478628D02*
X102171048Y-102383390D01*
X102171048Y-102383390D02*
X102218667Y-102335771D01*
X102218667Y-102335771D02*
X102313905Y-102288152D01*
X102313905Y-102288152D02*
X102409143Y-102288152D01*
X56358333Y-123359580D02*
X56310714Y-123407200D01*
X56310714Y-123407200D02*
X56167857Y-123454819D01*
X56167857Y-123454819D02*
X56072619Y-123454819D01*
X56072619Y-123454819D02*
X55929762Y-123407200D01*
X55929762Y-123407200D02*
X55834524Y-123311961D01*
X55834524Y-123311961D02*
X55786905Y-123216723D01*
X55786905Y-123216723D02*
X55739286Y-123026247D01*
X55739286Y-123026247D02*
X55739286Y-122883390D01*
X55739286Y-122883390D02*
X55786905Y-122692914D01*
X55786905Y-122692914D02*
X55834524Y-122597676D01*
X55834524Y-122597676D02*
X55929762Y-122502438D01*
X55929762Y-122502438D02*
X56072619Y-122454819D01*
X56072619Y-122454819D02*
X56167857Y-122454819D01*
X56167857Y-122454819D02*
X56310714Y-122502438D01*
X56310714Y-122502438D02*
X56358333Y-122550057D01*
X57215476Y-122788152D02*
X57215476Y-123454819D01*
X56977381Y-122407200D02*
X56739286Y-123121485D01*
X56739286Y-123121485D02*
X57358333Y-123121485D01*
X61833333Y-127134819D02*
X61500000Y-126658628D01*
X61261905Y-127134819D02*
X61261905Y-126134819D01*
X61261905Y-126134819D02*
X61642857Y-126134819D01*
X61642857Y-126134819D02*
X61738095Y-126182438D01*
X61738095Y-126182438D02*
X61785714Y-126230057D01*
X61785714Y-126230057D02*
X61833333Y-126325295D01*
X61833333Y-126325295D02*
X61833333Y-126468152D01*
X61833333Y-126468152D02*
X61785714Y-126563390D01*
X61785714Y-126563390D02*
X61738095Y-126611009D01*
X61738095Y-126611009D02*
X61642857Y-126658628D01*
X61642857Y-126658628D02*
X61261905Y-126658628D01*
X62166667Y-126134819D02*
X62785714Y-126134819D01*
X62785714Y-126134819D02*
X62452381Y-126515771D01*
X62452381Y-126515771D02*
X62595238Y-126515771D01*
X62595238Y-126515771D02*
X62690476Y-126563390D01*
X62690476Y-126563390D02*
X62738095Y-126611009D01*
X62738095Y-126611009D02*
X62785714Y-126706247D01*
X62785714Y-126706247D02*
X62785714Y-126944342D01*
X62785714Y-126944342D02*
X62738095Y-127039580D01*
X62738095Y-127039580D02*
X62690476Y-127087200D01*
X62690476Y-127087200D02*
X62595238Y-127134819D01*
X62595238Y-127134819D02*
X62309524Y-127134819D01*
X62309524Y-127134819D02*
X62214286Y-127087200D01*
X62214286Y-127087200D02*
X62166667Y-127039580D01*
D12*
%TO.C,U5*%
X83371600Y-120199400D02*
X83846600Y-120199400D01*
X83371600Y-120674400D02*
X83371600Y-120199400D01*
X83371600Y-124944400D02*
X83371600Y-125419400D01*
X83371600Y-125419400D02*
X83846600Y-125419400D01*
X88591600Y-120199400D02*
X88116600Y-120199400D01*
X88591600Y-120674400D02*
X88591600Y-120199400D01*
X88591600Y-124944400D02*
X88591600Y-125419400D01*
X88591600Y-125419400D02*
X88116600Y-125419400D01*
X88586600Y-119936900D02*
X88116600Y-119596900D01*
X88586600Y-119256900D01*
X88586600Y-119936900D01*
G36*
X88586600Y-119936900D02*
G01*
X88116600Y-119596900D01*
X88586600Y-119256900D01*
X88586600Y-119936900D01*
G37*
%TO.C,R13*%
X84397936Y-131840000D02*
X85852064Y-131840000D01*
X84397936Y-133660000D02*
X85852064Y-133660000D01*
%TO.C,HUB75E-1*%
X53400000Y-97307500D02*
X81600000Y-97307500D01*
X53400000Y-106427500D02*
X53400000Y-97307500D01*
X58110000Y-113047500D02*
X59110000Y-113047500D01*
X58610000Y-112047500D02*
X58110000Y-113047500D01*
X59110000Y-113047500D02*
X58610000Y-112047500D01*
X65450000Y-106427500D02*
X65450000Y-97307500D01*
X69550000Y-106427500D02*
X69550000Y-97307500D01*
X81600000Y-97307500D02*
X81600000Y-106427500D01*
X81600000Y-106427500D02*
X53400000Y-106427500D01*
%TO.C,R6*%
X76722936Y-125090000D02*
X78177064Y-125090000D01*
X76722936Y-126910000D02*
X78177064Y-126910000D01*
%TO.C,J2*%
X84836000Y-89644000D02*
X84836000Y-101364000D01*
X84836000Y-101364000D02*
X86256000Y-101364000D01*
X86256000Y-96864000D02*
X88646000Y-96864000D01*
X86256000Y-101364000D02*
X86256000Y-96864000D01*
X87146000Y-90254000D02*
X87146000Y-95754000D01*
X87146000Y-95754000D02*
X87646000Y-95754000D01*
X87646000Y-90254000D02*
X87146000Y-90254000D01*
X87646000Y-95754000D02*
X87646000Y-90254000D01*
X88646000Y-89644000D02*
X84836000Y-89644000D01*
X88646000Y-89644000D02*
X92456000Y-89644000D01*
X89596000Y-101054000D02*
X89896000Y-100454000D01*
X89646000Y-90254000D02*
X89646000Y-95754000D01*
X89646000Y-95754000D02*
X90146000Y-95754000D01*
X89896000Y-100454000D02*
X90196000Y-101054000D01*
X90146000Y-90254000D02*
X89646000Y-90254000D01*
X90146000Y-95754000D02*
X90146000Y-90254000D01*
X90196000Y-101054000D02*
X89596000Y-101054000D01*
X91036000Y-96864000D02*
X88646000Y-96864000D01*
X91036000Y-101364000D02*
X91036000Y-96864000D01*
X92456000Y-89644000D02*
X92456000Y-101364000D01*
X92456000Y-101364000D02*
X91036000Y-101364000D01*
%TO.C,C27*%
X141023000Y-115030753D02*
X141023000Y-114508247D01*
X142493000Y-115030753D02*
X142493000Y-114508247D01*
%TO.C,SW4*%
X134634000Y-108620000D02*
X140754000Y-108620000D01*
X134634000Y-112240000D02*
X134634000Y-108620000D01*
X140754000Y-108620000D02*
X140754000Y-112240000D01*
X140754000Y-112240000D02*
X134634000Y-112240000D01*
%TO.C,X2*%
X81009000Y-112787000D02*
X81009000Y-110987000D01*
X83409000Y-109187000D02*
X86009000Y-109187000D01*
X86009000Y-109187000D02*
X86009000Y-108587000D01*
X86009000Y-114587000D02*
X83409000Y-114587000D01*
X88409000Y-110987000D02*
X88409000Y-112787000D01*
X89909000Y-110987000D02*
X88409000Y-110987000D01*
%TO.C,U7*%
X94030000Y-111683000D02*
X94030000Y-112633000D01*
X94030000Y-131903000D02*
X94030000Y-130953000D01*
X94980000Y-111683000D02*
X94030000Y-111683000D01*
X94980000Y-131903000D02*
X94030000Y-131903000D01*
X113300000Y-111683000D02*
X114250000Y-111683000D01*
X113300000Y-131903000D02*
X114250000Y-131903000D01*
X114250000Y-111683000D02*
X114250000Y-112633000D01*
X114250000Y-131903000D02*
X114250000Y-130953000D01*
X93440000Y-112633000D02*
X93100000Y-112163000D01*
X93780000Y-112163000D01*
X93440000Y-112633000D01*
G36*
X93440000Y-112633000D02*
G01*
X93100000Y-112163000D01*
X93780000Y-112163000D01*
X93440000Y-112633000D01*
G37*
%TO.C,U10*%
X169046000Y-114944000D02*
X169046000Y-115469000D01*
X169046000Y-114944000D02*
X169571000Y-114944000D01*
X169046000Y-119244000D02*
X169046000Y-118719000D01*
X169046000Y-119244000D02*
X169571000Y-119244000D01*
X172821000Y-119244000D02*
X173046000Y-119244000D01*
X173346000Y-114944000D02*
X172821000Y-114944000D01*
X173346000Y-114944000D02*
X173346000Y-115469000D01*
X173346000Y-118779000D02*
X173346000Y-119004000D01*
X173586000Y-119574000D02*
X173106000Y-119574000D01*
X173346000Y-119244000D01*
X173586000Y-119574000D01*
G36*
X173586000Y-119574000D02*
G01*
X173106000Y-119574000D01*
X173346000Y-119244000D01*
X173586000Y-119574000D01*
G37*
%TO.C,R16*%
X93153501Y-135676115D02*
X91699373Y-135676115D01*
X93153501Y-137496115D02*
X91699373Y-137496115D01*
%TO.C,C37*%
X166651000Y-118864748D02*
X166651000Y-119387252D01*
X168121000Y-118864748D02*
X168121000Y-119387252D01*
%TO.C,C40*%
X168175000Y-112028248D02*
X168175000Y-112550752D01*
X169645000Y-112028248D02*
X169645000Y-112550752D01*
%TO.C,C17*%
X85971747Y-116359000D02*
X86494251Y-116359000D01*
X85971747Y-117829000D02*
X86494251Y-117829000D01*
%TO.C,HUB75E-2*%
X141510000Y-97307500D02*
X169710000Y-97307500D01*
X141510000Y-106427500D02*
X141510000Y-97307500D01*
X146220000Y-113047500D02*
X147220000Y-113047500D01*
X146720000Y-112047500D02*
X146220000Y-113047500D01*
X147220000Y-113047500D02*
X146720000Y-112047500D01*
X153560000Y-106427500D02*
X153560000Y-97307500D01*
X157660000Y-106427500D02*
X157660000Y-97307500D01*
X169710000Y-97307500D02*
X169710000Y-106427500D01*
X169710000Y-106427500D02*
X141510000Y-106427500D01*
%TO.C,U3*%
X142791000Y-123601000D02*
X142791000Y-141601000D01*
X142791000Y-123601000D02*
X143146000Y-123601000D01*
X142791000Y-141601000D02*
X143146000Y-141601000D01*
X167881000Y-123601000D02*
X167881000Y-141601000D01*
X174146000Y-141601000D02*
X167396000Y-141601000D01*
X174191000Y-123601000D02*
X167396000Y-123601000D01*
X174191000Y-141601000D02*
X174191000Y-123601000D01*
D13*
%TO.C,U1*%
X58521700Y-121176400D02*
X60528300Y-121176400D01*
X60528300Y-117823600D02*
X58521700Y-117823600D01*
X60528300Y-119863261D02*
X60528300Y-119136739D01*
D12*
%TO.C,SW3*%
X121878437Y-118520115D02*
X127998437Y-118520115D01*
X121878437Y-122140115D02*
X121878437Y-118520115D01*
X127998437Y-118520115D02*
X127998437Y-122140115D01*
X127998437Y-122140115D02*
X121878437Y-122140115D01*
%TO.C,R15*%
X138548064Y-113076000D02*
X137093936Y-113076000D01*
X138548064Y-114896000D02*
X137093936Y-114896000D01*
%TO.C,C11*%
X68701248Y-125265000D02*
X69223752Y-125265000D01*
X68701248Y-126735000D02*
X69223752Y-126735000D01*
%TO.C,P2*%
X51640000Y-131152500D02*
X51640000Y-132272500D01*
X51640000Y-131152500D02*
X66360000Y-131152500D01*
X51640000Y-137606500D02*
X51640000Y-145372500D01*
X51640000Y-145372500D02*
X66360000Y-145372500D01*
X55000000Y-130272500D02*
X55500000Y-130772500D01*
X55500000Y-130772500D02*
X56000000Y-130272500D01*
X56000000Y-130272500D02*
X55000000Y-130272500D01*
X66360000Y-132272500D02*
X66360000Y-131152500D01*
X66360000Y-137606500D02*
X66360000Y-145372500D01*
%TO.C,U4*%
X69535000Y-131475000D02*
X69535000Y-129525000D01*
X69535000Y-131475000D02*
X69535000Y-133425000D01*
X79655000Y-131475000D02*
X79655000Y-129525000D01*
X79655000Y-131475000D02*
X79655000Y-133425000D01*
X69590000Y-134175000D02*
X69260000Y-134415000D01*
X69260000Y-133935000D01*
X69590000Y-134175000D01*
G36*
X69590000Y-134175000D02*
G01*
X69260000Y-134415000D01*
X69260000Y-133935000D01*
X69590000Y-134175000D01*
G37*
%TO.C,LED4*%
X90826437Y-135181115D02*
X94886437Y-135181115D01*
X94886437Y-132911115D02*
X90826437Y-132911115D01*
X94886437Y-135181115D02*
X94886437Y-132911115D01*
%TO.C,P1*%
X70920000Y-139650000D02*
X70920000Y-141570000D01*
X70920000Y-145285000D02*
X70920000Y-143580000D01*
X80080000Y-141570000D02*
X80080000Y-139650000D01*
X80080000Y-143580000D02*
X80080000Y-145285000D01*
X80080000Y-145285000D02*
X70920000Y-145285000D01*
%TO.C,C3*%
X55290000Y-119761252D02*
X55290000Y-119238748D01*
X56760000Y-119761252D02*
X56760000Y-119238748D01*
%TO.C,L2*%
X74900000Y-116037500D02*
X74900000Y-123037500D01*
X79100000Y-116037500D02*
X79100000Y-123037500D01*
%TO.C,R2*%
X85852064Y-134340000D02*
X84397936Y-134340000D01*
X85852064Y-136160000D02*
X84397936Y-136160000D01*
%TO.C,U6*%
X118163437Y-129999115D02*
X118543437Y-129999115D01*
X118163437Y-135189115D02*
X118163437Y-129999115D01*
X118163437Y-135189115D02*
X118163437Y-140379115D01*
X118163437Y-140379115D02*
X118543437Y-140379115D01*
X136793437Y-129999115D02*
X136413437Y-129999115D01*
X136793437Y-135189115D02*
X136793437Y-129999115D01*
X136793437Y-135189115D02*
X136793437Y-140379115D01*
X136793437Y-140379115D02*
X136413437Y-140379115D01*
X136743437Y-129714115D02*
X136413437Y-129474115D01*
X136743437Y-129234115D01*
X136743437Y-129714115D01*
G36*
X136743437Y-129714115D02*
G01*
X136413437Y-129474115D01*
X136743437Y-129234115D01*
X136743437Y-129714115D01*
G37*
%TO.C,C6*%
X72236252Y-120802500D02*
X71713748Y-120802500D01*
X72236252Y-122272500D02*
X71713748Y-122272500D01*
%TO.C,L1*%
X62425000Y-116150000D02*
X62425000Y-123150000D01*
X66625000Y-116150000D02*
X66625000Y-123150000D01*
%TO.C,SW1*%
X122132437Y-124362115D02*
X128252437Y-124362115D01*
X122132437Y-127982115D02*
X122132437Y-124362115D01*
X128252437Y-124362115D02*
X128252437Y-127982115D01*
X128252437Y-127982115D02*
X122132437Y-127982115D01*
%TO.C,LED1*%
X136087500Y-124535000D02*
X140147500Y-124535000D01*
X140147500Y-122265000D02*
X136087500Y-122265000D01*
X140147500Y-124535000D02*
X140147500Y-122265000D01*
%TO.C,R14*%
X160239064Y-117708000D02*
X158784936Y-117708000D01*
X160239064Y-119528000D02*
X158784936Y-119528000D01*
%TO.C,C12*%
X87256252Y-105818000D02*
X86733748Y-105818000D01*
X87256252Y-107288000D02*
X86733748Y-107288000D01*
%TO.C,R8*%
X138377064Y-119090000D02*
X136922936Y-119090000D01*
X138377064Y-120910000D02*
X136922936Y-120910000D01*
D14*
%TO.C,F1*%
X49388000Y-114500000D02*
X49380000Y-127500000D01*
X50024000Y-128124462D02*
X53024000Y-128124462D01*
X53000000Y-113875077D02*
X50000000Y-113888000D01*
X53624923Y-127500000D02*
X53624923Y-114500000D01*
X49388000Y-114500000D02*
G75*
G02*
X50000000Y-113888000I612000J0D01*
G01*
X50000000Y-128124462D02*
G75*
G02*
X49380001Y-127500000I2J620017D01*
G01*
X53000000Y-113875077D02*
G75*
G02*
X53624923Y-114500000I0J-624923D01*
G01*
X53624923Y-127500000D02*
G75*
G02*
X53024000Y-128124462I-624924J1D01*
G01*
D12*
%TO.C,U8*%
X145940000Y-117500000D02*
X145940000Y-115550000D01*
X145940000Y-117500000D02*
X145940000Y-119450000D01*
X156060000Y-117500000D02*
X156060000Y-115550000D01*
X156060000Y-117500000D02*
X156060000Y-119450000D01*
X156335000Y-115040000D02*
X156005000Y-114800000D01*
X156335000Y-114560000D01*
X156335000Y-115040000D01*
G36*
X156335000Y-115040000D02*
G01*
X156005000Y-114800000D01*
X156335000Y-114560000D01*
X156335000Y-115040000D01*
G37*
%TO.C,SW2*%
X122132437Y-112932115D02*
X128252437Y-112932115D01*
X122132437Y-116552115D02*
X122132437Y-112932115D01*
X128252437Y-112932115D02*
X128252437Y-116552115D01*
X128252437Y-116552115D02*
X122132437Y-116552115D01*
%TO.C,C36*%
X172239000Y-112028248D02*
X172239000Y-112550752D01*
X173709000Y-112028248D02*
X173709000Y-112550752D01*
%TO.C,C5*%
X67765000Y-118298752D02*
X67765000Y-117776248D01*
X69235000Y-118298752D02*
X69235000Y-117776248D01*
D15*
%TO.C,G\u002A\u002A\u002A*%
G36*
X90686808Y-103374283D02*
G01*
X90686069Y-103378457D01*
X90674705Y-103383796D01*
X90647216Y-103393578D01*
X90635231Y-103391278D01*
X90633529Y-103383796D01*
X90643658Y-103375520D01*
X90665882Y-103372853D01*
X90686808Y-103374283D01*
G37*
G36*
X94115882Y-104219477D02*
G01*
X94115882Y-104525501D01*
X93810000Y-104525501D01*
X93504117Y-104525501D01*
X93504117Y-104219477D01*
X93504117Y-103913453D01*
X93810000Y-103913453D01*
X94115882Y-103913453D01*
X94115882Y-104219477D01*
G37*
G36*
X94833529Y-103672165D02*
G01*
X94833529Y-103972304D01*
X94527647Y-103972304D01*
X94221764Y-103972304D01*
X94221764Y-103672165D01*
X94221764Y-103372026D01*
X94527647Y-103372026D01*
X94833529Y-103372026D01*
X94833529Y-103672165D01*
G37*
G36*
X94927647Y-104596122D02*
G01*
X94927647Y-104902146D01*
X94615882Y-104902146D01*
X94304117Y-104902146D01*
X94304117Y-104596122D01*
X94304117Y-104290098D01*
X94615882Y-104290098D01*
X94927647Y-104290098D01*
X94927647Y-104596122D01*
G37*
G36*
X99795392Y-107317971D02*
G01*
X99792352Y-107980042D01*
X99718823Y-107983546D01*
X99645294Y-107987051D01*
X99645294Y-107321475D01*
X99645294Y-106655899D01*
X99721862Y-106655899D01*
X99798431Y-106655899D01*
X99795392Y-107317971D01*
G37*
G36*
X99798235Y-106314565D02*
G01*
X99798235Y-106420496D01*
X99721764Y-106420496D01*
X99645294Y-106420496D01*
X99645294Y-106314565D01*
X99645294Y-106208633D01*
X99721764Y-106208633D01*
X99798235Y-106208633D01*
X99798235Y-106314565D01*
G37*
G36*
X103092352Y-107203212D02*
G01*
X103092352Y-108244871D01*
X102939411Y-108244871D01*
X102786470Y-108244871D01*
X102786470Y-107203212D01*
X102786470Y-106161553D01*
X102939411Y-106161553D01*
X103092352Y-106161553D01*
X103092352Y-107203212D01*
G37*
G36*
X109233529Y-107303258D02*
G01*
X109233529Y-107985927D01*
X109068823Y-107985927D01*
X108904117Y-107985927D01*
X108904117Y-107303258D01*
X108904117Y-106620589D01*
X109068823Y-106620589D01*
X109233529Y-106620589D01*
X109233529Y-107303258D01*
G37*
G36*
X109245294Y-106291025D02*
G01*
X109245294Y-106444037D01*
X109068823Y-106444037D01*
X108892352Y-106444037D01*
X108892352Y-106291025D01*
X108892352Y-106138013D01*
X109068823Y-106138013D01*
X109245294Y-106138013D01*
X109245294Y-106291025D01*
G37*
G36*
X103970675Y-106164197D02*
G01*
X104154880Y-106167438D01*
X104406599Y-106532313D01*
X104463442Y-106614465D01*
X104516254Y-106690319D01*
X104563516Y-106757731D01*
X104603712Y-106814558D01*
X104635324Y-106858656D01*
X104656836Y-106887883D01*
X104666731Y-106900095D01*
X104667060Y-106900313D01*
X104675459Y-106891662D01*
X104695644Y-106865662D01*
X104726118Y-106824393D01*
X104765383Y-106769935D01*
X104811942Y-106704369D01*
X104864296Y-106629775D01*
X104920950Y-106548235D01*
X104932026Y-106532201D01*
X105188249Y-106160964D01*
X105372653Y-106164201D01*
X105557058Y-106167438D01*
X105557058Y-107073740D01*
X105557058Y-107980042D01*
X105389509Y-107983307D01*
X105221960Y-107986572D01*
X105218921Y-107326633D01*
X105215882Y-106666694D01*
X104945294Y-107055338D01*
X104886265Y-107139915D01*
X104831389Y-107218144D01*
X104782121Y-107287983D01*
X104739913Y-107347389D01*
X104706218Y-107394321D01*
X104682491Y-107426735D01*
X104670184Y-107442590D01*
X104668823Y-107443851D01*
X104661052Y-107434484D01*
X104641341Y-107407805D01*
X104611142Y-107365858D01*
X104571905Y-107310687D01*
X104525082Y-107244335D01*
X104472124Y-107168848D01*
X104414482Y-107086268D01*
X104392352Y-107054461D01*
X104121764Y-106665202D01*
X104118725Y-107325565D01*
X104115686Y-107985927D01*
X103951078Y-107985927D01*
X103786470Y-107985927D01*
X103786470Y-107073441D01*
X103786470Y-106160955D01*
X103970675Y-106164197D01*
G37*
G36*
X100433529Y-106473462D02*
G01*
X100433529Y-106655899D01*
X100621764Y-106655899D01*
X100810000Y-106655899D01*
X100810000Y-106720635D01*
X100810000Y-106785371D01*
X100621764Y-106785371D01*
X100433529Y-106785371D01*
X100433529Y-107256646D01*
X100433589Y-107375044D01*
X100433836Y-107472254D01*
X100434374Y-107550628D01*
X100435303Y-107612520D01*
X100436728Y-107660280D01*
X100438750Y-107696262D01*
X100441471Y-107722818D01*
X100444995Y-107742300D01*
X100449422Y-107757060D01*
X100454857Y-107769452D01*
X100455939Y-107771591D01*
X100486613Y-107814784D01*
X100528420Y-107842921D01*
X100585058Y-107857816D01*
X100638703Y-107861383D01*
X100688379Y-107860493D01*
X100735475Y-107857224D01*
X100766488Y-107852866D01*
X100811212Y-107843391D01*
X100807665Y-107911647D01*
X100804886Y-107950197D01*
X100799523Y-107971505D01*
X100788349Y-107981860D01*
X100768823Y-107987408D01*
X100725495Y-107992960D01*
X100668997Y-107995270D01*
X100607401Y-107994534D01*
X100548781Y-107990951D01*
X100501210Y-107984720D01*
X100483197Y-107980399D01*
X100411568Y-107946761D01*
X100355104Y-107895182D01*
X100317402Y-107834174D01*
X100286470Y-107768179D01*
X100282932Y-107276775D01*
X100279394Y-106785371D01*
X100174108Y-106785371D01*
X100068823Y-106785371D01*
X100068823Y-106720635D01*
X100068823Y-106655899D01*
X100174705Y-106655899D01*
X100280588Y-106655899D01*
X100280588Y-106473462D01*
X100280588Y-106291025D01*
X100357058Y-106291025D01*
X100433529Y-106291025D01*
X100433529Y-106473462D01*
G37*
G36*
X98315882Y-106437590D02*
G01*
X98316069Y-106517258D01*
X98316597Y-106588515D01*
X98317411Y-106648179D01*
X98318458Y-106693071D01*
X98319686Y-106720011D01*
X98320703Y-106726520D01*
X98333233Y-106723097D01*
X98363028Y-106713885D01*
X98405007Y-106700477D01*
X98434341Y-106690944D01*
X98566738Y-106655559D01*
X98691984Y-106637729D01*
X98808467Y-106637109D01*
X98914574Y-106653350D01*
X99008693Y-106686107D01*
X99089211Y-106735033D01*
X99154515Y-106799781D01*
X99189753Y-106853300D01*
X99205673Y-106883692D01*
X99218872Y-106912694D01*
X99229602Y-106942812D01*
X99238118Y-106976551D01*
X99244674Y-107016417D01*
X99249524Y-107064914D01*
X99252921Y-107124549D01*
X99255119Y-107197826D01*
X99256372Y-107287251D01*
X99256934Y-107395330D01*
X99257058Y-107517594D01*
X99257058Y-107985927D01*
X99187079Y-107985927D01*
X99117100Y-107985927D01*
X99113550Y-107506293D01*
X99112645Y-107387458D01*
X99111764Y-107289755D01*
X99110767Y-107210778D01*
X99109513Y-107148120D01*
X99107864Y-107099374D01*
X99105678Y-107062133D01*
X99102817Y-107033990D01*
X99099139Y-107012538D01*
X99094505Y-106995369D01*
X99088774Y-106980079D01*
X99082043Y-106964780D01*
X99039716Y-106895424D01*
X98982228Y-106842596D01*
X98908137Y-106805255D01*
X98834939Y-106785639D01*
X98771575Y-106780043D01*
X98693242Y-106783084D01*
X98606520Y-106793945D01*
X98517988Y-106811810D01*
X98436518Y-106835087D01*
X98321764Y-106873647D01*
X98318708Y-107429787D01*
X98315651Y-107985927D01*
X98244809Y-107985927D01*
X98198503Y-107983414D01*
X98172953Y-107976084D01*
X98168629Y-107971215D01*
X98167814Y-107957358D01*
X98167107Y-107921803D01*
X98166514Y-107866390D01*
X98166041Y-107792960D01*
X98165692Y-107703354D01*
X98165473Y-107599413D01*
X98165388Y-107482979D01*
X98165443Y-107355892D01*
X98165644Y-107219994D01*
X98165994Y-107077126D01*
X98166057Y-107056085D01*
X98168823Y-106155668D01*
X98242352Y-106152164D01*
X98315882Y-106148659D01*
X98315882Y-106437590D01*
G37*
G36*
X110312038Y-106605931D02*
G01*
X110382588Y-106611863D01*
X110448848Y-106623305D01*
X110520369Y-106641736D01*
X110571764Y-106657394D01*
X110610000Y-106669495D01*
X110610000Y-106811197D01*
X110609874Y-106870775D01*
X110609010Y-106910508D01*
X110606677Y-106934089D01*
X110602141Y-106945213D01*
X110594673Y-106947574D01*
X110583539Y-106944867D01*
X110583529Y-106944864D01*
X110518821Y-106925661D01*
X110468787Y-106912558D01*
X110425724Y-106904380D01*
X110381930Y-106899948D01*
X110329703Y-106898085D01*
X110274705Y-106897646D01*
X110209832Y-106897865D01*
X110163300Y-106899415D01*
X110129929Y-106902955D01*
X110104542Y-106909145D01*
X110081960Y-106918643D01*
X110072902Y-106923329D01*
X110016197Y-106962759D01*
X109973113Y-107014225D01*
X109942718Y-107079934D01*
X109924078Y-107162093D01*
X109916259Y-107262910D01*
X109915882Y-107294623D01*
X109919487Y-107398582D01*
X109931083Y-107482787D01*
X109951840Y-107550016D01*
X109982929Y-107603045D01*
X110025521Y-107644650D01*
X110076475Y-107675522D01*
X110107977Y-107690230D01*
X110135047Y-107699813D01*
X110164004Y-107705253D01*
X110201168Y-107707534D01*
X110252859Y-107707638D01*
X110280588Y-107707266D01*
X110403634Y-107699099D01*
X110510669Y-107678123D01*
X110589785Y-107650679D01*
X110598478Y-107648520D01*
X110604219Y-107653177D01*
X110607468Y-107668221D01*
X110608687Y-107697219D01*
X110608336Y-107743741D01*
X110607432Y-107787375D01*
X110604117Y-107932962D01*
X110510000Y-107961066D01*
X110445226Y-107975853D01*
X110366930Y-107986711D01*
X110281689Y-107993388D01*
X110196082Y-107995633D01*
X110116687Y-107993195D01*
X110050084Y-107985822D01*
X110021764Y-107979705D01*
X109908831Y-107937863D01*
X109811755Y-107878676D01*
X109730847Y-107802468D01*
X109666422Y-107709567D01*
X109618791Y-107600299D01*
X109601856Y-107541604D01*
X109591091Y-107480269D01*
X109584186Y-107403908D01*
X109581142Y-107319403D01*
X109581963Y-107233635D01*
X109586650Y-107153485D01*
X109595207Y-107085835D01*
X109601662Y-107056085D01*
X109640261Y-106945933D01*
X109692813Y-106848374D01*
X109757295Y-106766210D01*
X109831684Y-106702245D01*
X109876192Y-106675783D01*
X109942127Y-106645511D01*
X110004756Y-106624607D01*
X110070933Y-106611672D01*
X110147508Y-106605308D01*
X110227647Y-106604026D01*
X110312038Y-106605931D01*
G37*
G36*
X101659525Y-106640685D02*
G01*
X101766445Y-106663179D01*
X101853349Y-106697413D01*
X101939668Y-106752049D01*
X102011596Y-106824480D01*
X102069277Y-106914987D01*
X102112859Y-107023846D01*
X102142487Y-107151337D01*
X102156967Y-107276775D01*
X102165479Y-107397419D01*
X101658327Y-107397419D01*
X101533020Y-107397214D01*
X101429345Y-107396937D01*
X101345413Y-107397102D01*
X101279335Y-107398218D01*
X101229220Y-107400798D01*
X101193179Y-107405353D01*
X101169323Y-107412393D01*
X101155762Y-107422431D01*
X101150606Y-107435978D01*
X101151965Y-107453544D01*
X101157951Y-107475641D01*
X101166673Y-107502781D01*
X101174328Y-107528382D01*
X101210474Y-107628540D01*
X101258480Y-107708955D01*
X101319457Y-107770822D01*
X101394518Y-107815338D01*
X101462471Y-107838510D01*
X101546398Y-107852506D01*
X101644058Y-107856679D01*
X101748063Y-107851580D01*
X101851024Y-107837762D01*
X101945555Y-107815777D01*
X101995729Y-107798668D01*
X102030568Y-107785273D01*
X102055677Y-107776337D01*
X102063938Y-107774064D01*
X102066543Y-107784760D01*
X102067381Y-107812647D01*
X102066443Y-107847307D01*
X102062941Y-107920549D01*
X102004117Y-107942481D01*
X101961283Y-107956206D01*
X101907486Y-107970402D01*
X101858965Y-107981055D01*
X101806106Y-107988333D01*
X101739518Y-107993261D01*
X101665952Y-107995777D01*
X101592161Y-107995820D01*
X101524897Y-107993330D01*
X101470913Y-107988245D01*
X101451176Y-107984748D01*
X101337189Y-107949140D01*
X101239996Y-107897282D01*
X101159472Y-107829016D01*
X101095496Y-107744180D01*
X101047944Y-107642613D01*
X101016693Y-107524156D01*
X101002144Y-107398555D01*
X101002857Y-107267948D01*
X101151176Y-107267948D01*
X101580588Y-107267948D01*
X102010000Y-107267948D01*
X102009826Y-107235580D01*
X102005311Y-107192387D01*
X101993665Y-107136504D01*
X101977188Y-107076807D01*
X101958180Y-107022173D01*
X101948901Y-107000499D01*
X101926400Y-106962366D01*
X101893772Y-106918760D01*
X101862042Y-106883296D01*
X101790549Y-106827256D01*
X101707621Y-106791572D01*
X101612937Y-106776138D01*
X101542139Y-106777118D01*
X101442902Y-106794563D01*
X101357834Y-106830798D01*
X101286952Y-106885810D01*
X101230271Y-106959583D01*
X101187807Y-107052103D01*
X101168947Y-107117508D01*
X101159558Y-107163263D01*
X101153163Y-107205720D01*
X101151350Y-107229695D01*
X101151176Y-107267948D01*
X101002857Y-107267948D01*
X101002905Y-107259236D01*
X101020890Y-107128004D01*
X101055324Y-107007482D01*
X101105430Y-106900291D01*
X101170433Y-106809054D01*
X101179513Y-106798960D01*
X101255853Y-106733073D01*
X101345739Y-106683741D01*
X101445457Y-106651526D01*
X101551291Y-106636988D01*
X101659525Y-106640685D01*
G37*
G36*
X106527647Y-106600982D02*
G01*
X106654727Y-106616987D01*
X106764811Y-106649178D01*
X106858173Y-106697754D01*
X106935087Y-106762916D01*
X106995826Y-106844860D01*
X107040666Y-106943788D01*
X107052571Y-106982162D01*
X107060143Y-107022069D01*
X107066662Y-107080639D01*
X107072001Y-107153013D01*
X107076035Y-107234331D01*
X107078638Y-107319735D01*
X107079683Y-107404365D01*
X107079044Y-107483363D01*
X107076595Y-107551868D01*
X107072211Y-107605023D01*
X107069238Y-107624404D01*
X107039199Y-107721104D01*
X106989772Y-107805079D01*
X106921946Y-107875374D01*
X106836711Y-107931031D01*
X106735058Y-107971093D01*
X106701401Y-107979952D01*
X106647083Y-107988815D01*
X106578208Y-107994329D01*
X106501855Y-107996502D01*
X106425104Y-107995340D01*
X106355035Y-107990849D01*
X106298725Y-107983037D01*
X106283700Y-107979553D01*
X106178286Y-107940932D01*
X106089634Y-107886827D01*
X106018596Y-107818124D01*
X105966026Y-107735709D01*
X105932776Y-107640469D01*
X105926530Y-107608512D01*
X105920418Y-107507314D01*
X105923241Y-107490406D01*
X106257058Y-107490406D01*
X106265274Y-107563841D01*
X106290171Y-107621215D01*
X106332127Y-107662832D01*
X106391518Y-107688993D01*
X106468719Y-107700003D01*
X106517184Y-107699790D01*
X106583060Y-107693376D01*
X106630521Y-107680411D01*
X106646555Y-107672481D01*
X106686426Y-107644243D01*
X106713553Y-107611149D01*
X106730015Y-107568350D01*
X106737890Y-107511000D01*
X106739411Y-107455902D01*
X106739416Y-107406161D01*
X106737087Y-107371193D01*
X106728913Y-107348399D01*
X106711381Y-107335179D01*
X106680978Y-107328933D01*
X106634191Y-107327061D01*
X106567509Y-107326962D01*
X106565209Y-107326959D01*
X106480073Y-107329159D01*
X106413911Y-107336683D01*
X106362568Y-107350532D01*
X106321889Y-107371711D01*
X106297357Y-107391600D01*
X106272779Y-107417758D01*
X106260862Y-107442332D01*
X106257204Y-107476116D01*
X106257058Y-107490406D01*
X105923241Y-107490406D01*
X105935825Y-107415020D01*
X105972150Y-107332518D01*
X106028787Y-107260696D01*
X106105135Y-107200442D01*
X106200590Y-107152642D01*
X106247497Y-107136096D01*
X106282084Y-107125975D01*
X106314577Y-107118756D01*
X106349943Y-107113993D01*
X106393149Y-107111236D01*
X106449164Y-107110036D01*
X106522954Y-107109946D01*
X106536470Y-107110003D01*
X106612682Y-107110363D01*
X106668127Y-107109816D01*
X106705565Y-107107157D01*
X106727757Y-107101181D01*
X106737462Y-107090683D01*
X106737442Y-107074457D01*
X106730456Y-107051297D01*
X106722366Y-107028823D01*
X106698073Y-106978687D01*
X106662612Y-106940571D01*
X106615882Y-106910648D01*
X106594203Y-106900290D01*
X106571470Y-106893292D01*
X106542719Y-106889085D01*
X106502987Y-106887102D01*
X106447310Y-106886774D01*
X106410000Y-106887073D01*
X106336969Y-106888616D01*
X106280394Y-106892067D01*
X106233228Y-106898268D01*
X106188421Y-106908061D01*
X106154117Y-106917674D01*
X106057058Y-106946621D01*
X106057058Y-106808860D01*
X106057058Y-106671099D01*
X106142352Y-106645956D01*
X106296776Y-106611875D01*
X106453569Y-106599233D01*
X106527647Y-106600982D01*
G37*
G36*
X107998235Y-106601450D02*
G01*
X108055501Y-106606378D01*
X108111474Y-106613499D01*
X108156763Y-106621544D01*
X108168823Y-106624472D01*
X108266994Y-106661671D01*
X108351548Y-106715058D01*
X108419902Y-106782633D01*
X108465624Y-106854311D01*
X108498235Y-106920728D01*
X108498235Y-107538661D01*
X108498235Y-108156595D01*
X108465285Y-108227215D01*
X108418648Y-108306928D01*
X108359038Y-108371555D01*
X108283832Y-108423123D01*
X108190404Y-108463655D01*
X108137749Y-108479943D01*
X108095525Y-108490220D01*
X108052561Y-108497080D01*
X108002799Y-108501060D01*
X107940175Y-108502697D01*
X107880824Y-108502708D01*
X107811557Y-108501152D01*
X107743007Y-108497679D01*
X107682322Y-108492772D01*
X107636648Y-108486915D01*
X107630206Y-108485725D01*
X107579266Y-108475943D01*
X107544180Y-108467614D01*
X107522022Y-108456544D01*
X107509863Y-108438537D01*
X107504778Y-108409398D01*
X107503837Y-108364930D01*
X107504117Y-108305014D01*
X107504117Y-108154880D01*
X107589411Y-108177887D01*
X107636996Y-108188623D01*
X107689772Y-108195878D01*
X107753599Y-108200212D01*
X107834338Y-108202182D01*
X107845294Y-108202285D01*
X107914302Y-108202494D01*
X107964723Y-108201466D01*
X108001484Y-108198672D01*
X108029518Y-108193580D01*
X108053753Y-108185663D01*
X108071450Y-108177993D01*
X108124053Y-108144603D01*
X108157223Y-108100558D01*
X108172844Y-108042768D01*
X108174661Y-108008635D01*
X108174705Y-107943067D01*
X108112941Y-107951868D01*
X107995948Y-107960479D01*
X107878969Y-107954113D01*
X107768350Y-107933582D01*
X107670438Y-107899697D01*
X107657475Y-107893627D01*
X107573689Y-107839999D01*
X107501945Y-107767462D01*
X107443745Y-107678154D01*
X107400591Y-107574214D01*
X107381542Y-107500904D01*
X107371065Y-107429396D01*
X107365142Y-107344642D01*
X107364263Y-107285603D01*
X107699577Y-107285603D01*
X107702842Y-107396910D01*
X107715129Y-107487442D01*
X107737885Y-107558713D01*
X107772556Y-107612236D01*
X107820589Y-107649523D01*
X107883429Y-107672088D01*
X107962525Y-107681442D01*
X108059322Y-107679098D01*
X108074685Y-107677897D01*
X108118813Y-107674118D01*
X108152658Y-107671069D01*
X108170446Y-107669275D01*
X108171764Y-107669069D01*
X108172521Y-107657544D01*
X108173206Y-107625449D01*
X108173793Y-107575753D01*
X108174255Y-107511426D01*
X108174567Y-107435438D01*
X108174702Y-107350760D01*
X108174705Y-107334271D01*
X108174636Y-107236673D01*
X108174301Y-107159817D01*
X108173515Y-107100903D01*
X108172089Y-107057133D01*
X108169836Y-107025708D01*
X108166568Y-107003829D01*
X108162099Y-106988697D01*
X108156241Y-106977515D01*
X108150264Y-106969322D01*
X108121418Y-106939309D01*
X108087240Y-106919626D01*
X108040761Y-106907038D01*
X108004117Y-106901552D01*
X107921746Y-106899613D01*
X107853238Y-106916462D01*
X107797387Y-106952805D01*
X107752992Y-107009350D01*
X107726971Y-107064188D01*
X107715454Y-107097612D01*
X107707690Y-107131284D01*
X107702940Y-107171169D01*
X107700467Y-107223232D01*
X107699577Y-107285603D01*
X107364263Y-107285603D01*
X107363806Y-107254861D01*
X107367092Y-107168270D01*
X107375034Y-107093084D01*
X107379751Y-107066950D01*
X107415355Y-106948648D01*
X107468045Y-106846078D01*
X107536657Y-106760118D01*
X107620026Y-106691645D01*
X107716986Y-106641535D01*
X107826371Y-106610667D01*
X107947017Y-106599916D01*
X107998235Y-106601450D01*
G37*
G36*
X93315882Y-104878161D02*
G01*
X93315882Y-105042498D01*
X93860000Y-105045885D01*
X93987277Y-105046700D01*
X94093277Y-105047493D01*
X94180250Y-105048377D01*
X94250447Y-105049467D01*
X94306119Y-105050876D01*
X94349518Y-105052717D01*
X94382893Y-105055103D01*
X94408498Y-105058149D01*
X94428581Y-105061968D01*
X94445395Y-105066673D01*
X94461190Y-105072377D01*
X94472171Y-105076754D01*
X94553227Y-105121421D01*
X94626386Y-105184738D01*
X94688078Y-105262218D01*
X94734733Y-105349374D01*
X94762781Y-105441716D01*
X94762879Y-105442237D01*
X94764814Y-105464525D01*
X94766582Y-105508483D01*
X94768181Y-105572243D01*
X94769614Y-105653935D01*
X94770880Y-105751690D01*
X94771980Y-105863639D01*
X94772915Y-105987913D01*
X94773686Y-106122643D01*
X94774293Y-106265958D01*
X94774737Y-106415992D01*
X94775018Y-106570873D01*
X94775137Y-106728733D01*
X94775096Y-106887703D01*
X94774894Y-107045913D01*
X94774532Y-107201496D01*
X94774011Y-107352580D01*
X94773331Y-107497297D01*
X94772494Y-107633779D01*
X94771499Y-107760155D01*
X94770348Y-107874558D01*
X94769041Y-107975116D01*
X94767578Y-108059962D01*
X94765962Y-108127226D01*
X94764191Y-108175040D01*
X94762267Y-108201533D01*
X94761902Y-108203908D01*
X94731671Y-108304792D01*
X94681134Y-108395519D01*
X94612260Y-108473508D01*
X94527019Y-108536177D01*
X94495168Y-108553286D01*
X94416385Y-108592090D01*
X93010251Y-108594318D01*
X92791368Y-108594622D01*
X92594864Y-108594797D01*
X92419587Y-108594832D01*
X92264388Y-108594717D01*
X92128114Y-108594440D01*
X92009617Y-108593993D01*
X91907744Y-108593363D01*
X91821345Y-108592541D01*
X91749270Y-108591515D01*
X91690368Y-108590276D01*
X91643488Y-108588813D01*
X91607480Y-108587115D01*
X91581192Y-108585171D01*
X91563474Y-108582972D01*
X91554541Y-108580973D01*
X91461695Y-108539855D01*
X91379710Y-108479724D01*
X91311240Y-108403626D01*
X91258939Y-108314609D01*
X91225461Y-108215720D01*
X91222008Y-108199075D01*
X91218455Y-108168501D01*
X91215319Y-108118877D01*
X91212766Y-108054692D01*
X91210960Y-107980436D01*
X91210066Y-107900596D01*
X91210000Y-107872504D01*
X91210000Y-107609282D01*
X90910000Y-107609282D01*
X90610000Y-107609282D01*
X90610000Y-107285603D01*
X90610000Y-107044315D01*
X90692352Y-107044315D01*
X90692352Y-107279718D01*
X90692352Y-107515121D01*
X91221764Y-107515121D01*
X91751176Y-107515121D01*
X91751176Y-107279718D01*
X91751176Y-107044315D01*
X91221764Y-107044315D01*
X90692352Y-107044315D01*
X90610000Y-107044315D01*
X90610000Y-106961924D01*
X90910000Y-106961924D01*
X91210000Y-106961924D01*
X91210000Y-106826567D01*
X91210000Y-106691210D01*
X90910000Y-106691210D01*
X90610000Y-106691210D01*
X90610000Y-106679440D01*
X92257058Y-106679440D01*
X92257058Y-106967809D01*
X92257058Y-107256177D01*
X92545294Y-107256177D01*
X92833529Y-107256177D01*
X92833529Y-106967809D01*
X92833529Y-106714750D01*
X93433529Y-106714750D01*
X93433529Y-107009004D01*
X93433529Y-107303258D01*
X93727647Y-107303258D01*
X94021764Y-107303258D01*
X94021764Y-107009004D01*
X94021764Y-106714750D01*
X93727647Y-106714750D01*
X93433529Y-106714750D01*
X92833529Y-106714750D01*
X92833529Y-106679440D01*
X92545294Y-106679440D01*
X92257058Y-106679440D01*
X90610000Y-106679440D01*
X90610000Y-106367531D01*
X90610000Y-106126242D01*
X90692352Y-106126242D01*
X90692352Y-106361646D01*
X90692352Y-106597049D01*
X91221764Y-106597049D01*
X91751176Y-106597049D01*
X91751176Y-106361646D01*
X91751176Y-106126242D01*
X91221764Y-106126242D01*
X90692352Y-106126242D01*
X90610000Y-106126242D01*
X90610000Y-106043851D01*
X90910000Y-106043851D01*
X91210000Y-106043851D01*
X91210000Y-105996771D01*
X92845294Y-105996771D01*
X92845294Y-106291025D01*
X92845294Y-106585279D01*
X93133529Y-106585279D01*
X93421764Y-106585279D01*
X93421764Y-106291025D01*
X93421764Y-105996771D01*
X93133529Y-105996771D01*
X92845294Y-105996771D01*
X91210000Y-105996771D01*
X91210000Y-105774744D01*
X91210520Y-105693283D01*
X91211977Y-105615967D01*
X91214213Y-105547192D01*
X91217070Y-105491357D01*
X91220393Y-105452859D01*
X91221854Y-105443098D01*
X91252509Y-105341068D01*
X91302559Y-105249980D01*
X91369794Y-105172305D01*
X91452004Y-105110518D01*
X91546980Y-105067089D01*
X91562135Y-105062327D01*
X91580319Y-105057762D01*
X91602751Y-105053975D01*
X91631632Y-105050896D01*
X91669161Y-105048458D01*
X91717538Y-105046590D01*
X91778962Y-105045223D01*
X91855635Y-105044290D01*
X91949755Y-105043719D01*
X92063523Y-105043443D01*
X92165076Y-105043388D01*
X92704117Y-105043388D01*
X92715882Y-105043388D01*
X92715882Y-105178745D01*
X92715882Y-105314101D01*
X93010000Y-105314101D01*
X93304117Y-105314101D01*
X93304117Y-105278791D01*
X93727647Y-105278791D01*
X93727647Y-105567160D01*
X93727647Y-105855529D01*
X94021764Y-105855529D01*
X94315882Y-105855529D01*
X94315882Y-105567160D01*
X94315882Y-105278791D01*
X94021764Y-105278791D01*
X93727647Y-105278791D01*
X93304117Y-105278791D01*
X93304117Y-105178745D01*
X93304117Y-105043388D01*
X93010000Y-105043388D01*
X92715882Y-105043388D01*
X92704117Y-105043388D01*
X92704117Y-104878606D01*
X92704117Y-104713823D01*
X93010000Y-104713823D01*
X93315882Y-104713823D01*
X93315882Y-104878161D01*
G37*
G36*
X97857659Y-106225268D02*
G01*
X97874950Y-106234946D01*
X97875736Y-106236503D01*
X97874194Y-106252997D01*
X97865611Y-106289261D01*
X97850721Y-106342845D01*
X97830259Y-106411302D01*
X97804959Y-106492182D01*
X97775553Y-106583037D01*
X97742776Y-106681417D01*
X97739465Y-106691210D01*
X97728800Y-106723534D01*
X97712723Y-106773301D01*
X97692843Y-106835488D01*
X97670765Y-106905069D01*
X97650990Y-106967809D01*
X97627755Y-107041429D01*
X97604775Y-107113639D01*
X97583817Y-107178929D01*
X97566647Y-107231789D01*
X97556611Y-107262063D01*
X97545402Y-107295957D01*
X97528416Y-107348230D01*
X97506960Y-107414809D01*
X97482345Y-107491625D01*
X97455877Y-107574609D01*
X97433649Y-107644593D01*
X97407951Y-107725197D01*
X97384159Y-107798943D01*
X97363310Y-107862691D01*
X97346439Y-107913298D01*
X97334580Y-107947626D01*
X97328854Y-107962387D01*
X97313544Y-107973640D01*
X97280959Y-107979153D01*
X97250383Y-107980042D01*
X97211664Y-107979399D01*
X97189650Y-107975218D01*
X97177517Y-107964128D01*
X97168440Y-107942753D01*
X97167060Y-107938847D01*
X97158470Y-107913498D01*
X97144149Y-107869926D01*
X97123885Y-107807472D01*
X97097467Y-107725483D01*
X97064684Y-107623302D01*
X97025325Y-107500273D01*
X96979179Y-107355741D01*
X96956809Y-107285603D01*
X96921592Y-107175293D01*
X96883638Y-107056665D01*
X96844754Y-106935351D01*
X96806748Y-106816980D01*
X96771426Y-106707182D01*
X96740596Y-106611588D01*
X96728378Y-106573806D01*
X96696085Y-106474058D01*
X96652234Y-106615002D01*
X96632164Y-106678926D01*
X96611451Y-106743913D01*
X96592761Y-106801653D01*
X96580619Y-106838337D01*
X96567491Y-106878165D01*
X96549317Y-106934496D01*
X96528009Y-107001345D01*
X96505479Y-107072728D01*
X96492265Y-107114936D01*
X96470516Y-107184339D01*
X96449446Y-107251022D01*
X96430780Y-107309565D01*
X96416243Y-107354548D01*
X96409848Y-107373879D01*
X96399511Y-107405341D01*
X96383666Y-107454574D01*
X96363812Y-107516875D01*
X96341447Y-107587541D01*
X96318068Y-107661870D01*
X96316105Y-107668133D01*
X96287440Y-107760038D01*
X96264933Y-107832039D01*
X96247309Y-107886563D01*
X96233293Y-107926041D01*
X96221609Y-107952902D01*
X96210981Y-107969575D01*
X96200134Y-107978490D01*
X96187793Y-107982076D01*
X96172681Y-107982762D01*
X96153524Y-107982977D01*
X96150739Y-107983094D01*
X96112729Y-107983263D01*
X96084030Y-107980425D01*
X96074303Y-107977209D01*
X96066043Y-107962262D01*
X96051534Y-107925257D01*
X96030975Y-107866777D01*
X96004562Y-107787405D01*
X95972494Y-107687723D01*
X95934968Y-107568313D01*
X95927579Y-107544546D01*
X95916631Y-107509721D01*
X95900147Y-107457854D01*
X95879838Y-107394298D01*
X95857414Y-107324409D01*
X95840182Y-107270890D01*
X95812626Y-107185390D01*
X95781423Y-107088496D01*
X95749793Y-106990206D01*
X95720951Y-106900514D01*
X95711373Y-106870705D01*
X95684293Y-106786712D01*
X95653553Y-106691864D01*
X95622408Y-106596173D01*
X95594111Y-106509649D01*
X95586090Y-106485232D01*
X95565228Y-106419966D01*
X95547214Y-106360097D01*
X95533344Y-106310214D01*
X95524914Y-106274906D01*
X95522952Y-106261599D01*
X95524284Y-106238575D01*
X95534774Y-106227665D01*
X95561030Y-106223101D01*
X95567702Y-106222527D01*
X95612505Y-106220791D01*
X95642606Y-106227088D01*
X95663281Y-106245436D01*
X95679805Y-106279851D01*
X95692254Y-106317348D01*
X95710117Y-106374946D01*
X95730268Y-106439820D01*
X95746225Y-106491117D01*
X95757459Y-106527288D01*
X95774301Y-106581634D01*
X95795415Y-106649839D01*
X95819464Y-106727587D01*
X95845115Y-106810562D01*
X95862788Y-106867762D01*
X95890408Y-106957164D01*
X95913127Y-107030624D01*
X95932366Y-107092678D01*
X95949548Y-107147864D01*
X95966096Y-107200719D01*
X95983430Y-107255779D01*
X96002975Y-107317580D01*
X96026151Y-107390659D01*
X96054381Y-107479554D01*
X96069419Y-107526891D01*
X96142336Y-107756409D01*
X96188729Y-107609282D01*
X96211374Y-107537605D01*
X96237744Y-107454354D01*
X96264398Y-107370376D01*
X96285751Y-107303258D01*
X96309343Y-107228803D01*
X96335305Y-107146198D01*
X96360359Y-107065910D01*
X96379778Y-107003119D01*
X96398855Y-106941610D01*
X96417815Y-106881474D01*
X96434340Y-106830007D01*
X96445212Y-106797141D01*
X96456210Y-106763801D01*
X96472402Y-106713385D01*
X96492066Y-106651319D01*
X96513479Y-106583027D01*
X96527418Y-106538198D01*
X96548858Y-106469364D01*
X96569478Y-106403826D01*
X96587612Y-106346826D01*
X96601596Y-106303609D01*
X96607758Y-106285139D01*
X96627928Y-106226289D01*
X96698324Y-106226289D01*
X96768720Y-106226289D01*
X96784298Y-106273369D01*
X96790780Y-106293589D01*
X96803539Y-106333960D01*
X96821849Y-106392165D01*
X96844982Y-106465882D01*
X96872211Y-106552790D01*
X96902808Y-106650571D01*
X96936047Y-106756904D01*
X96971200Y-106869468D01*
X96981688Y-106903073D01*
X97017510Y-107017744D01*
X97051851Y-107127445D01*
X97083953Y-107229765D01*
X97113054Y-107322293D01*
X97138396Y-107402618D01*
X97159220Y-107468331D01*
X97174765Y-107517021D01*
X97184272Y-107546278D01*
X97185671Y-107550431D01*
X97202186Y-107600944D01*
X97219444Y-107657168D01*
X97227264Y-107684111D01*
X97238062Y-107719447D01*
X97246802Y-107742680D01*
X97251127Y-107748611D01*
X97255113Y-107737152D01*
X97265394Y-107705492D01*
X97281255Y-107655902D01*
X97301984Y-107590655D01*
X97326869Y-107512022D01*
X97355196Y-107422274D01*
X97386251Y-107323683D01*
X97419323Y-107218520D01*
X97453698Y-107109056D01*
X97488664Y-106997564D01*
X97523506Y-106886315D01*
X97557513Y-106777580D01*
X97589971Y-106673631D01*
X97620167Y-106576740D01*
X97647389Y-106489177D01*
X97670923Y-106413214D01*
X97690056Y-106351124D01*
X97700676Y-106316383D01*
X97714277Y-106278214D01*
X97728573Y-106248028D01*
X97736333Y-106236935D01*
X97757771Y-106226513D01*
X97790710Y-106221078D01*
X97826792Y-106220654D01*
X97857659Y-106225268D01*
G37*
D12*
%TO.C,R12*%
X84397936Y-129340000D02*
X85852064Y-129340000D01*
X84397936Y-131160000D02*
X85852064Y-131160000D01*
D13*
%TO.C,U2*%
X70996700Y-119713900D02*
X73003300Y-119713900D01*
X73003300Y-116361100D02*
X70996700Y-116361100D01*
X73003300Y-118400761D02*
X73003300Y-117674239D01*
D12*
%TO.C,LED3*%
X136012500Y-118635000D02*
X140072500Y-118635000D01*
X140072500Y-116365000D02*
X136012500Y-116365000D01*
X140072500Y-118635000D02*
X140072500Y-116365000D01*
D14*
%TO.C,BT1*%
X112676000Y-91254000D02*
X128676000Y-91254000D01*
X112676000Y-107254000D02*
X128676000Y-107254000D01*
X128176000Y-97254000D02*
X128176000Y-101254000D01*
X128176000Y-101254000D02*
X130176000Y-102754000D01*
X129932782Y-105758766D02*
X132676000Y-105754000D01*
X129976000Y-92754000D02*
X132676000Y-92754000D01*
X130176000Y-95754000D02*
X128176000Y-97254000D01*
X130176000Y-95754000D02*
X132676000Y-95754000D01*
X132676000Y-92754000D02*
X132676000Y-95754000D01*
X132676000Y-102754000D02*
X130176000Y-102754000D01*
X132676000Y-105754000D02*
X132676000Y-102754000D01*
X112676001Y-107253999D02*
G75*
G02*
X112676001Y-91254001I8000001J7999999D01*
G01*
X128676000Y-91254000D02*
G75*
G02*
X129916152Y-92725632I-7999988J-7999989D01*
G01*
X129932782Y-105758766D02*
G75*
G02*
X128676000Y-107254000I-9256853J6504823D01*
G01*
D12*
%TO.C,C13*%
X72776248Y-125265000D02*
X73298752Y-125265000D01*
X72776248Y-126735000D02*
X73298752Y-126735000D01*
%TO.C,R5*%
X138477064Y-125090000D02*
X137022936Y-125090000D01*
X138477064Y-126910000D02*
X137022936Y-126910000D01*
%TO.C,R1*%
X160239064Y-120248000D02*
X158784936Y-120248000D01*
X160239064Y-122068000D02*
X158784936Y-122068000D01*
%TO.C,LED2*%
X54040000Y-127365000D02*
X54040000Y-129635000D01*
X54040000Y-129635000D02*
X58100000Y-129635000D01*
X58100000Y-127365000D02*
X54040000Y-127365000D01*
%TO.C,C38*%
X170207000Y-112028248D02*
X170207000Y-112550752D01*
X171677000Y-112028248D02*
X171677000Y-112550752D01*
%TO.C,J1*%
X94742000Y-89640000D02*
X94742000Y-101360000D01*
X94742000Y-101360000D02*
X96162000Y-101360000D01*
X96162000Y-96860000D02*
X98552000Y-96860000D01*
X96162000Y-101360000D02*
X96162000Y-96860000D01*
X97052000Y-90250000D02*
X97052000Y-95750000D01*
X97052000Y-95750000D02*
X97552000Y-95750000D01*
X97552000Y-90250000D02*
X97052000Y-90250000D01*
X97552000Y-95750000D02*
X97552000Y-90250000D01*
X98552000Y-89640000D02*
X94742000Y-89640000D01*
X98552000Y-89640000D02*
X102362000Y-89640000D01*
X99502000Y-101050000D02*
X99802000Y-100450000D01*
X99552000Y-90250000D02*
X99552000Y-95750000D01*
X99552000Y-95750000D02*
X100052000Y-95750000D01*
X99802000Y-100450000D02*
X100102000Y-101050000D01*
X100052000Y-90250000D02*
X99552000Y-90250000D01*
X100052000Y-95750000D02*
X100052000Y-90250000D01*
X100102000Y-101050000D02*
X99502000Y-101050000D01*
X100942000Y-96860000D02*
X98552000Y-96860000D01*
X100942000Y-101360000D02*
X100942000Y-96860000D01*
X102362000Y-89640000D02*
X102362000Y-101360000D01*
X102362000Y-101360000D02*
X100942000Y-101360000D01*
%TO.C,C4*%
X59786252Y-122265000D02*
X59263748Y-122265000D01*
X59786252Y-123735000D02*
X59263748Y-123735000D01*
%TO.C,R3*%
X61272936Y-127590000D02*
X62727064Y-127590000D01*
X61272936Y-129410000D02*
X62727064Y-129410000D01*
%TD*%
M02*
