M48
; DRILL file {KiCad 8.0.1} date 2024-04-15T20:37:12+0200
; FORMAT={-:-/ absolute / inch / decimal}
; #@! TF.CreationDate,2024-04-15T20:37:12+02:00
; #@! TF.GenerationSoftware,Kicad,Pcbnew,8.0.1
; #@! TF.FileFunction,MixedPlating,1,2
FMAT,2
INCH
; #@! TA.AperFunction,Plated,PTH,ViaDrill
T1C0.0039
; #@! TA.AperFunction,Plated,PTH,ComponentDrill
T2C0.0236
; #@! TA.AperFunction,Plated,PTH,ComponentDrill
T3C0.0362
; #@! TA.AperFunction,Plated,PTH,ComponentDrill
T4C0.0394
; #@! TA.AperFunction,Plated,PTH,ComponentDrill
T5C0.0787
; #@! TA.AperFunction,NonPlated,NPTH,ComponentDrill
T6C0.0256
%
G90
G05
T1
X2.69Y-4.88
X2.7717Y-5.5787
X2.815Y-5.205
X2.865Y-5.015
X2.865Y-5.205
X2.9184Y-5.4734
X2.935Y-5.485
X2.95Y-5.02
X2.975Y-5.21
X2.975Y-5.485
X2.99Y-5.025
X2.9914Y-5.4741
X3.0Y-5.21
X3.08Y-4.88
X3.16Y-4.79
X3.27Y-4.92
X3.2899Y-4.995
X3.305Y-4.8252
X3.315Y-4.8448
X3.325Y-4.45
X3.33Y-4.865
X3.345Y-4.885
X3.4145Y-4.7605
X3.605Y-5.435
X3.7388Y-4.3174
X3.7488Y-4.7074
X3.7488Y-4.9524
X3.7688Y-5.0233
X3.77Y-4.68
X3.7752Y-4.4152
X3.78Y-4.4724
X3.8038Y-5.1574
X3.8423Y-4.4427
X3.8736Y-4.3236
X3.8933Y-4.3155
X3.913Y-4.3073
X3.92Y-4.74
X3.9327Y-4.2992
X3.9327Y-5.1677
X3.9356Y-4.4506
X3.9524Y-4.2874
X3.9797Y-5.0233
X3.9838Y-5.1674
X4.0Y-4.91
X4.0311Y-4.2989
X4.05Y-4.325
X4.0705Y-4.3105
X4.0732Y-5.1518
X4.0788Y-4.4324
X4.1088Y-4.4324
X4.1295Y-4.3255
X4.1492Y-4.3164
X4.1588Y-5.1574
X4.1693Y-4.0647
X4.184Y-4.624
X4.1886Y-4.335
X4.189Y-4.1031
X4.2083Y-4.3198
X4.2087Y-4.122
X4.228Y-4.3116
X4.2388Y-5.1574
X4.2476Y-4.3034
X4.2493Y-5.0574
X4.265Y-4.74
X4.2673Y-4.2953
X4.2756Y-4.265
X4.287Y-4.3037
X4.2884Y-4.2463
X4.3067Y-4.3118
X4.3088Y-4.418
X4.3264Y-4.32
X4.3461Y-4.3283
X4.36Y-5.1574
X4.3657Y-4.3364
X4.369Y-4.9576
X4.3747Y-5.2559
X4.3854Y-4.345
X4.395Y-4.74
X4.4Y-5.16
X4.4188Y-5.1174
X4.4288Y-4.4874
X4.431Y-4.948
X4.4488Y-4.5774
X4.4488Y-4.6374
X4.4638Y-5.2341
X4.4688Y-4.7847
X4.475Y-4.3136
X4.4764Y-5.1001
X4.4937Y-4.3323
X4.5827Y-5.0551
X4.5994Y-5.1797
X4.7008Y-5.1575
X4.81Y-4.945
X4.8124Y-4.7374
X4.8276Y-4.5174
X4.9238Y-5.405
X4.9763Y-5.1462
X5.0397Y-5.1443
X5.0597Y-5.18
X5.0597Y-5.3789
X5.1088Y-4.8974
X5.1788Y-4.5174
X5.1788Y-4.7374
X5.326Y-4.4126
X5.3583Y-4.81
X5.416Y-3.9976
X5.696Y-4.42
X5.801Y-5.0944
X5.815Y-5.52
X5.8465Y-4.626
X5.865Y-4.825
X5.891Y-5.0576
X5.915Y-5.52
X5.951Y-5.0188
X5.991Y-5.0276
X6.0699Y-4.5994
X6.076Y-4.6526
X6.115Y-4.92
X6.1614Y-4.7047
X6.1614Y-4.7244
X6.175Y-5.3
X6.215Y-4.92
X6.215Y-5.52
X6.25Y-5.32
X6.315Y-5.52
X6.4121Y-5.3387
X6.435Y-4.93
X6.465Y-5.4876
X6.59Y-4.6
X6.7105Y-4.5005
X6.7498Y-4.5002
X6.7695Y-4.7095
X6.8128Y-4.7264
X6.83Y-4.78
X6.8513Y-4.5
T3
X2.185Y-5.2076
X2.2835Y-5.2076
X2.3622Y-5.2076
X2.4606Y-5.2076
T4
X2.3075Y-4.2582
X2.3075Y-4.3582
X2.4075Y-4.2582
X2.4075Y-4.3582
X2.5075Y-4.2582
X2.5075Y-4.3582
X2.6075Y-4.2582
X2.6075Y-4.3582
X2.7075Y-4.2582
X2.7075Y-4.3582
X2.8075Y-4.2582
X2.8075Y-4.3582
X2.9075Y-4.2582
X2.9075Y-4.3582
X3.0075Y-4.2582
X3.0075Y-4.3582
X3.4408Y-3.8958
X3.5392Y-3.8958
X3.8308Y-3.8957
X3.9292Y-3.8957
X5.7764Y-4.2582
X5.7764Y-4.3582
X5.8764Y-4.2582
X5.8764Y-4.3582
X5.9764Y-4.2582
X5.9764Y-4.3582
X6.0764Y-4.2582
X6.0764Y-4.3582
X6.1764Y-4.2582
X6.1764Y-4.3582
X6.2764Y-4.2582
X6.2764Y-4.3582
X6.3764Y-4.2582
X6.3764Y-4.3582
X6.4764Y-4.2582
X6.4764Y-4.3582
T6
X2.8587Y-5.4683
X3.0862Y-5.4683
T2
G00X2.8024Y-5.4262
M15
G01X2.8024Y-5.4695
M16
G05
G00X2.8024Y-5.5974
M15
G01X2.8024Y-5.6289
M16
G05
G00X3.1425Y-5.4262
M15
G01X3.1425Y-5.4695
M16
G05
G00X3.1425Y-5.5974
M15
G01X3.1425Y-5.6289
M16
G05
T5
G00X2.0642Y-5.2887
M15
G01X2.0642Y-5.3399
M16
G05
G00X2.5815Y-5.2887
M15
G01X2.5815Y-5.3399
M16
G05
M30
